<svg width="963" height="1485" viewBox="0 0 963 1485" fill="none" xmlns="http://www.w3.org/2000/svg">
<path d="M135.414 958.18C141.78 958.18 146.62 948.634 148.543 935.376C146.222 943.861 143.504 956.655 135.414 958.18Z" fill="#FDF0DF" fill-opacity="0.05"/>
<path d="M783.174 128.142C782.908 126.352 767.989 42.6255 557.065 9.67859C651.022 27.1796 767.857 68.0153 783.174 128.142Z" fill="#FDF0DF" fill-opacity="0.05"/>
<path d="M292.895 40.4379C302.642 38.2503 329.563 26.4504 365.568 16.1752C340.902 22.2077 315.24 29.8975 292.298 38.8469C195.29 63.64 104.117 104.277 54.5189 227.248C62.4095 208.288 121.887 78.9534 292.895 40.3716V40.4379Z" fill="#FDF0DF" fill-opacity="0.05"/>
<path d="M898.483 301.892C879.718 228.64 845.436 158.57 783.174 128.208C797.761 137.489 867.119 189.661 898.483 301.892Z" fill="#FDF0DF" fill-opacity="0.05"/>
<path d="M453.956 0.530333C459.194 0.265167 464.433 0.132583 469.737 0.132583C465.958 -0.132583 460.587 0 453.956 0.530333Z" fill="#FDF0DF" fill-opacity="0.05"/>
<path d="M14.5353 287.971C-0.781738 318.2 -13.3802 363.345 -7.5451 435.006C4.12506 578.594 36.7484 641.24 37.4115 642.366C36.4832 639.914 -45.7383 427.25 14.6016 287.971H14.5353Z" fill="#FDF0DF" fill-opacity="0.05"/>
<path d="M920.629 492.68L920.099 529.273C920.165 526.091 920.762 512.766 920.629 492.68Z" fill="#FDF0DF" fill-opacity="0.05"/>
<path d="M233.284 1121.39C233.284 1121.39 233.483 1121.85 233.549 1121.99C233.483 1121.85 233.351 1121.59 233.218 1121.32L233.284 1121.39Z" fill="#FDF0DF" fill-opacity="0.05"/>
<path d="M935.681 739.749C959.088 695.864 963 616.446 963 594.438C963 541.802 920.099 529.604 920.099 529.604C919.9 541.669 902.196 550.751 902.859 525.362C903.522 499.972 882.701 422.013 880.115 413.528C877.529 405.042 858.234 373.885 858.632 363.477C863.207 252.969 768.254 179.518 751.346 180.181C750.683 156.78 674.628 102.818 653.807 96.3218C632.987 89.8252 614.818 100.233 601.756 106.73C588.76 113.226 544.532 90.4881 498.382 90.4881C438.705 90.4881 378.1 108.984 344.283 135.368C316.103 157.31 310.93 188.865 299.393 180.844C205.767 115.812 197.942 181.507 192.107 204.908C186.272 228.309 60.0887 276.436 116.052 291.352C171.95 306.334 142.045 367.389 127.722 388.204C113.4 409.02 119.235 471.4 109.488 524.699C99.7406 577.997 114.66 724.9 113.201 714.492C111.742 704.084 64.5975 655.36 58.6962 649.46C52.7948 643.626 37.2788 642.3 37.2788 642.3L25.0782 651.382C15.7289 655.094 15.3973 680.816 14.8668 700.173C14.2037 724.237 14.8669 743.063 15.8615 752.808C22.6912 820.558 61.9453 882.143 65.1281 896.131C66.7194 903.224 68.9739 909.588 71.6925 915.223C71.6925 915.223 71.9577 915.687 72.3555 916.615C72.3555 916.615 72.3555 916.681 72.3555 916.748C72.6208 917.278 72.886 917.875 73.2176 918.405C79.2516 928.614 101.73 943.264 125.07 943.264C132.563 943.264 122.219 926.824 124.407 918.538C129.446 899.578 138.73 879.028 138.73 879.028C148.543 895.667 150.864 918.405 148.41 935.243C149.737 930.404 150.93 926.957 152.853 927.818C156.699 929.542 174.27 980.189 190.052 1022.35C184.084 1000.47 256.757 999.546 277.18 1018.04C297.669 1036.6 347.4 1130.14 354.428 1143.8C361.457 1157.45 404.026 1141.87 407.872 1111.65C411.784 1081.42 459.592 1057.02 447.856 1066.77C436.119 1076.51 429.29 1141.87 447.856 1130.14C466.356 1118.41 503.422 1133.06 531.735 1148.64C560.048 1164.21 628.279 1161.3 632.324 1127.16C636.302 1093.02 655.598 1101.83 685.834 1099.85C716.07 1097.92 781.45 1084.27 776.477 1070.61C771.437 1056.95 720.977 1024.8 705.461 1017.98C689.945 1011.15 589.29 1015.99 571.719 1017.98C554.147 1019.96 543.405 978.001 532.73 978.001C522.054 978.001 518.076 962.423 532.73 957.981C532.73 957.981 557.462 949.363 570.127 962.025C582.792 974.687 639.021 950.291 651.089 951.286C663.09 952.28 711.561 926.227 731.387 926.89C751.213 927.553 776.609 1006.18 786.953 1017.91C797.363 1029.64 793.783 1103.69 805.785 1104.68C817.786 1105.68 808.37 1015.92 820.77 1017.91C833.103 1019.9 857.836 1018.24 865.329 1031.9C872.822 1045.55 856.841 1108.6 858.499 1123.58C858.632 1124.57 858.632 1126.16 858.499 1128.28C861.151 1124.97 863.273 1122.78 863.273 1122.78C868.578 1119.07 873.352 1114.36 877.596 1109.26C881.906 1104.15 885.752 1098.72 889.2 1093.55C895.565 1084.07 902.726 1041.44 912.142 1005.31C921.558 969.184 933.626 945.319 935.549 928.282C938.135 905.478 932.896 744.588 935.549 739.616L935.681 739.749ZM811.818 412.268C815.068 412.931 883.033 421.35 889.995 460.992C910.882 579.986 860.356 590.791 853.194 593.443C897.621 576.207 893.112 495.331 884.028 462.318C874.943 429.172 809.829 411.87 811.818 412.268ZM817.654 468.218C828.86 481.874 827.865 504.811 838.607 506.734C849.349 508.656 866.39 510.976 862.013 503.021C857.637 495.066 840.066 468.218 833.236 468.218C826.406 468.218 846.431 448.728 868.843 485.785C874.943 495.862 881.044 486.714 882.038 488.172C883.033 489.697 888.404 512.567 882.038 512.567C875.673 512.567 855.714 513.098 849.879 520.39C844.044 527.682 859.626 557.911 861.616 563.745C863.538 569.578 841.126 536.896 833.302 536.896C825.478 536.896 820.107 568.12 819.643 577.865C819.179 587.609 776.012 577.865 758.772 577.865C741.532 577.865 785.959 570.042 786.953 545.183C787.484 531.991 815.731 537.891 819.643 536.896C823.555 535.902 823.024 526.687 823.024 526.687C823.024 526.687 786.025 472.593 772.763 467.688C747.169 458.208 710.368 453.568 671.313 499.375C666.406 505.143 683.911 514.026 685.9 514.954C687.889 515.948 687.425 528.477 678.606 523.903C669.854 519.329 650.824 504.215 650.824 508.656C650.824 513.098 658.117 525.229 657.189 534.974C656.194 544.719 643.066 541.802 639.153 526.687C635.241 511.573 619.128 458.208 657.189 439.713C679.071 429.04 701.748 412.268 757.181 407.23C778.665 405.307 726.481 414.058 712.821 424.267C699.162 434.476 759.634 438.586 768.917 439.713C778.201 440.84 806.448 454.496 817.654 468.152V468.218ZM732.05 520.39C703.472 520.39 676.882 507.861 675.888 502.955C674.96 498.049 700.09 478.228 715.54 472.527C730.724 466.892 747.633 463.644 763.679 469.08C767.127 470.273 760.629 520.39 732.05 520.39ZM754.728 393.574C763.48 396.955 771.305 400.402 756.651 401.396L741.997 402.391C741.466 402.523 740.67 402.722 739.676 402.921C727.077 405.771 679.8 415.384 651.752 432.089C643.729 436.862 627.881 451.115 627.881 464.241C627.881 464.241 607.856 467.158 606.397 464.241C604.939 461.324 593.202 442.298 603.48 425.261C603.48 425.261 620.057 425.261 621.051 419.427C622.046 413.594 641.076 419.427 633.252 415.052C625.428 410.677 623.505 407.362 611.768 396.358C600.032 385.287 636.634 407.23 647.376 403.849C658.117 400.468 680.065 387.74 692.73 388.27C705.395 388.734 745.909 390.193 754.661 393.64L754.728 393.574ZM365.104 548.63C348.792 548.63 336.326 541.935 334.602 507.861C322.203 522.378 312.456 543.26 312.456 543.26C312.456 543.26 306.62 547.636 297.802 550.088C289.049 552.541 274.859 576.937 263.653 582.24C252.447 587.543 244.623 586.549 252.447 579.389C287.59 547.238 290.972 512.567 291.303 504.347C291.635 496.127 308.543 478.427 316.301 474.052C324.059 469.677 356.086 467.091 346.538 469.677C312.92 478.825 300.388 506.27 295.812 517.937C291.237 529.671 300.719 530.599 304.101 520.39C307.483 510.181 347.532 478.957 363.579 475.51C379.692 472.129 437.247 494.536 455.746 504.347C474.313 514.158 482.535 513.562 464.499 494.602C450.177 479.554 414.967 469.014 403.96 466.163C402.634 465.964 401.706 465.765 401.109 465.567C399.915 465.169 401.109 465.434 403.96 466.163C415.299 467.953 451.503 471.135 477.628 483.134C506.737 496.525 511.776 514.026 512.307 523.903C512.771 533.847 465.494 528.61 455.746 523.903C445.999 519.196 433.799 504.745 423.057 501.828C417.752 500.37 402.17 496.724 385.792 494.867C389.372 510.579 394.81 548.696 365.038 548.696L365.104 548.63ZM292.298 470.141C304.034 465.566 364.507 429.172 372.265 416.842C380.089 404.512 413.906 400.601 444.474 396.689C475.042 392.778 501.698 424.002 508.859 433.746C516.02 443.491 532.265 455.225 535.515 459.07C535.515 459.07 540.687 466.892 539.427 468.152C538.167 469.411 508.859 483.134 508.859 483.134C477.761 439.713 381.416 451.248 367.093 450.651C352.771 450.054 280.628 474.715 292.298 470.141ZM279.501 287.573L276.451 289.098C276.053 289.297 275.721 289.363 275.323 289.363C274.395 289.363 273.467 288.833 273.069 287.971C272.472 286.712 272.936 285.187 274.196 284.524L277.246 282.999C359.932 241.567 412.646 217.039 429.688 212.133C443.546 208.09 466.687 209.747 493.475 211.669C519.733 213.526 549.505 215.647 573.376 212.067C614.222 205.968 641.474 212.067 657.123 218.166C674.296 224.928 681.723 233.148 681.988 233.479C682.916 234.54 682.784 236.131 681.789 237.059C680.728 237.987 679.137 237.855 678.209 236.86C678.142 236.794 671.114 229.038 654.935 222.74C639.883 216.906 613.691 211.205 574.172 217.105C549.771 220.751 519.733 218.63 493.144 216.708C467.947 214.918 444.143 213.26 431.08 217.039C414.569 221.812 360.728 246.87 279.501 287.573ZM511.379 499.375C492.348 483.134 490.889 464.771 406.546 460.86L334.337 465.567C334.337 465.567 395.804 458.871 399.716 458.407C403.629 457.943 467.019 456.949 490.425 473.522C513.832 490.094 507.997 493.011 512.373 493.011C516.749 493.011 542.609 473.986 557.728 470.605C572.846 467.224 620.123 471.4 626.489 475.643C632.854 479.886 592.871 472.395 575.763 475.643C558.722 478.891 513.832 494.006 511.379 499.375ZM726.547 286.844C726.547 288.236 725.42 289.363 724.027 289.363C713.816 289.363 691.735 281.475 670.384 273.785C658.051 269.343 646.447 265.233 638.49 263.112C624.367 259.399 594.528 259.996 549.704 264.968C542.543 265.763 530.21 265.167 515.954 264.438C494.47 263.377 467.748 262.051 447.392 264.968C425.643 268.084 393.55 281.143 367.822 291.683C354.097 297.318 342.228 302.158 335.531 303.881C335.332 303.881 335.066 303.947 334.868 303.947C333.74 303.947 332.679 303.218 332.414 302.025C332.083 300.633 332.878 299.241 334.204 298.909C340.57 297.252 352.306 292.413 365.9 286.91C391.892 276.304 424.25 263.045 446.662 259.863C467.549 256.88 494.536 258.206 516.219 259.333C530.276 260.062 542.411 260.659 549.174 259.863C566.082 258.007 617.67 252.24 639.816 258.14C647.972 260.327 659.709 264.504 672.108 268.945C692.067 276.105 714.678 284.192 724.027 284.192C725.42 284.192 726.547 285.319 726.547 286.712V286.844ZM273.931 251.511C274.727 250.98 350.914 200.4 403.363 184.888C435.257 175.408 477.031 175.54 525.369 175.673C557.197 175.739 593.268 175.806 631.13 173.088C649.696 171.762 673.567 177.595 689.348 181.44C696.974 183.297 704.135 185.086 706.058 184.821C707.45 184.622 708.71 185.617 708.909 187.009C709.108 188.401 708.113 189.661 706.721 189.859C703.936 190.257 698.432 188.931 688.088 186.412C672.639 182.634 649.232 176.866 631.462 178.192C593.401 180.91 557.263 180.844 525.303 180.777C477.363 180.645 435.92 180.579 404.756 189.793C353.036 205.106 277.445 255.289 276.716 255.753C276.252 256.018 275.787 256.151 275.323 256.151C274.528 256.151 273.666 255.753 273.201 255.024C272.406 253.831 272.737 252.306 273.931 251.511ZM77.9255 870.344C48.4186 844.357 23.089 759.636 23.089 759.636C23.089 759.636 34.5603 775.878 39.7986 784.098C44.9706 792.318 55.8449 786.683 63.8682 787.147C71.8914 787.612 67.7803 801.864 61.0833 803.588C54.3862 805.311 50.673 811.145 53.0601 820.492C55.4472 829.839 87.54 839.12 85.153 843.429C82.7659 847.738 74.9415 850.39 74.7426 854.235C74.5437 858.146 88.601 856.157 88.601 856.157C88.601 856.157 107.432 896.264 77.9918 870.211L77.9255 870.344ZM86.1475 768.055C79.782 778.264 83.6942 780.717 83.6942 780.717C83.6942 780.717 73.4828 785.623 68.1119 780.717C62.741 775.812 45.1694 777.8 46.1641 773.425C47.1587 769.05 44.7053 748.566 56.3755 754.399C68.1119 760.233 88.0704 760.233 86.1475 754.863C84.2246 749.494 82.7659 734.379 72.4882 727.551C62.2104 720.723 42.716 705.145 43.2465 692.417C43.7106 679.755 52.9938 689.036 63.7357 702.161C74.4775 715.287 85.6835 729.938 85.6835 729.938V715.287C85.6835 715.287 69.1066 699.709 66.6532 693.809C64.1998 687.975 74.4774 687.975 82.7659 696.726C91.0543 705.476 94.9665 704.548 94.9665 724.038C94.9665 743.528 92.5132 757.648 86.2139 767.923L86.1475 768.055ZM126.595 870.94C122.219 874.321 116.848 854.831 112.472 849.462C108.095 844.092 108.56 850.92 104.183 843.098C99.8069 835.275 96.3589 821.619 100.271 821.619H104.183C104.183 821.619 111.013 837.728 113.466 841.639C115.92 845.55 117.843 837.728 120.76 841.639C123.678 845.55 130.972 867.493 126.595 870.874V870.94ZM247.076 624.865C244.623 619.43 234.411 596.559 228.576 559.833C228.112 556.916 208.75 556.585 206.761 559.502C204.772 562.419 198.605 569.247 195.356 558.176C188.991 562.286 178.116 566.728 165.12 575.412C141.183 591.454 112.339 614.193 107.167 620.291L106.769 609.552C106.769 609.552 156.765 564.673 170.955 557.845C190.781 548.299 199.003 537.758 204.109 552.011C205.501 555.922 217.768 549.757 222.344 549.757C226.919 549.757 249.994 513.363 256.492 506.866C262.99 500.37 278.572 490.956 283.479 488.371C288.386 485.785 260.073 509.186 253.243 517.274C246.413 525.428 238.589 531.593 239.252 550.751C239.915 569.91 242.501 590.792 249.331 609.618C256.16 628.445 263.322 652.509 317.959 674.916C327.839 678.959 371.934 679.49 384.93 678.495C397.926 677.501 467.814 652.509 474.777 647.604C481.805 642.698 452.497 678.495 369.613 684.992C354.362 686.185 276.649 689.566 247.01 624.865H247.076ZM361.192 881.613C428.162 809.753 447.79 761.89 463.637 734.048C476.766 710.978 479.219 692.085 479.219 692.085H453.89C453.89 692.085 474.379 671.601 479.219 664.442C484.126 657.282 509.92 622.81 513.036 615.518C516.153 608.226 513.036 608.558 504.284 612.403C522.518 576.008 521.855 530.466 521.855 530.466C521.855 530.466 543.936 521.053 544.267 524.632C544.599 528.212 543.604 551.945 536.774 576.008C529.945 600.072 512.042 630.633 505.212 642.433C498.382 654.233 493.741 681.943 498.051 673.855C507.466 656.288 530.21 655.625 544.201 656.951C558.192 658.276 549.108 673.523 544.201 670.938C539.294 668.353 523.38 669.281 514.959 671.932C506.538 674.584 496.459 702.824 496.459 702.824C483.728 741.605 515.291 761.758 512.638 767.326C516.749 769.646 521.391 768.122 522.12 759.636C523.115 748.831 537.703 742.202 551.694 742.533C565.154 742.865 579.675 748.499 594.329 764.608C608.983 780.717 649.895 764.608 644.325 771.436C638.689 778.264 595.191 820.227 570.459 817.774C528.42 813.598 512.174 780.054 509.19 768.321C491.884 772.099 480.479 786.816 469.538 801.665C453.359 823.674 441.358 847.208 440.628 845.882C439.302 843.628 440.628 830.635 436.053 834.48C431.478 838.325 394.743 896.595 377.238 903.357C359.667 910.185 345.941 898.053 361.324 881.547L361.192 881.613ZM653.807 836.137C651.221 843.959 639.485 852.378 630.401 852.378C621.317 852.378 599.634 834.811 599.634 819.365C599.634 819.365 636.037 790.794 641.408 786.683C654.272 776.939 656.393 828.315 653.741 836.071L653.807 836.137ZM776.543 927.156C771.503 919.532 758.441 902.429 743.522 901.169C728.536 899.843 658.979 901.169 649.895 901.169C640.811 901.169 621.913 919.996 606.994 918.67C592.009 917.411 558.258 908.925 552.357 911.179C546.522 913.499 506.803 940.745 499.642 944.656C492.481 948.568 495.133 958.313 488.635 967.395C482.137 976.477 468.478 988.873 462.642 988.873C456.807 988.873 435.324 1023.34 409.994 1017.44C399.849 1015.12 474.843 990.133 451.635 942.668C445.867 930.868 428.892 931.531 424.98 932.194C421.068 932.923 396.401 958.246 389.837 967.328C383.338 976.41 388.51 950.424 395.672 940.679C402.833 930.934 441.822 866.565 437.313 888.043C434.86 899.512 430.152 925.1 447.723 923.178C465.295 921.255 491.287 879.823 503.024 879.094C514.76 878.365 491.95 895.269 503.024 897.192C514.097 899.114 568.668 875.117 581.731 865.968C594.794 856.82 608.387 854.898 633.782 871.272C641.474 876.243 647.442 847.738 662.361 846.479C677.347 845.219 725.353 856.953 758.573 882.276C764.475 886.784 787.815 882.276 793.053 892.021C798.225 901.766 787.218 938.16 806.713 951.153C826.207 964.146 834.23 969.98 839.999 974.554C845.768 979.128 808.039 974.886 776.675 927.089L776.543 927.156ZM685.967 747.571C686.961 736.368 700.289 726.955 708.909 721.718C711.959 719.861 720.513 720.06 724.027 723.905C725.95 725.96 725.088 729.739 724.491 732.921C723.231 739.417 712.291 750.952 708.909 753.405C705.527 755.858 685.038 758.775 685.967 747.571ZM858.632 846.479C818.648 848.467 806.845 848.467 811.752 861.129C816.394 872.995 783.306 811.278 777.471 784.96C776.874 785.291 776.543 785.424 776.543 785.424C776.543 785.424 740.273 738.556 733.111 726.822C735.034 723.574 733.774 713.166 731.785 701.499C729.862 689.765 696.642 671.601 692.796 661.193C688.884 650.785 692.796 640.378 692.796 640.378C688.221 630.633 673.965 622.147 666.472 607.895C658.979 593.576 654.47 586.748 654.47 586.748C611.569 541.537 623.438 511.374 627.152 522.776C640.612 563.745 667.334 589.134 717.529 611.209C750.882 625.86 831.313 607.961 831.313 607.961C787.086 636.533 714.943 620.954 705.594 617.706C696.244 614.458 668.793 595.763 676.551 605.972C688.884 622.214 741.599 639.781 762.353 642.499C783.174 645.217 796.833 651.515 781.847 652.178C766.862 652.84 726.547 648.929 712.954 646.344C699.294 643.759 703.207 662.585 718.789 669.745C734.371 676.904 755.324 694.869 769.315 715.155C787.285 741.075 790.202 758.045 788.147 768.785C791.926 770.177 795.109 772.431 795.109 772.431C795.109 772.431 875.606 801.135 894.836 782.905C914.065 764.675 898.483 844.49 858.499 846.545L858.632 846.479ZM929.515 680.086C929.515 680.086 936.676 614.458 925.602 603.387C914.529 592.316 923.68 559.833 931.769 555.922C939.859 552.011 956.833 565.004 950.932 618.037C945.097 671.004 929.448 680.153 929.448 680.153L929.515 680.086Z" fill="#FDF0DF" fill-opacity="0.05"/>
<path d="M831.313 1142.01C821.566 1142.01 740.604 1248.27 714.28 1266.83C687.956 1285.4 658.714 1282.41 667.467 1270.75C676.219 1259.08 774.753 1178.14 764.873 1168.32C754.993 1158.58 749.423 1173.23 736.692 1185.89C724.027 1198.55 649.895 1242.44 613.625 1250.26C577.355 1258.08 554.28 1232.69 539.559 1239.52C524.839 1246.35 532.862 1276.58 524.043 1296.07C515.291 1315.56 415.763 1216.12 400.711 1206.38C385.593 1196.63 327.043 1165.41 319.219 1142.01C311.395 1118.61 233.682 1122.38 233.682 1122.38C258.813 1175.95 292.895 1245.16 310.466 1266.5C340.371 1302.9 457.802 1460.21 502.493 1475.85C511.909 1479.17 522.12 1481.35 532.332 1482.75C531.271 1470.88 533.724 1454.57 536.708 1433.62C542.543 1392.66 589.754 1289.97 649.232 1280.22C649.232 1280.22 577.355 1326.43 577.686 1442.77C577.686 1459.74 576.227 1474.26 572.978 1485C594.064 1484.67 609.514 1482.41 609.514 1482.41C609.514 1482.41 661.499 1442.31 710.103 1400.88C707.517 1396.9 705.461 1393.05 705.527 1390.73C705.594 1384.9 770.774 1312.71 786.423 1302.96C802.005 1293.22 841.06 1142.07 831.313 1142.07V1142.01ZM751.346 1311.98C737.687 1323.71 686.298 1375.68 664.881 1386.09C643.397 1396.5 624.566 1406.91 626.489 1400.74C628.412 1394.58 664.881 1321.72 664.881 1321.72C657.72 1382.84 683.513 1360.7 692.199 1354.87C738.482 1323.84 781.251 1246.28 782.577 1250.19C783.903 1254.11 765.005 1300.25 751.346 1311.98Z" fill="#FDF0DF" fill-opacity="0.05"/>
<path d="M72.4219 916.748C72.4219 916.748 72.4219 916.748 72.4219 916.814C72.4219 916.814 72.4219 916.748 72.4219 916.681C72.0241 915.753 71.8251 915.356 71.7588 915.289C71.9577 915.753 72.223 916.217 72.4219 916.681V916.748Z" fill="#FDF0DF" fill-opacity="0.05"/>
<path d="M401.175 465.567C401.772 465.765 402.767 465.964 404.026 466.163C401.175 465.434 399.915 465.235 401.175 465.567Z" fill="#FDF0DF" fill-opacity="0.05"/>
</svg>
