<svg width="180" height="180" viewBox="0 0 180 180" fill="none" xmlns="http://www.w3.org/2000/svg">
<rect width="180" height="180" fill="#FDF0DF"/>
<path d="M127.674 89.1159V87.6682C127.674 87.6682 129.31 86.123 129.55 85.5452C129.789 84.9674 128.78 84.9674 127.965 85.8373C127.151 86.7073 126.763 86.6099 126.763 88.5446C126.763 90.4793 127.002 91.8752 127.629 92.888C128.256 93.9008 127.868 94.141 127.868 94.141C127.868 94.141 128.877 94.6214 129.407 94.141C129.938 93.6605 131.671 93.8488 131.574 93.4138C131.477 92.9789 131.716 90.9533 130.565 91.5311C129.414 92.1089 127.442 92.1089 127.629 91.5765C127.817 91.0442 127.965 89.5509 128.974 88.8692C129.983 88.1875 131.91 86.6489 131.858 85.3894C131.806 84.1298 130.895 85.0518 129.841 86.3567C128.787 87.6617 127.674 89.1094 127.674 89.1094V89.1159Z" fill="#2F3030"/>
<path d="M125.851 98.1921C125.851 98.1921 125.178 99.7827 124.939 100.172C124.7 100.562 124.506 99.7827 124.215 100.172C123.924 100.562 123.206 102.73 123.639 103.068C124.073 103.405 124.603 101.477 125.036 100.945C125.469 100.412 125.424 101.088 125.851 100.315C126.284 99.5425 126.62 98.1921 126.239 98.1921H125.851Z" fill="#2F3030"/>
<path d="M133.85 92.0504C133.85 92.0504 131.347 100.445 128.444 103.016C125.534 105.593 127.396 101.62 127.396 101.62C127.396 101.62 128.787 101.815 128.767 101.425C128.748 101.036 127.978 100.783 127.739 100.354C127.5 99.9256 130.668 99.0037 130.901 98.0817C131.134 97.1598 130.772 96.582 130.112 96.4067C129.453 96.2314 129.045 94.8161 129.834 94.7772C130.623 94.7382 131.696 95.2901 132.207 94.4785C132.718 93.667 133.856 92.0504 133.856 92.0504H133.85Z" fill="#2F3030"/>
<path d="M122.437 103.886C122.437 103.886 123.348 105.925 123.846 107.801C124.066 108.619 123.038 110.248 123.782 110.248C126.219 110.248 128.554 108.625 128.98 107.613C129.407 106.6 127.914 111.508 122.773 111.716C121.344 111.716 120.704 106.84 122.437 103.886Z" fill="#2F3030"/>
<path d="M44.4597 84.1753C44.4597 84.1753 43.7548 77.67 44.8476 76.5793C45.9404 75.4886 45.0416 72.2684 44.2398 71.8789C43.438 71.4893 41.7697 72.7813 42.3452 78.0271C42.9207 83.2729 44.4597 84.1753 44.4597 84.1753Z" fill="#2F3030"/>
<path d="M45.3845 69.2365V69.2755C45.4039 70.4701 47.1498 71.366 47.0851 68.86C47.0205 66.3474 49.0703 58.6216 49.3289 57.7841C49.5876 56.9466 51.4887 53.8562 51.4434 52.824C50.9972 41.8779 60.3539 34.6066 62.0223 34.665C62.0869 32.3472 69.5878 27.0041 71.6441 26.3613C73.6939 25.7186 75.4915 26.7509 76.7719 27.3936C78.0522 28.0363 82.4169 25.7835 86.9692 25.7835C92.8535 25.7835 98.8284 27.6143 102.165 30.2242C104.939 32.3927 105.456 35.522 106.588 34.7299C115.822 28.2895 116.591 34.7948 117.167 37.1126C117.742 39.4303 130.183 44.1957 124.668 45.6759C119.152 47.1562 122.101 53.207 123.517 55.2716C124.926 57.3296 124.351 63.5103 125.314 68.795C126.278 74.0733 124.803 88.6225 124.946 87.5968C125.088 86.5645 129.737 81.7407 130.319 81.1564C130.901 80.5786 132.427 80.4487 132.427 80.4487C132.485 80.3319 135.706 74.1317 136.857 59.9136C137.432 52.8175 136.191 48.3443 134.677 45.3513C133.132 42.2934 131.296 40.7742 130.824 39.5667C130.824 39.5667 130.824 39.5667 130.824 39.5602C130.824 39.5602 130.824 39.5602 130.824 39.5537C130.798 39.4823 130.765 39.4109 130.739 39.3394C125.845 27.1599 116.856 23.1347 107.286 20.6806C105.03 19.7911 102.501 19.038 100.063 18.4342C96.6363 17.5902 93.3967 17.0514 91.3598 16.8891C91.3598 16.8891 91.3598 16.8891 91.3533 16.8891C90.6938 16.8371 90.1635 16.8241 89.795 16.8501C86.6135 17.0708 83.7554 17.3955 81.1883 17.798C60.3863 21.0376 58.912 29.3348 58.8861 29.5101C52.7431 32.5225 49.3677 39.4563 47.5119 46.7147C47.0787 48.4157 46.7295 50.1361 46.445 51.8241C46.445 51.8241 46.445 51.8241 46.445 51.8306C46.0958 54.2912 45.9277 56.9725 46.0117 59.8941L45.4039 62.3222C45.3586 63.5428 45.3328 64.6465 45.3328 65.5943C45.3198 67.594 45.378 68.9119 45.3845 69.2235V69.2365Z" fill="#2F3030"/>
<path d="M110.312 42.131C110.37 42.131 110.435 42.0986 110.467 42.0466C110.526 41.9622 110.5 41.8389 110.416 41.7805C110.338 41.7285 102.831 36.723 97.6707 35.1908C94.5345 34.2559 90.4155 34.2689 85.6563 34.2819C82.5137 34.2883 78.9573 34.2948 75.2197 34.0287C73.3963 33.8988 71.049 34.4766 69.4971 34.8532C68.7405 35.0415 68.0228 35.2167 67.8223 35.1843C67.7189 35.1713 67.6219 35.2427 67.6089 35.3466C67.596 35.4505 67.6671 35.5479 67.7706 35.5608C68.0357 35.5998 68.5724 35.4699 69.5876 35.2232C71.1201 34.8467 73.4286 34.2754 75.1874 34.4052C78.9379 34.6779 82.5008 34.6714 85.6499 34.6584C90.3832 34.6454 94.4764 34.6389 97.5608 35.5543C102.669 37.0735 110.131 42.0466 110.209 42.0986C110.241 42.1181 110.28 42.131 110.312 42.131Z" fill="#2F3030"/>
<path d="M110.312 45.4097C110.384 45.4097 110.448 45.3708 110.481 45.3059C110.526 45.215 110.487 45.0981 110.396 45.0527L110.093 44.9033C101.939 40.8002 96.7462 38.3721 95.0649 37.8852C93.707 37.4891 91.4309 37.6514 88.7926 37.8397C86.1996 38.0215 83.2575 38.2357 80.8973 37.8787C76.8817 37.2814 74.2047 37.8787 72.6722 38.476C70.9909 39.1382 70.2732 39.9432 70.2409 39.9757C70.1697 40.0536 70.1827 40.1769 70.2602 40.2419C70.3378 40.3133 70.4607 40.3003 70.5254 40.2224C70.5254 40.2224 73.3576 37.132 80.8391 38.2487C83.2381 38.6058 86.1996 38.398 88.812 38.2098C91.3015 38.0345 93.6553 37.8657 94.955 38.2422C96.5845 38.7162 101.9 41.1962 109.918 45.2344L110.222 45.3838C110.222 45.3838 110.28 45.4032 110.306 45.4032L110.312 45.4097Z" fill="#2F3030"/>
<path d="M104.447 46.864C104.532 46.864 104.609 46.8055 104.629 46.7211C104.654 46.6173 104.596 46.5134 104.493 46.4874C103.859 46.3186 102.702 45.8447 101.363 45.2928C98.8024 44.2411 95.6145 42.9361 93.4095 42.618C91.3597 42.3258 88.7021 42.4557 86.5617 42.5661C85.1715 42.6375 83.9752 42.6959 83.3027 42.618C81.6344 42.4297 76.5584 41.8649 74.3857 42.4427C73.5839 42.6569 72.4329 43.0725 71.2043 43.5139C69.2321 44.2216 66.9947 45.0331 66.0636 45.0331C65.9601 45.0331 65.8761 45.1175 65.8761 45.2214C65.8761 45.3253 65.9601 45.4097 66.0636 45.4097C67.0594 45.4097 69.2321 44.6306 71.3336 43.871C72.5493 43.436 73.7003 43.0205 74.4827 42.8128C75.8794 42.4427 78.8345 42.5011 83.2639 42.9945C83.9623 43.0725 85.1779 43.014 86.5811 42.9426C88.7021 42.8387 91.3403 42.7024 93.3578 42.9945C95.5111 43.3062 98.6795 44.6046 101.221 45.6434C102.572 46.2017 103.743 46.6757 104.402 46.851C104.415 46.851 104.435 46.851 104.447 46.851V46.864Z" fill="#2F3030"/>
<path d="M66.2124 88.2978C67.0594 88.8107 68.3786 89.7456 68.4756 90.8557C68.5725 91.9659 66.5486 91.6738 66.2124 91.4336C65.8761 91.1933 64.7962 90.0507 64.6734 89.408C64.6152 89.0898 64.5311 88.7133 64.7186 88.512C65.0678 88.1355 65.9149 88.116 66.2124 88.2978Z" fill="#2F3030"/>
<path d="M83.3156 62.2832C83.6389 61.8937 85.2425 60.738 85.9473 59.7707C86.6522 58.8033 89.284 55.713 92.2972 56.1025C95.3105 56.4921 98.6471 56.8751 99.4166 58.0957C100.186 59.3162 106.148 62.9259 107.305 63.3739C108.463 63.8219 101.344 61.3808 99.9339 61.4392C98.5243 61.4976 89.0188 60.3615 85.9538 64.6594C85.9538 64.6594 83.0699 63.309 82.9405 63.1791C82.8112 63.0493 83.3285 62.2767 83.3285 62.2767L83.3156 62.2832Z" fill="#2F3030"/>
<path d="M125.592 77.1895C125.592 77.1895 120.658 72.7423 119.262 72.0671C117.309 71.1257 116.501 70.0805 115.99 71.4893C115.854 71.8788 114.645 71.2621 114.192 71.2621C113.739 71.2621 111.47 67.6588 110.823 67.0096C110.177 66.3604 108.644 65.432 108.159 65.1723C107.674 64.9126 110.468 67.2303 111.14 68.0354C111.813 68.8404 112.582 69.4507 112.517 71.353C112.453 73.2552 112.194 75.3198 111.522 77.183C110.849 79.0463 110.144 81.429 104.758 83.6494C103.788 84.0519 99.4361 84.0973 98.1557 84.0065C96.8754 83.9156 89.9824 81.429 89.2905 80.9486C88.5986 80.4681 91.4825 84.0065 99.6624 84.6492C101.163 84.7661 108.832 85.0972 111.748 78.6957C111.994 78.1569 112.996 75.8976 113.578 72.2554C113.623 71.9697 115.531 71.9308 115.725 72.2229C115.919 72.5151 116.526 73.1903 116.85 72.0931C117.483 72.5021 118.55 72.9371 119.831 73.8005C122.191 75.3912 125.03 77.6375 125.547 78.2478L125.586 77.1895H125.592Z" fill="#2F3030"/>
<path d="M62.9403 56.6674C62.992 56.6804 63.0696 56.6998 63.1666 56.7193C64.4081 57.005 69.0703 57.9529 71.8379 59.6084C72.6332 60.0823 74.1916 61.4912 74.1916 62.7961C74.1916 62.7961 76.1638 63.0883 76.3061 62.7961C76.4484 62.504 77.6058 60.6212 76.5971 58.9332C76.5971 58.9332 74.9611 58.9332 74.8641 58.3554C74.7671 57.7776 72.8919 58.3554 73.6614 57.9204C74.4309 57.4854 74.6249 57.1608 75.7759 56.0701C76.9269 54.9794 73.3251 57.1478 72.2647 56.8102C71.2042 56.4726 69.0445 55.2196 67.79 55.265C66.5355 55.3105 62.5458 55.4598 61.6794 55.7974C60.8129 56.135 60.0434 56.4726 61.4854 56.57L62.9273 56.6674H62.9403Z" fill="#2F3030"/>
<path d="M103.148 62.926C103.148 62.926 97.0888 62.2637 96.7009 62.2183C96.3129 62.1729 90.0665 62.0755 87.758 63.718C85.4495 65.3606 86.025 65.6527 85.5918 65.6527C85.1585 65.6527 82.6108 63.77 81.1171 63.4324C79.6234 63.0948 74.9612 63.5103 74.334 63.9323C73.7067 64.3543 77.6512 63.6077 79.3389 63.9323C81.0201 64.2569 85.4495 65.7501 85.6888 66.2825C87.564 64.6724 87.7063 62.8545 96.0284 62.465L103.148 62.9325V62.926Z" fill="#2F3030"/>
<path d="M56.0668 57.6477C56.2673 57.6088 49.8462 59.3228 48.9474 62.6079C48.0486 65.893 47.6024 73.9369 52.0254 75.6119C51.5016 75.3717 46.251 74.5147 48.359 62.478C49.0444 58.5502 55.7435 57.7127 56.0668 57.6477Z" fill="#2F3030"/>
<path d="M54.1399 77.0273C54.1399 77.0273 62.074 78.7997 65.3589 77.3519C70.3056 75.1705 72.9438 72.6514 74.2694 68.5938C74.638 67.4641 75.8084 70.4506 71.5795 74.9302C71.5795 74.9302 71.1333 75.6119 70.3961 77.0273C69.659 78.4426 68.2493 79.2801 67.7967 80.2474C67.7967 80.2474 68.1847 81.2797 67.7967 82.3055C67.4087 83.3313 64.1432 85.1361 63.9492 86.2983C63.7552 87.4604 63.6259 88.4862 63.8199 88.8108C63.1151 89.9729 59.5392 94.6149 59.5392 94.6149C59.5392 94.6149 56.4031 93.2256 60.2505 87.6422C61.6343 85.6361 63.6971 83.8572 65.236 83.1495C66.775 82.4418 67.163 80.5721 65.8115 80.8317C64.4601 81.0914 60.4898 81.4745 59.0155 81.4096C57.5411 81.3446 58.8861 80.7214 60.9424 80.4552C62.9987 80.189 68.1911 78.4491 69.4068 76.839C70.1698 75.8262 67.4669 77.6765 66.5422 78.0011C65.6175 78.3257 58.5046 79.8709 54.1399 77.0338V77.0273Z" fill="#2F3030"/>
<path d="M77.5155 92.5438C78.9575 90.9532 80.393 90.3884 81.7186 90.3559C83.0959 90.3235 84.5379 90.9792 84.6349 92.0504C84.7125 92.8879 85.1716 93.0438 85.5725 92.8165C85.3074 92.2647 88.4176 90.2651 87.1696 86.4281C87.1696 86.4281 86.1738 83.6299 85.3397 83.3702C84.5055 83.1105 82.9342 83.0131 82.4557 83.2728C81.9772 83.5325 81.0784 82.0198 82.4557 81.89C83.833 81.7601 86.0768 81.8251 87.008 83.565C87.4348 84.3635 86.9757 81.6173 86.3032 80.4487C85.6307 79.2801 83.8654 76.2547 83.1929 73.872C82.5204 71.4893 82.4234 69.1391 82.4557 68.7885C82.4881 68.4314 84.6672 69.3663 84.6672 69.3663C84.6672 69.3663 84.6025 73.872 86.4002 77.4817C85.5337 77.0922 85.2298 77.0662 85.5337 77.7868C85.8376 78.514 88.3853 81.9224 88.8703 82.6301C89.3488 83.3378 91.3727 85.3634 91.3727 85.3634H88.8703C88.8703 85.3634 89.116 87.2267 90.4093 89.5184C91.9676 92.2777 93.901 97.0171 100.51 104.133C102.023 105.762 100.671 106.963 98.9383 106.288C97.2053 105.613 93.5842 99.8477 93.138 99.4646C92.6919 99.0816 92.8147 100.367 92.6919 100.594C92.6143 100.724 91.4374 98.3999 89.8402 96.2185C88.7603 94.7447 87.6352 93.2905 85.9281 92.9139C85.6307 94.076 84.027 97.3936 79.8821 97.8091C77.4379 98.0558 73.1507 93.9007 72.5946 93.2191C72.0385 92.5438 76.08 94.1345 77.5219 92.5438H77.5155Z" fill="#2F3030"/>
<path d="M76.9852 97.9714C76.9852 97.9714 73.3964 95.1408 72.8662 94.7383C71.5988 93.7709 71.3919 98.8609 71.6505 99.6335C71.9092 100.406 73.0602 101.244 73.959 101.244C74.8578 101.244 76.9917 99.5036 76.9917 97.9779L76.9852 97.9714Z" fill="#2F3030"/>
<path d="M57.7026 93.3164C57.7026 93.3164 49.762 96.16 47.8674 94.3486C45.9727 92.5373 47.5117 100.451 51.4497 100.646C55.3877 100.841 56.5581 100.841 56.0731 102.1C55.5881 103.36 59.3386 96.3028 59.5326 94.0825C59.7265 91.8621 57.7026 93.3099 57.7026 93.3099V93.3164Z" fill="#2F3030"/>
<path d="M54.961 68.9833C54.961 68.9833 58.6144 63.6271 59.9142 63.1402C62.436 62.2053 66.0701 61.7379 69.9175 66.276C70.4025 66.8473 68.676 67.7238 68.4755 67.8211C68.2751 67.9185 68.3268 69.1586 69.1933 68.7041C70.0598 68.2496 71.935 66.7564 71.935 67.1914C71.935 67.6264 71.2108 68.834 71.3078 69.8013C71.4048 70.7687 72.7045 70.4765 73.086 68.9833C73.474 67.4836 75.0582 62.2053 71.3078 60.3745C69.148 59.3227 66.9172 57.6542 61.4467 57.1543C59.3257 56.9595 64.4794 57.8295 65.8244 58.8423C67.1693 59.8551 61.2074 60.2576 60.2957 60.368C59.3839 60.4784 56.5905 61.8352 55.4848 63.1856C54.379 64.536 54.476 66.8084 53.4155 67.0031C52.3551 67.1979 50.6738 67.4186 51.1071 66.6331C51.5403 65.8475 53.2733 63.1856 53.9458 63.1856C54.6183 63.1856 52.6461 61.2509 50.4346 64.9256C49.8332 65.9254 49.2319 65.0165 49.1349 65.1658C49.0379 65.3151 48.5076 67.5809 49.1349 67.5809C49.7621 67.5809 51.7343 67.6329 52.3098 68.3535C52.8853 69.0742 51.3463 72.0671 51.1523 72.6514C50.9584 73.2357 53.1698 69.9961 53.9393 69.9961C54.7088 69.9961 55.239 73.0864 55.2843 74.0538C55.3296 75.0211 59.5909 74.0538 61.285 74.0538C62.9792 74.0538 58.6015 73.2812 58.5045 70.8206C58.4528 69.5156 55.6658 70.0935 55.2843 70.0026C54.9028 69.9117 54.9481 68.9898 54.9481 68.9898L54.961 68.9833Z" fill="#2F3030"/>
<path d="M60.8064 63.27C60.4701 63.3869 61.1038 68.3535 63.9296 68.3535C66.7554 68.3535 69.3742 67.1135 69.4647 66.6265C69.5553 66.1396 67.0787 64.1789 65.5526 63.6141C64.0266 63.0493 62.3906 62.7311 60.8064 63.27Z" fill="#2F3030"/>
<path d="M96.5587 62.9258C96.5005 62.9453 96.4035 62.9648 96.2742 62.9843C96.5587 62.9129 96.6751 62.8934 96.5587 62.9258Z" fill="#2F3030"/>
<path d="M89.0124 64.6658C91.5925 63.4777 95.1554 63.1661 96.2741 62.9843C95.1877 63.2635 91.7154 64.3087 90.3057 65.8019C88.5275 67.6782 89.3422 67.7432 91.1722 66.7693C93.0021 65.7955 98.6731 63.5751 100.264 63.9127C101.848 64.2503 105.792 67.3471 106.129 68.3599C106.465 69.3727 107.396 69.2753 106.943 68.1132C106.497 66.9511 105.262 64.2373 101.939 63.3349C101.001 63.0752 104.15 63.3349 104.92 63.7699C105.689 64.2048 107.357 65.9578 107.39 66.7693C107.422 67.5808 107.758 71.0088 111.224 74.1965C111.994 74.9042 111.224 75.008 110.118 74.4822C109.013 73.9563 107.616 71.5411 106.749 71.3009C105.883 71.0607 105.307 70.6257 105.307 70.6257C105.307 70.6257 104.344 68.5612 103.122 67.1199C102.954 70.4894 101.719 71.1581 100.115 71.1581C97.1794 71.1581 97.7225 67.3861 98.0717 65.8279C96.4551 66.0097 94.9162 66.3798 94.3924 66.5226C93.3319 66.8147 92.1292 68.2431 91.1722 68.7105C90.2087 69.178 85.5465 69.6908 85.5918 68.7105C85.637 67.7302 86.1349 65.9967 89.0124 64.6723V64.6658Z" fill="#2F3030"/>
<path d="M93.002 104.775C93.2412 105.911 93.7068 108.443 91.9739 108.255C90.2409 108.067 87.6802 103.964 86.5228 103.886C85.3653 103.808 87.6156 105.483 86.5228 105.678C85.43 105.872 80.0436 103.49 78.7632 102.587C77.4829 101.685 76.1315 101.49 73.6355 103.107C72.8724 103.6 72.2905 100.776 70.8162 100.646C69.3419 100.516 64.6085 101.678 61.3237 104.191C60.7417 104.639 58.4397 104.191 57.9224 105.158C57.4051 106.126 58.4979 109.729 56.5774 111.014C54.6504 112.3 53.8616 112.884 53.299 113.332C52.7364 113.78 56.4545 113.365 59.5454 108.632C60.0369 107.872 61.3301 106.184 62.8044 106.054C64.2787 105.924 71.1395 106.054 72.0383 106.054C72.9371 106.054 74.7929 107.918 76.2737 107.788C77.7545 107.658 81.0846 106.82 81.6601 107.048C82.2356 107.275 86.1542 109.976 86.859 110.365C87.5639 110.755 87.3052 111.716 87.9454 112.618C88.5855 113.52 89.9305 114.741 90.5125 114.741C91.0944 114.741 93.2089 118.156 95.7049 117.572C96.7072 117.338 89.3097 114.864 91.5988 110.17C92.1678 109.002 93.8426 109.067 94.2306 109.132C94.6186 109.197 97.0499 111.716 97.6965 112.611C98.3432 113.507 97.8259 110.936 97.121 109.969C96.4162 109.002 92.5688 102.626 93.0149 104.756L93.002 104.775Z" fill="#2F3030"/>
<path d="M51.4498 128.115C51.4369 128.213 51.4369 128.368 51.4498 128.583C51.8701 129.115 52.4133 129.946 52.4133 130.66C52.4133 131.822 55.7499 143.924 58.3105 147.917C59.3839 149.585 62.6494 152.604 66.0895 155.552C66.3417 155.162 66.5421 154.773 66.5421 154.552C66.5356 153.974 60.1082 146.826 58.5692 145.859C57.0302 144.891 53.1828 129.927 54.1462 129.927C55.1097 129.927 63.0891 140.451 65.6886 142.288C68.288 144.125 71.172 143.833 70.3055 142.677C69.439 141.522 59.7266 133.504 60.6966 132.536C61.673 131.569 62.2226 133.017 63.4706 134.276C64.7186 135.529 72.032 139.879 75.6078 140.652C79.1837 141.424 81.4598 138.912 82.9147 139.587C84.3697 140.262 83.5743 143.255 84.4408 145.19C85.3073 147.125 95.1166 137.269 96.6039 136.302C98.0911 135.335 103.866 132.244 104.641 129.927C105.411 127.609 113.08 127.979 113.08 127.979C113.08 127.979 113.086 127.966 113.093 127.953C113.248 127.628 114.483 125.031 115.595 122.519C115.77 122.129 115.938 121.74 116.1 121.357C116.1 121.35 116.106 121.337 116.113 121.331C116.119 121.318 116.126 121.298 116.132 121.285C116.701 119.954 117.18 118.766 117.367 118.098C117.367 118.098 117.367 118.098 117.367 118.091C117.956 115.923 110.791 115.832 108.773 117.663C106.756 119.5 101.848 128.764 101.156 130.121C100.464 131.472 96.2676 129.927 95.8797 126.934C95.4917 123.941 90.7842 121.526 91.9352 122.493C93.0927 123.46 93.7652 129.927 91.9352 128.771C90.1053 127.609 86.4518 129.063 83.6648 130.608C80.8779 132.153 74.14 131.861 73.7456 128.485C73.3511 125.103 71.45 125.973 68.4691 125.784C65.4881 125.59 59.0412 124.239 59.5327 122.889C60.0241 121.539 65.0031 118.351 66.5356 117.676C68.0681 117 77.9939 117.481 79.7204 117.676C81.4534 117.87 82.5074 113.715 83.5678 113.715C84.6283 113.715 85.0098 112.17 83.5678 111.735C83.5678 111.735 81.1301 110.885 79.8821 112.138C78.6341 113.391 73.086 110.976 71.8962 111.073C70.7129 111.17 65.9343 108.593 63.975 108.658C62.0222 108.723 59.5197 116.513 58.4916 117.676C57.4634 118.838 57.8191 126.174 56.6293 126.271C55.446 126.369 56.3706 117.481 55.155 117.676C53.9393 117.87 51.5015 117.708 50.7644 119.058C50.0272 120.409 51.5985 126.654 51.4369 128.135L51.4498 128.115Z" fill="#2F3030"/>
<path d="M70.5576 147.722C70.5576 147.722 74.1464 154.941 74.3404 155.552C74.5344 156.162 72.6721 155.13 70.5576 154.097C68.4431 153.065 63.3735 147.917 62.0286 146.755C60.6836 145.592 58.8213 141.022 58.9506 140.639C59.0799 140.256 63.3024 147.93 67.8611 151.007C68.7147 151.585 71.2624 153.773 70.5576 147.722Z" fill="#2F3030"/>
<path d="M72.0968 143.599C72.0968 143.599 79.1903 148.176 79.1515 159.694C79.1515 161.375 79.2938 162.81 79.6171 163.875C80.8327 163.894 82.2359 163.849 83.6262 163.654C83.7296 162.479 83.4839 160.862 83.1929 158.785C82.6174 154.727 77.9617 144.554 72.0968 143.593V143.599Z" fill="#2F3030"/>
</svg>
