<svg width="972" height="1486" viewBox="0 0 972 1486" fill="none" xmlns="http://www.w3.org/2000/svg">
<path d="M827.586 958.615C821.22 958.615 816.38 949.069 814.457 935.81C816.778 944.296 819.496 957.09 827.586 958.615Z" fill="#FDF0DF" fill-opacity="0.05"/>
<path d="M179.826 128.576C180.092 126.787 195.011 43.0601 405.935 10.1132C311.977 27.6142 195.143 68.4498 179.826 128.576Z" fill="#FDF0DF" fill-opacity="0.05"/>
<path d="M670.105 40.8725C660.358 38.6849 633.437 26.885 597.432 16.6097C622.098 22.6423 647.759 30.3321 670.702 39.2815C767.71 64.0746 858.883 104.711 908.481 227.682C900.59 208.723 841.113 79.388 670.105 40.8062V40.8725Z" fill="#FDF0DF" fill-opacity="0.05"/>
<path d="M64.5173 302.327C83.2824 229.075 117.563 159.004 179.826 128.643C165.239 137.924 95.8809 190.095 64.5173 302.327Z" fill="#FDF0DF" fill-opacity="0.05"/>
<path d="M509.044 0.964904C503.805 0.699737 498.567 0.567154 493.263 0.567154C497.042 0.301987 502.413 0.43457 509.044 0.964904Z" fill="#FDF0DF" fill-opacity="0.05"/>
<path d="M948.465 288.406C963.782 318.635 976.38 363.779 970.545 435.441C958.875 579.028 926.252 641.674 925.588 642.801C926.517 640.348 1008.74 427.684 948.398 288.406H948.465Z" fill="#FDF0DF" fill-opacity="0.05"/>
<path d="M42.3706 493.114L42.901 529.707C42.8347 526.525 42.238 513.201 42.3706 493.114Z" fill="#FDF0DF" fill-opacity="0.05"/>
<path d="M729.716 1121.82C729.716 1121.82 729.517 1122.29 729.45 1122.42C729.517 1122.29 729.649 1122.02 729.782 1121.76L729.716 1121.82Z" fill="#FDF0DF" fill-opacity="0.05"/>
<path d="M27.3188 740.183C3.91215 696.298 0 616.881 0 594.872C0 542.236 42.901 530.039 42.901 530.039C43.1 542.104 60.8041 551.186 60.141 525.796C59.478 500.406 80.2986 422.447 82.8846 413.962C85.4706 405.477 104.766 374.32 104.368 363.912C99.793 253.404 194.746 179.952 211.654 180.615C212.317 157.214 288.372 103.253 309.193 96.7564C330.013 90.2598 348.181 100.668 361.244 107.164C374.24 113.661 418.468 90.9227 464.618 90.9227C524.295 90.9227 584.9 109.418 618.717 135.802C646.897 157.745 652.069 189.3 663.607 181.278C757.233 116.246 765.058 181.941 770.893 205.342C776.728 228.743 902.911 276.871 846.948 291.787C791.05 306.768 820.955 367.823 835.277 388.639C849.6 409.454 843.765 471.835 853.512 525.133C863.259 578.432 848.34 725.334 849.799 714.926C851.258 704.519 898.402 655.794 904.304 649.894C910.205 644.061 925.721 642.735 925.721 642.735L937.922 651.817C947.271 655.529 947.603 681.25 948.133 700.607C948.796 724.671 948.133 743.498 947.138 753.243C940.309 820.993 901.055 882.578 897.872 896.565C896.281 903.659 894.026 910.023 891.307 915.658C891.307 915.658 891.042 916.122 890.644 917.05C890.644 917.05 890.644 917.116 890.644 917.182C890.379 917.713 890.114 918.309 889.782 918.84C883.748 929.048 861.27 943.699 837.93 943.699C830.437 943.699 840.781 927.259 838.593 918.972C833.553 900.013 824.27 879.462 824.27 879.462C814.457 896.102 812.136 918.84 814.589 935.678C813.263 930.838 812.07 927.391 810.147 928.253C806.301 929.977 788.729 980.623 772.948 1022.78C778.916 1000.91 706.243 999.981 685.82 1018.48C665.331 1037.04 615.6 1130.58 608.572 1144.23C601.543 1157.89 558.973 1142.31 555.128 1112.08C551.215 1081.85 503.408 1057.46 515.144 1067.2C526.881 1076.95 533.71 1142.31 515.144 1130.58C496.644 1118.84 459.578 1133.49 431.265 1149.07C402.952 1164.65 334.721 1161.73 330.676 1127.59C326.698 1093.45 307.402 1102.27 277.166 1100.28C246.93 1098.36 181.55 1084.7 186.523 1071.05C191.563 1057.39 242.023 1025.24 257.539 1018.41C273.055 1011.58 373.71 1016.42 391.281 1018.41C408.853 1020.4 419.595 978.436 430.27 978.436C440.946 978.436 444.924 962.857 430.27 958.416C430.27 958.416 405.538 949.798 392.873 962.459C380.208 975.121 323.979 950.726 311.911 951.72C299.91 952.715 251.439 926.662 231.613 927.325C211.787 927.988 186.391 1006.61 176.047 1018.34C165.637 1030.08 169.217 1104.12 157.215 1105.12C145.214 1106.11 154.629 1016.35 142.23 1018.34C129.897 1020.33 105.164 1018.67 97.6712 1032.33C90.1784 1045.99 106.159 1109.03 104.501 1124.01C104.368 1125.01 104.368 1126.6 104.501 1128.72C101.849 1125.4 99.7267 1123.22 99.7267 1123.22C94.4221 1119.5 89.6479 1114.8 85.4043 1109.69C81.0943 1104.59 77.2484 1099.15 73.8004 1093.98C67.4349 1084.5 60.2737 1041.88 50.858 1005.75C41.4423 969.619 29.3743 945.754 27.4514 928.717C24.8654 905.913 30.1037 745.023 27.4514 740.051L27.3188 740.183ZM151.181 412.703C147.932 413.365 79.967 421.785 73.0047 461.427C52.1178 580.421 102.644 591.226 109.805 593.878C65.3793 576.642 69.8883 495.766 78.9724 462.753C88.0566 429.607 153.171 412.305 151.181 412.703ZM145.346 468.653C134.14 482.309 135.135 505.246 124.393 507.168C113.651 509.091 96.6102 511.411 100.987 503.456C105.363 495.501 122.934 468.653 129.764 468.653C136.594 468.653 116.569 449.163 94.1569 486.22C88.0566 496.296 81.9563 487.148 80.9616 488.607C79.967 490.131 74.5961 513.002 80.9616 513.002C87.3272 513.002 107.286 513.532 113.121 520.824C118.956 528.116 103.374 558.345 101.384 564.179C99.4615 570.013 121.873 537.331 129.698 537.331C137.522 537.331 142.893 568.554 143.357 578.299C143.821 588.044 186.988 578.299 204.228 578.299C221.468 578.299 177.041 570.477 176.047 545.617C175.516 532.425 147.269 538.325 143.357 537.331C139.445 536.337 139.975 527.122 139.975 527.122C139.975 527.122 176.975 473.028 190.237 468.122C215.831 458.643 252.632 454.002 291.687 499.81C296.594 505.577 279.089 514.46 277.1 515.388C275.11 516.383 275.575 528.912 284.393 524.338C293.146 519.764 312.176 504.649 312.176 509.091C312.176 513.532 304.883 525.664 305.811 535.408C306.806 545.153 319.934 542.237 323.847 527.122C327.759 512.008 343.871 458.643 305.811 440.147C283.929 429.474 261.252 412.703 205.819 407.664C184.335 405.742 236.519 414.492 250.179 424.701C263.838 434.91 203.366 439.02 194.082 440.147C184.799 441.274 156.552 454.93 145.346 468.586V468.653ZM230.95 520.824C259.528 520.824 286.117 508.295 287.112 503.39C288.04 498.484 262.91 478.663 247.46 472.962C232.276 467.327 215.367 464.079 199.321 469.515C195.873 470.708 202.371 520.824 230.95 520.824ZM208.272 394.008C199.52 397.389 191.695 400.836 206.349 401.831L221.003 402.825C221.534 402.958 222.33 403.157 223.324 403.355C235.923 406.206 283.2 415.818 311.248 432.524C319.271 437.297 335.119 451.549 335.119 464.675C335.119 464.675 355.144 467.592 356.603 464.675C358.061 461.758 369.798 442.733 359.52 425.696C359.52 425.696 342.943 425.696 341.949 419.862C340.954 414.028 321.924 419.862 329.748 415.487C337.572 411.112 339.495 407.797 351.232 396.793C362.968 385.722 326.366 407.664 315.624 404.283C304.883 400.903 282.935 388.175 270.27 388.705C257.605 389.169 217.091 390.627 208.339 394.075L208.272 394.008ZM597.896 549.065C614.208 549.065 626.674 542.369 628.398 508.295C640.797 522.813 650.544 543.695 650.544 543.695C650.544 543.695 656.379 548.07 665.198 550.523C673.951 552.976 688.141 577.371 699.347 582.674C710.553 587.978 718.377 586.983 710.553 579.824C675.41 547.672 672.028 513.002 671.697 504.782C671.365 496.562 654.456 478.862 646.698 474.486C638.94 470.111 606.914 467.526 616.462 470.111C650.08 479.259 662.612 506.704 667.188 518.371C671.763 530.105 662.281 531.033 658.899 520.824C655.517 510.615 615.468 479.392 599.421 475.945C583.308 472.564 525.753 494.971 507.254 504.782C488.687 514.593 480.465 513.996 498.501 495.037C512.823 479.989 548.033 469.448 559.04 466.598C560.366 466.399 561.294 466.2 561.891 466.001C563.085 465.603 561.891 465.868 559.04 466.598C547.701 468.388 511.497 471.57 485.372 483.568C456.263 496.959 451.224 514.46 450.693 524.338C450.229 534.281 497.506 529.044 507.254 524.338C517.001 519.631 529.201 505.179 539.943 502.263C545.248 500.804 560.83 497.158 577.208 495.302C573.628 511.013 568.19 549.131 597.962 549.131L597.896 549.065ZM670.702 470.575C658.965 466.001 598.493 429.607 590.735 417.277C582.911 404.946 549.094 401.035 518.526 397.124C487.958 393.213 461.302 424.436 454.141 434.181C446.98 443.926 430.734 455.66 427.485 459.504C427.485 459.504 422.313 467.327 423.573 468.586C424.833 469.846 454.141 483.568 454.141 483.568C485.239 440.147 581.584 451.682 595.907 451.085C610.229 450.489 682.372 475.149 670.702 470.575ZM683.499 288.008L686.549 289.533C686.947 289.732 687.279 289.798 687.677 289.798C688.605 289.798 689.533 289.267 689.931 288.406C690.528 287.146 690.064 285.621 688.804 284.958L685.754 283.434C603.068 242.001 550.354 217.474 533.312 212.568C519.454 208.524 496.313 210.181 469.524 212.104C443.267 213.96 413.495 216.081 389.624 212.502C348.778 206.403 321.526 212.502 305.877 218.601C288.704 225.362 281.277 233.582 281.012 233.914C280.084 234.975 280.216 236.566 281.211 237.494C282.272 238.422 283.863 238.289 284.791 237.295C284.858 237.228 291.886 229.472 308.065 223.175C323.117 217.341 349.309 211.64 388.828 217.54C413.229 221.186 443.267 219.065 469.856 217.142C495.053 215.352 518.857 213.695 531.92 217.474C548.431 222.247 602.272 247.305 683.499 288.008ZM451.621 499.81C470.652 483.568 472.11 465.206 556.454 461.294L628.663 466.001C628.663 466.001 567.196 459.306 563.283 458.842C559.371 458.378 495.981 457.383 472.575 473.956C449.168 490.529 455.003 493.446 450.627 493.446C446.25 493.446 420.39 474.42 405.272 471.039C390.154 467.658 342.877 471.835 336.511 476.077C330.146 480.32 370.129 472.829 387.237 476.077C404.278 479.326 449.168 494.44 451.621 499.81ZM236.453 287.279C236.453 288.671 237.58 289.798 238.973 289.798C249.184 289.798 271.265 281.909 292.616 274.219C304.949 269.778 316.553 265.668 324.51 263.546C338.633 259.834 368.472 260.431 413.296 265.402C420.457 266.198 432.79 265.601 447.046 264.872C468.53 263.811 495.252 262.486 515.608 265.402C537.357 268.518 569.45 281.578 595.177 292.118C608.903 297.753 620.772 302.592 627.469 304.316C627.668 304.316 627.933 304.382 628.132 304.382C629.26 304.382 630.32 303.653 630.586 302.46C630.917 301.067 630.122 299.675 628.795 299.344C622.43 297.686 610.693 292.847 597.1 287.345C571.108 276.738 538.75 263.48 516.338 260.298C495.451 257.315 468.464 258.641 446.781 259.768C432.724 260.497 420.589 261.093 413.826 260.298C396.918 258.442 345.33 252.674 323.184 258.574C315.028 260.762 303.291 264.938 290.892 269.38C270.933 276.539 248.322 284.627 238.973 284.627C237.58 284.627 236.453 285.754 236.453 287.146V287.279ZM689.069 251.945C688.273 251.415 612.086 200.834 559.637 185.322C527.743 175.842 485.969 175.975 437.63 176.108C405.803 176.174 369.731 176.24 331.87 173.522C313.304 172.196 289.433 178.03 273.652 181.875C266.026 183.731 258.865 185.521 256.942 185.256C255.55 185.057 254.29 186.051 254.091 187.443C253.892 188.836 254.887 190.095 256.279 190.294C259.064 190.692 264.568 189.366 274.911 186.847C290.361 183.068 313.768 177.301 331.538 178.627C369.599 181.345 405.737 181.278 437.697 181.212C485.637 181.079 527.08 181.013 558.244 190.228C609.964 205.541 685.555 255.724 686.284 256.188C686.748 256.453 687.212 256.586 687.677 256.586C688.472 256.586 689.334 256.188 689.798 255.459C690.594 254.265 690.263 252.741 689.069 251.945ZM885.074 870.778C914.581 844.792 939.911 760.071 939.911 760.071C939.911 760.071 928.44 776.312 923.201 784.533C918.029 792.753 907.155 787.118 899.132 787.582C891.109 788.046 895.22 802.299 901.917 804.022C908.614 805.746 912.327 811.58 909.94 820.927C907.553 830.274 875.46 839.555 877.847 843.864C880.234 848.173 888.058 850.824 888.257 854.669C888.456 858.58 874.399 856.592 874.399 856.592C874.399 856.592 855.568 896.698 885.008 870.646L885.074 870.778ZM876.852 768.49C883.218 778.699 879.306 781.152 879.306 781.152C879.306 781.152 889.517 786.057 894.888 781.152C900.259 776.246 917.831 778.235 916.836 773.86C915.841 769.484 918.295 749 906.624 754.834C894.888 760.668 874.93 760.668 876.852 755.298C878.775 749.928 880.234 734.814 890.512 727.986C900.789 721.158 920.284 705.579 919.753 692.851C919.289 680.19 910.006 689.47 899.264 702.596C888.522 715.722 877.316 730.372 877.316 730.372V715.722C877.316 715.722 893.893 700.143 896.347 694.243C898.8 688.41 888.523 688.41 880.234 697.16C871.946 705.911 868.033 704.983 868.033 724.472C868.033 743.962 870.487 758.082 876.786 768.357L876.852 768.49ZM836.405 871.375C840.781 874.756 846.152 855.266 850.528 849.896C854.905 844.527 854.44 851.355 858.817 843.532C863.193 835.71 866.641 822.054 862.729 822.054H858.817C858.817 822.054 851.987 838.163 849.534 842.074C847.08 845.985 845.157 838.163 842.24 842.074C839.322 845.985 832.028 867.928 836.405 871.308V871.375ZM715.924 625.3C718.377 619.864 728.588 596.993 734.424 560.268C734.888 557.351 754.25 557.02 756.239 559.936C758.228 562.853 764.395 569.681 767.644 558.611C774.009 562.721 784.884 567.162 797.88 575.846C821.817 591.889 850.661 614.627 855.833 620.726L856.231 609.987C856.231 609.987 806.235 565.107 792.045 558.279C772.219 548.733 763.997 538.193 758.891 552.445C757.499 556.357 745.232 550.192 740.656 550.192C736.081 550.192 713.006 513.797 706.508 507.301C700.01 500.804 684.428 491.391 679.521 488.805C674.614 486.22 702.927 509.621 709.757 517.709C716.587 525.862 724.411 532.028 723.748 551.186C723.085 570.344 720.499 591.226 713.669 610.053C706.839 628.88 699.678 652.944 645.041 675.35C635.161 679.394 591.066 679.924 578.07 678.93C565.074 677.936 495.186 652.944 488.223 648.038C481.195 643.133 510.503 678.93 593.387 685.427C608.638 686.62 686.351 690.001 715.99 625.3H715.924ZM601.808 882.048C534.838 810.188 515.21 762.325 499.363 734.482C486.234 711.413 483.781 692.52 483.781 692.52H509.11C509.11 692.52 488.621 672.036 483.781 664.876C478.874 657.717 453.08 623.245 449.964 615.953C446.847 608.661 449.964 608.992 458.716 612.837C440.482 576.443 441.145 530.901 441.145 530.901C441.145 530.901 419.064 521.487 418.733 525.067C418.401 528.647 419.396 552.379 426.226 576.443C433.055 600.507 450.958 631.067 457.788 642.867C464.618 654.667 469.259 682.377 464.949 674.29C455.534 656.722 432.79 656.059 418.799 657.385C404.808 658.711 413.892 673.958 418.799 671.373C423.706 668.787 439.62 669.715 448.041 672.367C456.462 675.019 466.541 703.259 466.541 703.259C479.272 742.04 447.709 762.192 450.362 767.761C446.25 770.081 441.609 768.556 440.88 760.071C439.885 749.265 425.297 742.636 411.306 742.968C397.846 743.299 383.325 748.934 368.671 765.043C354.017 781.152 313.105 765.043 318.675 771.871C324.311 778.699 367.809 820.662 392.541 818.209C434.58 814.032 450.826 780.489 453.81 768.755C471.116 772.534 482.521 787.251 493.462 802.1C509.641 824.109 521.642 847.642 522.372 846.316C523.698 844.063 522.372 831.069 526.947 834.914C531.522 838.759 568.257 897.03 585.762 903.791C603.333 910.619 617.059 898.488 601.676 881.981L601.808 882.048ZM309.193 836.572C311.779 844.394 323.515 852.813 332.599 852.813C341.683 852.813 363.366 835.246 363.366 819.8C363.366 819.8 326.963 791.228 321.592 787.118C308.728 777.373 306.607 828.749 309.259 836.505L309.193 836.572ZM186.457 927.59C191.497 919.967 204.559 902.863 219.478 901.604C234.464 900.278 304.021 901.604 313.105 901.604C322.189 901.604 341.087 920.431 356.006 919.105C370.991 917.845 404.742 909.36 410.643 911.614C416.478 913.934 456.197 941.18 463.358 945.091C470.519 949.002 467.867 958.747 474.365 967.829C480.863 976.911 494.522 989.308 500.358 989.308C506.193 989.308 527.676 1023.78 553.006 1017.88C563.151 1015.56 488.157 990.567 511.365 943.102C517.133 931.302 534.108 931.965 538.02 932.628C541.932 933.357 566.599 958.681 573.163 967.763C579.661 976.845 574.49 950.858 567.328 941.114C560.167 931.369 521.178 867 525.687 888.478C528.14 899.946 532.848 925.535 515.277 923.613C497.705 921.69 471.713 880.258 459.976 879.529C448.24 878.799 471.05 895.704 459.976 897.626C448.903 899.549 394.332 875.551 381.269 866.403C368.206 857.255 354.613 855.332 329.217 871.706C321.526 876.678 315.558 848.173 300.639 846.913C285.653 845.654 237.647 857.387 204.426 882.711C198.525 887.218 175.185 882.711 169.947 892.455C164.775 902.2 175.782 938.594 156.287 951.588C136.793 964.581 128.769 970.414 123.001 974.989C117.232 979.563 154.961 975.32 186.324 927.524L186.457 927.59ZM277.033 748.006C276.039 736.803 262.711 727.389 254.091 722.152C251.041 720.296 242.487 720.495 238.973 724.34C237.05 726.395 237.912 730.173 238.509 733.355C239.768 739.852 250.709 751.387 254.091 753.84C257.473 756.292 277.962 759.209 277.033 748.006ZM104.368 846.913C144.352 848.902 156.155 848.902 151.248 861.564C146.606 873.43 179.694 811.712 185.529 785.394C186.126 785.726 186.457 785.858 186.457 785.858C186.457 785.858 222.727 738.99 229.889 727.257C227.966 724.008 229.226 713.601 231.215 701.933C233.138 690.2 266.358 672.036 270.204 661.628C274.116 651.22 270.204 640.812 270.204 640.812C274.779 631.067 289.035 622.582 296.528 608.329C304.021 594.01 308.529 587.182 308.529 587.182C351.431 541.971 339.561 511.809 335.848 523.211C322.388 564.179 295.666 589.569 245.471 611.644C212.118 626.294 131.687 608.396 131.687 608.396C175.914 636.967 248.057 621.389 257.406 618.141C266.756 614.892 294.207 596.198 286.449 606.407C274.116 622.648 221.401 640.216 200.647 642.934C179.826 645.652 166.167 651.949 181.152 652.612C196.138 653.275 236.453 649.364 250.046 646.779C263.706 644.193 259.793 663.02 244.211 670.179C228.629 677.339 207.676 695.304 193.685 715.589C175.715 741.509 172.798 758.48 174.853 769.219C171.074 770.611 167.891 772.865 167.891 772.865C167.891 772.865 87.3935 801.57 68.1643 783.339C48.935 765.109 64.5173 844.924 104.501 846.979L104.368 846.913ZM33.4854 680.521C33.4854 680.521 26.3241 614.892 37.3975 603.821C48.4709 592.751 39.3204 560.268 31.2309 556.357C23.1414 552.445 6.16661 565.439 12.068 618.472C17.9031 671.439 33.5517 680.587 33.5517 680.587L33.4854 680.521Z" fill="#FDF0DF" fill-opacity="0.05"/>
<path d="M131.687 1142.44C141.434 1142.44 222.396 1248.71 248.72 1267.27C275.044 1285.83 304.286 1282.85 295.533 1271.18C286.781 1259.51 188.247 1178.57 198.127 1168.76C208.007 1159.01 213.577 1173.66 226.308 1186.33C238.973 1198.99 313.105 1242.87 349.375 1250.7C385.645 1258.52 408.72 1233.13 423.441 1239.96C438.161 1246.78 430.138 1277.01 438.957 1296.5C447.709 1315.99 547.237 1216.56 562.289 1206.81C577.407 1197.07 635.957 1165.84 643.781 1142.44C651.605 1119.04 729.318 1122.82 729.318 1122.82C704.187 1176.38 670.105 1245.59 652.534 1266.94C622.629 1303.33 505.198 1460.64 460.507 1476.29C451.091 1479.6 440.88 1481.79 430.668 1483.18C431.729 1471.31 429.276 1455.01 426.292 1434.06C420.457 1393.09 373.246 1290.4 313.768 1280.66C313.768 1280.66 385.645 1326.86 385.314 1443.21C385.314 1460.18 386.773 1474.7 390.022 1485.43C368.936 1485.1 353.486 1482.85 353.486 1482.85C353.486 1482.85 301.501 1442.74 252.897 1401.31C255.483 1397.33 257.539 1393.49 257.473 1391.17C257.406 1385.33 192.226 1313.14 176.577 1303.4C160.995 1293.65 121.94 1142.51 131.687 1142.51V1142.44ZM211.654 1312.41C225.313 1324.15 276.702 1376.12 298.119 1386.53C319.603 1396.94 338.434 1407.34 336.511 1401.18C334.588 1395.01 298.119 1322.16 298.119 1322.16C305.28 1383.28 279.487 1361.14 270.8 1355.3C224.518 1324.28 181.749 1246.72 180.423 1250.63C179.097 1254.54 197.995 1300.68 211.654 1312.41Z" fill="#FDF0DF" fill-opacity="0.05"/>
<path d="M890.578 917.182C890.578 917.182 890.578 917.182 890.578 917.249C890.578 917.249 890.578 917.182 890.578 917.116C890.976 916.188 891.175 915.79 891.241 915.724C891.042 916.188 890.777 916.652 890.578 917.116V917.182Z" fill="#FDF0DF" fill-opacity="0.05"/>
<path d="M561.825 466.001C561.228 466.2 560.233 466.399 558.974 466.598C561.825 465.868 563.085 465.67 561.825 466.001Z" fill="#FDF0DF" fill-opacity="0.05"/>
</svg>
