<svg width="355" height="184" viewBox="0 0 355 184" fill="none" xmlns="http://www.w3.org/2000/svg">
<g clip-path="url(#clip0_140_669)">
<path d="M208.525 129.469C205.301 132.257 200.311 135.723 193.547 139.867C186.002 144.884 177.472 147.932 167.948 149.019C158.424 150.106 150.693 149.707 144.765 147.811C138.837 145.916 135.399 142.58 134.47 137.804C133.531 133.028 134.609 128.837 137.703 125.214C138.967 121.599 137.768 121.069 134.107 123.643C131.71 125.474 129.889 128.159 128.644 131.69C127.399 135.221 127.306 138.817 128.347 142.478C129.387 146.139 131.71 149.326 135.315 152.029C138.911 154.733 144.347 156.415 151.632 157.066C158.916 157.716 165.997 157.177 172.882 155.43C179.767 153.683 185.333 151.63 189.56 149.251C193.788 146.873 197.263 144.735 199.995 142.84C202.718 140.944 204.622 139.625 205.719 138.882C206.806 138.138 208.766 136.466 211.6 133.846C212.994 128.828 211.972 127.369 208.525 129.46V129.469Z" fill="white"/>
<path d="M163.051 173.242C162.763 172.954 162.354 172.675 161.806 172.387C161.258 172.099 160.654 171.96 159.976 171.96C159.297 171.96 158.656 172.071 158.043 172.285C157.43 172.499 156.9 172.833 156.445 173.27C155.989 173.707 155.608 174.255 155.302 174.905C154.995 175.556 154.791 176.216 154.679 176.866C154.568 177.516 154.568 178.139 154.679 178.734C154.791 179.319 155.042 179.932 155.432 180.564C155.822 181.196 156.259 181.679 156.742 182.004C157.225 182.33 157.866 182.645 158.675 182.952C159.483 183.259 160.245 183.379 160.961 183.314C161.676 183.249 162.206 183.11 162.531 182.887C162.856 182.664 163.116 182.367 163.311 181.967C163.506 181.577 163.627 181.28 163.674 181.084C163.72 180.889 163.627 180.685 163.414 180.462C163.191 180.239 163.051 179.895 162.986 179.412C162.921 178.929 162.903 178.483 162.921 178.074C162.94 177.656 163.051 177.247 163.246 176.829C163.441 176.411 163.599 176.002 163.702 175.584C163.813 175.166 163.804 174.747 163.664 174.311C163.534 173.874 163.33 173.512 163.042 173.233L163.051 173.242Z" fill="white"/>
<path d="M232.46 151.992C240.442 151.527 245.785 146.705 248.479 137.506C249.436 133.455 248.916 130.509 246.909 128.679C243.425 127.629 241.743 129.18 241.873 133.325C242.05 142.31 238.76 146.602 231.996 146.203V146.268C230.602 146.064 229.627 145.85 229.115 145.618C228.549 145.357 228.028 144.93 227.545 144.345C227.062 143.759 226.765 143.081 226.625 142.319C226.495 141.557 226.449 140.674 226.495 139.671C226.542 138.667 226.82 136.428 227.35 132.934C227.87 129.45 228.27 126.709 228.53 124.73C228.79 122.751 229.041 120.948 229.283 119.331C229.524 117.714 229.812 115.15 230.165 111.619C230.082 109.482 229.366 108.506 228.038 108.674C226.709 108.85 225.696 109.724 224.999 111.285C223.345 114.509 222.425 116.943 222.249 118.579C222.072 120.214 221.859 122.212 221.598 124.562C221.338 126.913 221.041 129.162 220.716 131.299C220.391 133.436 220.102 135.536 219.861 137.608C219.619 139.68 219.526 141.446 219.564 142.904C219.61 144.363 219.861 145.664 220.316 146.798C220.771 147.931 221.394 148.86 222.184 149.576C222.964 150.291 223.996 150.905 225.259 151.406C226.523 151.908 228.92 152.159 232.451 152.159V151.992H232.46Z" fill="white"/>
<path d="M245.543 169.163C244.93 168.903 244.214 168.717 243.388 168.606C242.561 168.494 241.603 168.438 240.507 168.438C235.796 168.438 231.633 169.637 228.019 172.034C226.365 173.122 225.538 174.218 225.538 175.305C225.538 176.829 226.365 177.832 228.019 178.316C228.242 178.316 228.53 178.297 228.902 178.251C229.273 178.204 229.608 178.12 229.914 177.99C231.875 176.42 233.575 175.417 235.016 174.98C236.539 174.497 238.11 174.227 239.727 174.162C241.343 174.097 242.867 174.041 244.307 173.995C247.095 173.382 248.489 172.508 248.489 171.384C248.489 170.557 247.504 169.814 245.543 169.163Z" fill="white"/>
<path d="M278.371 139.997C278.111 138.213 277.414 137.219 276.28 137.024C275.147 136.829 273.901 137.358 272.554 138.622C270.724 140.369 268.828 143.156 266.868 146.994C264.907 150.831 262.621 153.74 260.001 155.728C257.39 157.707 254.203 160.272 250.449 163.412C245.608 167.9 246.435 169.628 252.93 168.578C262.343 164.128 268.252 159.835 270.649 155.7C273.047 151.556 274.886 148.369 276.178 146.12C277.46 143.872 278.194 141.837 278.371 140.006V139.997Z" fill="white"/>
<path d="M301.266 117.25C301.656 117.882 302.093 118.365 302.576 118.69C303.059 119.016 303.7 119.331 304.509 119.638C305.317 119.945 306.079 120.066 306.795 120C307.51 119.935 308.04 119.796 308.365 119.573C308.69 119.359 308.95 119.053 309.145 118.653C309.34 118.263 309.461 117.966 309.508 117.77C309.554 117.575 309.461 117.371 309.248 117.148C309.025 116.934 308.885 116.581 308.82 116.098C308.755 115.615 308.737 115.169 308.755 114.76C308.774 114.342 308.885 113.933 309.08 113.515C309.275 113.097 309.433 112.688 309.536 112.27C309.647 111.852 309.638 111.434 309.498 110.997C309.368 110.56 309.164 110.198 308.876 109.919C308.588 109.64 308.179 109.352 307.631 109.064C307.083 108.785 306.479 108.637 305.8 108.637C305.122 108.637 304.481 108.748 303.868 108.962C303.254 109.185 302.725 109.51 302.269 109.947C301.814 110.384 301.433 110.932 301.127 111.582C300.82 112.233 300.616 112.892 300.504 113.543C300.393 114.193 300.393 114.816 300.504 115.41C300.616 116.005 300.866 116.609 301.257 117.241L301.266 117.25Z" fill="white"/>
<path d="M299.621 137.024C298.487 136.829 297.242 137.358 295.895 138.622C294.065 140.369 292.169 143.156 290.208 146.994C288.248 150.831 285.962 153.74 283.342 155.728C280.731 157.707 277.544 160.272 273.79 163.412C268.949 167.9 269.776 169.628 276.271 168.578C285.683 164.128 291.593 159.835 293.99 155.7C296.387 151.556 298.227 148.369 299.519 146.12C300.801 143.872 301.535 141.837 301.712 140.006C301.451 138.222 300.755 137.228 299.621 137.033V137.024Z" fill="white"/>
<path d="M250.542 63.9712C249.669 63.9712 245.794 66.7216 238.899 72.213C229.087 80.6684 220.483 88.7987 213.068 96.6038C206.49 102.188 200.534 107.02 195.219 111.117C185.76 117.566 177.537 121.664 170.568 123.41L165.987 124.46L160.626 124.395C156.045 124.005 151.511 122.258 147.023 119.164C144.319 116.414 142.442 114.304 141.401 112.818L140.481 113.673V114.258C141.132 118.179 143.669 121.775 148.063 125.046C151.158 127.62 155.432 129.534 160.877 130.797L162.577 130.927C170.206 132.191 178.624 130.426 187.823 125.631C194.364 121.71 199.372 118.374 202.866 115.624C208.311 111.09 214.267 105.31 220.716 98.2948C227.257 91.7535 230.5 88.5107 230.463 88.5478C237.915 81.4397 243.648 76.2549 247.662 72.9842C251.545 69.537 253.478 67.1211 253.478 65.7273V64.8075L252.623 63.9619H250.533L250.542 63.9712Z" fill="white"/>
<path d="M270.557 47.7574V45.7318C270.557 42.5912 268.986 40.8258 265.846 40.4355H265.065L264.015 41.2161C263.532 49.9317 263.123 55.9527 262.77 59.2606C262.12 65.8391 261.088 71.1447 259.695 75.1495C258.561 79.2471 256.619 83.3262 253.878 87.3774V88.0928L254.008 88.4831L255.318 89.1985L257.864 88.2787C261.311 86.0951 264.21 82.3784 266.561 77.1286C268.912 71.8788 270.241 62.076 270.547 47.7296L270.557 47.7574Z" fill="white"/>
<path d="M294.027 67.771C292.587 66.9905 291.193 66.6374 289.846 66.721C288.489 66.8046 287.467 67.1763 286.771 67.836C286.074 68.4864 285.302 69.555 284.448 71.0417C283.593 72.5283 282.691 74.5168 281.734 77.0255C280.777 79.5343 282.673 81.6807 287.421 83.4647C285.367 88.6123 283.119 91.9109 280.657 93.3697C278.194 94.8285 274.496 97.2815 269.572 100.729C264.861 104.52 265.316 106.285 270.947 106.025C279.096 102.578 284.475 99.5394 287.068 96.9005C289.66 94.2617 291.537 91.7436 292.689 89.3464C293.842 86.9491 294.919 84.5797 295.923 82.2475C296.926 79.9153 297.391 77.9454 297.326 76.3287C297.261 74.7212 297.056 73.0858 296.703 71.4226C296.35 69.7687 295.458 68.5422 294.018 67.7617L294.027 67.771Z" fill="white"/>
<path d="M351.051 0.480643C349.917 0.610727 348.997 1.06602 348.3 1.85582C347.687 2.5527 347.083 3.2217 346.47 3.85354C345.856 4.48538 345.206 5.04288 344.509 5.51676C341.982 7.6074 339.259 8.87107 336.332 9.30779C334.892 9.53079 333.48 9.64229 332.077 9.67016C330.683 9.68875 329.326 9.66087 328.026 9.56795C326.539 9.43787 325.247 9.36354 324.132 9.33566C323.017 9.31708 322.097 9.32637 321.354 9.37283C315.9 9.89316 311.979 11.2683 309.582 13.4891C308.318 14.7063 306.729 16.8527 304.806 19.9282C302.882 23.0038 301.646 27.3523 301.08 32.9738C301.08 34.061 301.145 35.0459 301.275 35.9193C301.405 37.3595 302.055 37.9913 303.235 37.8148C304.759 37.6383 305.828 36.9878 306.441 35.8543C306.748 34.3304 307.091 32.8344 307.491 31.3756C307.881 29.9168 308.271 28.3372 308.671 26.6369C309.451 25.0666 310.083 23.6728 310.566 22.4556C311.05 21.2384 311.719 20.207 312.592 19.38C313.642 18.3301 314.794 17.4845 316.058 16.8341C317.322 16.1837 318.65 15.7841 320.044 15.654L321.419 15.4589C322.423 15.4589 323.584 15.4775 324.922 15.524C326.251 15.5704 327.747 15.6819 329.401 15.8492C330.711 15.8956 331.845 15.9142 332.802 15.9142C333.759 15.9142 334.586 15.8956 335.282 15.8492C335.636 15.8027 335.961 15.7655 336.267 15.7191C336.574 15.6726 336.899 15.6076 337.252 15.524C341.043 14.5204 344.268 13.2103 346.934 11.6028C349.592 9.98608 351.682 8.00694 353.215 5.65614C353.606 4.95926 353.875 4.33671 354.033 3.7885C354.182 3.24029 354.238 2.75712 354.2 2.32041C354.024 0.880188 352.983 0.266933 351.06 0.489935L351.051 0.480643Z" fill="white"/>
<path d="M318.028 40.4351H317.248L316.198 41.2156C315.715 49.9312 315.306 55.9523 314.953 59.2601C314.302 65.8387 313.271 71.1443 311.877 75.149C310.744 79.2467 308.802 83.3257 306.061 87.3769V88.0924L306.191 88.4826L307.501 89.1981L310.047 88.2782C313.494 86.0947 316.393 82.378 318.744 77.1281C321.095 71.8783 322.423 62.0755 322.73 47.7291V45.7035C322.73 42.5629 321.16 40.7975 318.019 40.4072L318.028 40.4351Z" fill="white"/>
<path d="M101.345 118.821C100.564 118.821 99.9696 117.65 99.7373 116.024C100.016 117.065 100.351 118.626 101.345 118.821Z" fill="white"/>
<path d="M22.022 17.1509C22.0591 16.9279 23.8803 6.6698 49.7113 2.64648C38.1989 4.79287 23.8896 9.79182 22.022 17.1509Z" fill="white"/>
<path d="M82.0553 6.40011C80.8659 6.13065 77.5581 4.69043 73.1538 3.42676C76.1736 4.1701 79.3235 5.09927 82.1203 6.20498C94.0044 9.24338 105.164 14.2145 111.241 29.2856C110.274 26.9627 102.99 11.1203 82.0553 6.40011Z" fill="white"/>
<path d="M7.89795 38.4294C10.193 29.4536 14.3929 20.8774 22.0214 17.1514C20.2281 18.285 11.7354 24.6777 7.89795 38.4294Z" fill="white"/>
<path d="M62.3287 1.51259C61.6875 1.47542 61.0464 1.45684 60.396 1.45684C60.8606 1.42896 61.511 1.43825 62.3287 1.51259Z" fill="white"/>
<path d="M116.147 36.7285C118.024 40.4266 119.566 45.9552 118.851 54.7359C117.42 72.3251 113.424 79.9908 113.35 80.1395C113.471 79.8421 123.534 53.7974 116.147 36.7285Z" fill="white"/>
<path d="M5.18461 61.7979L5.24965 66.2765C5.24036 65.8862 5.16603 64.2602 5.18461 61.7979Z" fill="white"/>
<path d="M89.3679 138.807C89.3679 138.807 89.3403 138.862 89.3311 138.881C89.3403 138.862 89.3587 138.835 89.3679 138.798V138.807Z" fill="white"/>
<path d="M3.34502 92.0606C0.473878 86.69 0 76.9523 0 74.267C0 67.8185 5.25912 66.3225 5.25912 66.3225C5.2777 67.7999 7.45197 68.9149 7.36834 65.8022C7.28472 62.6895 9.83994 53.1376 10.1559 52.1062C10.4718 51.0748 12.8319 47.2466 12.7854 45.9737C12.2279 32.4356 23.8519 23.4412 25.9239 23.5156C26.0075 20.6444 35.3179 14.038 37.8638 13.2389C40.4097 12.4398 42.6397 13.7128 44.2379 14.5119C45.8268 15.311 51.2439 12.5234 56.9025 12.5234C64.2058 12.5234 71.6299 14.7906 75.774 18.0148C79.2213 20.7002 79.8624 24.5655 81.2655 23.5899C92.7315 15.6269 93.6885 23.6735 94.404 26.5354C95.1194 29.3972 110.572 35.2975 103.724 37.1279C96.8756 38.9584 100.536 46.4475 102.293 48.9935C104.049 51.5394 103.324 59.1865 104.523 65.7186C105.721 72.2507 103.882 90.2395 104.067 88.9665C104.244 87.6935 110.023 81.7189 110.739 81.0035C111.464 80.288 113.359 80.1301 113.359 80.1301L114.855 81.2451C115.998 81.7004 116.044 84.8503 116.109 87.2196C116.193 90.1651 116.109 92.4788 115.989 93.6681C115.152 101.966 110.349 109.51 109.958 111.229C109.763 112.094 109.484 112.874 109.15 113.571C109.15 113.571 109.113 113.627 109.066 113.738C109.066 113.738 109.066 113.738 109.066 113.748C109.029 113.813 109.001 113.878 108.964 113.952C108.221 115.206 105.48 117 102.618 117C101.698 117 102.971 114.983 102.701 113.971C102.079 111.657 100.945 109.13 100.945 109.13C99.7467 111.174 99.4587 113.952 99.756 116.015C99.598 115.42 99.4494 115.002 99.2078 115.104C98.7432 115.318 96.5875 121.515 94.6548 126.682C95.3889 124.006 86.4874 123.885 83.9786 126.152C81.4699 128.428 75.3745 139.885 74.5197 141.558C73.6648 143.23 68.4522 141.316 67.969 137.618C67.4951 133.911 61.6413 130.928 63.0723 132.127C64.5032 133.325 65.3394 141.325 63.0723 139.894C60.8051 138.464 56.2614 140.257 52.8049 142.162C49.3391 144.076 40.9765 143.713 40.4841 139.532C39.9916 135.351 37.6315 136.429 33.9334 136.187C30.2353 135.945 22.2258 134.273 22.8391 132.6C23.4523 130.928 29.6313 126.988 31.5361 126.152C33.4316 125.316 45.7618 125.91 47.9082 126.152C50.0545 126.394 51.374 121.255 52.6841 121.255C53.9942 121.255 54.4774 119.341 52.6841 118.802C52.6841 118.802 49.655 117.743 48.1033 119.304C46.5516 120.856 39.6664 117.873 38.189 117.994C36.7116 118.115 30.7835 114.928 28.3584 115.011C25.9332 115.095 22.8205 124.721 21.5475 126.161C20.2746 127.601 20.7113 136.67 19.2339 136.791C17.7565 136.912 18.918 125.92 17.4034 126.161C15.8889 126.403 12.869 126.198 11.9492 127.871C11.0293 129.543 12.9805 137.265 12.7854 139.095C12.7761 139.216 12.7761 139.411 12.7854 139.671C12.4602 139.263 12.2 138.993 12.2 138.993C11.5496 138.538 10.9735 137.962 10.4439 137.339C9.91427 136.717 9.44969 136.048 9.02227 135.407C8.24176 134.245 7.36834 129.023 6.21617 124.6C5.06399 120.177 3.58661 117.251 3.35431 115.16C3.0384 112.363 3.67952 92.6646 3.35431 92.0513L3.34502 92.0606ZM18.5091 51.9482C18.1096 52.0319 9.79348 53.0633 8.93864 57.9228C6.38342 72.5015 12.5717 73.821 13.4451 74.1462C13.4637 74.1462 13.4823 74.1555 13.4916 74.1648C13.473 74.1648 13.4544 74.1555 13.4451 74.1462C8.00018 72.037 8.55768 62.132 9.67269 58.0808C10.7877 54.0203 18.76 51.9018 18.5091 51.9482ZM17.7937 58.7962C16.4185 60.4688 16.5393 63.2749 15.2291 63.5164C13.919 63.758 11.8284 64.0368 12.358 63.0611C12.8969 62.0855 15.0433 58.8055 15.8796 58.8055C16.7158 58.8055 14.2628 56.4176 11.5217 60.9519C10.7784 62.1877 10.0258 61.0634 9.90498 61.2493C9.78419 61.4351 9.12448 64.2412 9.90498 64.2412C10.6855 64.2412 13.1292 64.3062 13.8447 65.1982C14.5601 66.0902 12.646 69.7976 12.4137 70.5131C12.1722 71.2286 14.9225 67.2238 15.8796 67.2238C16.8366 67.2238 17.4963 71.0427 17.5521 72.2414C17.6078 73.44 22.8948 72.2414 25.004 72.2414C27.1133 72.2414 21.6776 71.2843 21.5568 68.2366C21.4918 66.6199 18.0352 67.3446 17.5521 67.2238C17.0782 67.103 17.1339 65.9695 17.1339 65.9695C17.1339 65.9695 21.6683 59.3445 23.2851 58.7405C26.4164 57.579 30.9322 57.0122 35.7081 62.6244C36.3121 63.3306 34.1657 64.4177 33.9241 64.5385C33.6825 64.6593 33.7383 66.1925 34.8161 65.635C35.8939 65.0774 38.2169 63.2284 38.2169 63.7673C38.2169 64.3062 37.3249 65.8022 37.4364 66.9915C37.5572 68.1902 39.1646 67.8278 39.6478 65.9788C40.1217 64.1297 42.1008 57.5883 37.4364 55.3304C34.7511 54.0296 31.9821 51.9668 25.1899 51.3536C22.5603 51.112 28.953 52.1898 30.6255 53.4442C32.298 54.6986 24.8925 55.1911 23.7589 55.3304C22.6254 55.4698 19.1595 57.1423 17.7844 58.8148L17.7937 58.7962ZM28.284 65.189C31.787 65.189 35.0391 63.6558 35.1599 63.0519C35.2714 62.4479 32.1958 60.0228 30.3003 59.3259C28.442 58.6383 26.3699 58.2387 24.4094 58.8985C23.9912 59.0378 24.781 65.189 28.284 65.189ZM25.4965 49.6625C24.4187 50.0806 23.4616 50.4987 25.2549 50.6195L27.0482 50.7403C27.1133 50.7589 27.2062 50.7775 27.327 50.8054C28.8694 51.1584 34.6581 52.3292 38.0961 54.3827C39.081 54.9681 41.023 56.7149 41.023 58.3224C41.023 58.3224 43.476 58.6847 43.6525 58.3224C43.8291 57.96 45.2693 55.6371 44.0149 53.5464C44.0149 53.5464 41.98 53.5464 41.8685 52.831C41.7477 52.1155 39.4155 52.831 40.3726 52.292C41.3296 51.7531 41.5712 51.3536 43.0021 49.997C44.433 48.6404 39.9544 51.335 38.6443 50.9169C37.3342 50.4987 34.6396 48.947 33.0878 49.0028C31.5361 49.0585 26.5743 49.2444 25.5058 49.6625H25.4965ZM73.2188 68.6548C75.2165 68.6548 76.7404 67.8278 76.9541 63.6651C78.4687 65.4491 79.6673 68.0043 79.6673 68.0043C79.6673 68.0043 80.3827 68.5433 81.4606 68.8406C82.5384 69.1379 84.2667 72.1299 85.6419 72.771C87.017 73.4214 87.9741 73.2913 87.017 72.4179C82.715 68.4782 82.2968 64.2319 82.2597 63.2284C82.2225 62.2249 80.1505 60.0506 79.1934 59.521C78.2364 58.9914 74.3245 58.6662 75.4953 58.9821C79.6115 60.1064 81.154 63.4607 81.7022 64.8916C82.2597 66.3225 81.1075 66.4433 80.6894 65.189C80.2712 63.9346 75.3745 60.1064 73.4047 59.6883C71.4348 59.2701 64.3824 62.0205 62.1152 63.2191C59.848 64.427 58.8352 64.3434 61.0374 62.0298C62.7935 60.19 67.1049 58.8985 68.4522 58.5454C68.6101 58.5175 68.7309 58.4989 68.8053 58.471C68.9539 58.4246 68.8053 58.4524 68.4522 58.5454C67.0584 58.7684 62.6355 59.1586 59.4299 60.6267C55.8619 62.2621 55.2486 64.4085 55.1836 65.6257C55.1278 66.8429 60.9166 66.2018 62.1059 65.6257C63.2953 65.0496 64.7912 63.2749 66.1106 62.9218C66.7611 62.7452 68.6659 62.2899 70.6822 62.0669C70.2455 63.9996 69.5765 68.6548 73.2188 68.6548ZM82.1389 59.0378C80.708 58.4803 73.3025 54.0203 72.3454 52.5057C71.3884 50.9912 67.2535 50.5173 63.509 50.0341C59.7644 49.551 56.503 53.3792 55.6296 54.5685C54.7562 55.7671 52.7584 57.1981 52.3682 57.6719C52.3682 57.6719 51.7271 58.629 51.8943 58.787C52.0616 58.9449 55.6389 60.6174 55.6389 60.6174C59.4485 55.3026 71.249 56.7149 72.9958 56.6406C74.7427 56.5662 83.5884 59.586 82.1575 59.0285L82.1389 59.0378ZM83.6999 36.6726L84.0716 36.8585C84.0716 36.8585 84.1645 36.8956 84.2109 36.8956C84.3224 36.8956 84.4339 36.8306 84.4897 36.7191C84.564 36.5611 84.5083 36.3753 84.3503 36.301L83.9786 36.1151C73.8507 31.0419 67.3929 28.0313 65.3116 27.4274C63.6112 26.9349 60.7772 27.1393 57.4972 27.3716C54.2823 27.5946 50.6306 27.8548 47.713 27.4181C42.7048 26.6747 39.3783 27.4181 37.4642 28.1614C35.355 28.9884 34.4537 29.9919 34.4166 30.0383C34.3051 30.1684 34.3144 30.3636 34.4444 30.4751C34.5745 30.5866 34.7696 30.5773 34.8811 30.4472C34.8811 30.4379 35.7453 29.4901 37.7337 28.7189C39.5735 28.0035 42.7791 27.3066 47.6201 28.0313C50.6028 28.4773 54.2916 28.2172 57.5437 27.9849C60.6285 27.7712 63.5461 27.5575 65.1443 28.022C67.1699 28.6074 73.7577 31.6737 83.7092 36.6633L83.6999 36.6726ZM55.3044 62.6151C57.6366 60.6267 57.8131 58.3781 68.1455 57.895L76.982 58.471C76.982 58.471 69.4557 57.6534 68.9818 57.5976C68.5079 57.5419 60.74 57.4211 57.8782 59.4467C55.007 61.4816 55.7318 61.8346 55.1929 61.8346C54.6539 61.8346 51.4948 59.5024 49.6364 59.0843C47.7874 58.6662 41.9893 59.1772 41.2181 59.6975C40.4376 60.2179 45.3343 59.298 47.425 59.6975C49.5156 60.0971 55.007 61.9461 55.3044 62.6059V62.6151ZM28.953 36.5797C28.953 36.7563 29.0924 36.8956 29.2689 36.8956C30.5233 36.8956 33.2272 35.9293 35.8382 34.9908C37.3435 34.4519 38.7744 33.9409 39.7407 33.6807C41.469 33.2254 45.1299 33.2997 50.612 33.913C51.4855 34.0059 53 33.9316 54.7469 33.848C57.3764 33.7179 60.6471 33.5506 63.1466 33.913C65.8133 34.294 69.7344 35.9014 72.8936 37.1837C74.5754 37.8713 76.0342 38.4659 76.8519 38.6797C76.8798 38.6797 76.9076 38.6889 76.9355 38.6889C77.0749 38.6889 77.1957 38.596 77.2328 38.4566C77.2793 38.2894 77.1771 38.1221 77.0098 38.0757C76.2293 37.8713 74.7891 37.2859 73.1259 36.6076C69.9388 35.3068 65.9806 33.69 63.2302 33.2905C60.675 32.9281 57.3671 33.086 54.7097 33.2254C52.9907 33.309 51.5041 33.3834 50.6771 33.2905C48.605 33.0582 42.2867 32.3613 39.5735 33.0767C38.5793 33.3369 37.139 33.8572 35.6245 34.4055C33.1808 35.2789 30.4118 36.2731 29.2689 36.2731C29.0924 36.2731 28.953 36.4125 28.953 36.589V36.5797ZM84.3782 32.2591C84.2853 32.194 74.9471 25.9964 68.5265 24.1009C64.624 22.9395 59.5042 22.958 53.5854 22.9673C49.6829 22.9766 45.2693 22.9859 40.6327 22.6514C38.3563 22.4842 35.4387 23.1996 33.506 23.6735C32.5768 23.9058 31.6941 24.1195 31.4618 24.0823C31.2945 24.0545 31.1366 24.1753 31.1087 24.3425C31.0808 24.5098 31.2016 24.6677 31.3689 24.6956C31.7034 24.7421 32.3817 24.5841 33.6546 24.2775C35.5502 23.8129 38.412 23.116 40.5863 23.2647C45.2414 23.5992 49.6736 23.5899 53.5854 23.5806C59.4578 23.562 64.5311 23.5527 68.35 24.6863C74.6776 26.5632 83.9415 32.7051 84.0344 32.7701C84.0901 32.8073 84.1459 32.8259 84.2109 32.8259C84.3131 32.8259 84.4061 32.7794 84.4711 32.6865C84.564 32.5471 84.5269 32.352 84.3875 32.2498L84.3782 32.2591ZM108.388 108.061C111.993 104.874 115.106 94.4951 115.106 94.4951C115.106 94.4951 113.703 96.4835 113.062 97.4963C112.421 98.5091 111.101 97.8122 110.116 97.868C109.131 97.9237 109.642 99.6706 110.46 99.8843C111.287 100.098 111.733 100.813 111.445 101.956C111.157 103.099 107.227 104.242 107.515 104.772C107.803 105.301 108.76 105.617 108.788 106.1C108.815 106.574 107.087 106.342 107.087 106.342C107.087 106.342 104.774 111.248 108.388 108.07V108.061ZM107.375 95.5264C108.156 96.7808 107.673 97.0782 107.673 97.0782C107.673 97.0782 108.927 97.6728 109.587 97.0782C110.246 96.4835 112.393 96.7158 112.272 96.1862C112.151 95.6565 112.449 93.1385 111.018 93.8539C109.587 94.5694 107.134 94.5694 107.375 93.9097C107.617 93.25 107.793 91.4009 109.048 90.5647C110.302 89.7284 112.69 87.8143 112.634 86.2626C112.579 84.7109 111.436 85.8445 110.126 87.4612C108.815 89.078 107.44 90.862 107.44 90.862V89.0687C107.44 89.0687 109.475 87.1546 109.772 86.4391C110.07 85.7237 108.815 85.7237 107.803 86.8015C106.79 87.8794 106.307 87.7586 106.307 90.1465C106.307 92.5345 106.604 94.2628 107.385 95.5172L107.375 95.5264ZM102.423 108.126C102.962 108.544 103.621 106.156 104.151 105.496C104.69 104.837 104.625 105.673 105.164 104.716C105.703 103.759 106.121 102.086 105.638 102.086H105.164C105.164 102.086 104.328 104.056 104.03 104.539C103.733 105.023 103.491 104.066 103.138 104.539C102.785 105.013 101.884 107.708 102.423 108.126ZM87.6675 77.9837C87.9741 77.3147 89.2192 74.5178 89.9346 70.0207C89.9904 69.6676 92.3598 69.6211 92.6014 69.9835C92.843 70.3459 93.5956 71.1821 93.9951 69.8255C94.7756 70.3273 96.1136 70.8662 97.6932 71.9347C100.62 73.9046 104.151 76.6828 104.792 77.4355L104.839 76.1253C104.839 76.1253 98.7153 70.6246 96.9778 69.7884C94.5526 68.6176 93.5491 67.3261 92.9173 69.0729C92.7407 69.5468 91.2448 68.7941 90.6873 68.7941C90.1298 68.7941 87.3051 64.3341 86.506 63.535C85.7069 62.7359 83.8021 61.5838 83.1981 61.2678C82.6035 60.9519 86.0693 63.8138 86.8962 64.808C87.7325 65.8022 88.6896 66.5641 88.6059 68.9056C88.5223 71.2565 88.2064 73.8117 87.3701 76.116C86.5339 78.4204 85.6604 81.3659 78.9704 84.1162C77.7625 84.6087 72.364 84.6737 70.7658 84.5529C69.1769 84.4321 60.6192 81.3659 59.7551 80.7712C58.9003 80.1765 62.4776 84.5529 72.6334 85.352C74.5011 85.5007 84.0158 85.9095 87.6396 77.9837H87.6675ZM73.6927 109.436C65.4881 100.637 63.0815 94.7738 61.1489 91.3638C59.5414 88.5391 59.2348 86.2254 59.2348 86.2254H62.3382C62.3382 86.2254 59.8294 83.7167 59.2348 82.8432C58.6401 81.9698 55.4716 77.7514 55.0907 76.8501C54.7097 75.9581 55.0907 75.9952 56.1685 76.4691C53.9385 72.0091 54.0221 66.434 54.0221 66.434C54.0221 66.434 51.3182 65.2819 51.2718 65.7186C51.2346 66.1553 51.3554 69.0636 52.1916 72.0091C53.0279 74.9546 55.2207 78.6991 56.057 80.1393C56.8933 81.5796 57.4601 84.9803 56.9304 83.9861C55.7782 81.8397 52.9907 81.7561 51.281 81.9141C49.5714 82.072 50.6864 83.949 51.281 83.6237C51.8757 83.3078 53.827 83.4286 54.8677 83.7445C55.9083 84.0605 57.1348 87.5263 57.1348 87.5263C58.6866 92.2743 54.8305 94.7459 55.1557 95.4242C54.6539 95.703 54.0872 95.5172 53.9942 94.4765C53.8734 93.1478 52.0801 92.3394 50.3798 92.3858C48.7351 92.4323 46.9511 93.1199 45.1578 95.0897C43.3645 97.0596 38.347 95.0897 39.0345 95.926C39.7221 96.7622 45.0463 101.901 48.0847 101.603C53.2323 101.092 55.2207 96.9853 55.5924 95.545C57.7109 96.0096 59.114 97.8122 60.452 99.6334C62.4311 102.328 63.8992 105.208 63.9921 105.05C64.1501 104.772 63.9921 103.183 64.5496 103.657C65.1071 104.131 69.6043 111.257 71.76 112.094C73.9064 112.93 75.5882 111.443 73.7113 109.427L73.6927 109.436ZM37.8638 103.87C38.1797 104.827 39.6199 105.859 40.7349 105.859C41.8499 105.859 44.4981 103.712 44.4981 101.817C44.4981 101.817 40.0381 98.3233 39.3783 97.8122C37.808 96.6136 37.5479 102.904 37.8638 103.861V103.87ZM22.8298 115.011C23.443 114.073 25.0412 111.982 26.8717 111.824C28.7022 111.666 37.2227 111.824 38.3377 111.824C39.4527 111.824 41.7663 114.128 43.5968 113.971C45.4273 113.813 49.5714 112.772 50.2868 113.06C51.0023 113.339 55.8619 116.684 56.7353 117.167C57.6087 117.641 57.2928 118.839 58.0826 119.954C58.8817 121.069 60.5542 122.584 61.2697 122.584C61.9851 122.584 64.6147 126.802 67.7181 126.087C68.9632 125.799 59.7737 122.742 62.6263 116.925C63.3324 115.476 65.4138 115.559 65.8876 115.643C66.3615 115.727 69.3906 118.839 70.1897 119.954C70.9888 121.069 70.3477 117.882 69.4743 116.693C68.6008 115.494 63.8249 107.615 64.3824 110.245C64.6797 111.648 65.2558 114.779 63.1094 114.547C60.963 114.314 57.776 109.241 56.345 109.148C54.9141 109.055 57.7016 111.127 56.345 111.369C54.9884 111.61 48.2984 108.665 46.7095 107.55C45.1206 106.435 43.4481 106.193 40.3354 108.2C39.3876 108.814 38.6629 105.311 36.8324 105.162C35.0019 105.004 29.1203 106.444 25.0505 109.548C24.3257 110.096 21.4639 109.548 20.8321 110.746C20.1909 111.945 21.5475 116.396 19.1595 117.994C16.7716 119.583 15.7866 120.307 15.0898 120.865C14.3929 121.423 19.0016 120.902 22.8391 115.048L22.8298 115.011ZM33.9241 93.0177C33.8033 91.6425 32.168 90.4903 31.118 89.8492C30.7463 89.6262 29.6964 89.6448 29.2689 90.1187C29.0367 90.3695 29.1389 90.8341 29.2132 91.2244C29.3619 92.0235 30.7092 93.4358 31.1273 93.7331C31.5454 94.0305 34.0542 94.3929 33.9334 93.0177H33.9241ZM12.7761 105.134C17.6729 105.376 19.1224 105.376 18.5184 106.927C17.9516 108.386 22.0028 100.823 22.7183 97.5985C22.7926 97.6357 22.8298 97.6543 22.8298 97.6543C22.8298 97.6543 27.2712 91.912 28.1446 90.481C27.9031 90.0815 28.061 88.8085 28.3026 87.3776C28.5442 85.9467 32.6047 83.7167 33.0786 82.4437C33.5524 81.1707 33.0786 79.8978 33.0786 79.8978C33.6361 78.6991 35.3922 77.6677 36.3028 75.9209C37.2227 74.1648 37.7802 73.3285 37.7802 73.3285C43.0393 67.7906 41.5805 64.0925 41.1252 65.4863C39.4806 70.5038 36.2006 73.6166 30.0587 76.3112C25.9704 78.1045 16.1211 75.9116 16.1211 75.9116C21.5382 79.4146 30.3747 77.5005 31.5175 77.1102C32.6604 76.7107 36.024 74.4249 35.0763 75.6793C33.5617 77.6677 27.1133 79.8234 24.5673 80.1486C22.0214 80.4738 20.3489 81.2543 22.1794 81.3287C24.0098 81.4123 28.9437 80.9291 30.6162 80.6132C32.2888 80.2973 31.8149 82.6017 29.9008 83.4844C27.9867 84.3578 25.4222 86.5599 23.7125 89.0408C21.5196 92.2186 21.1573 94.2906 21.3989 95.6101C20.9343 95.7773 20.544 96.0561 20.544 96.0561C20.544 96.0561 10.6855 99.5684 8.32539 97.3383C5.96529 95.099 7.87939 104.883 12.7761 105.134ZM4.09765 84.7573C4.09765 84.7573 3.22423 76.7107 4.57153 75.3634C5.92812 74.0068 4.81312 70.0299 3.8189 69.5468C2.82469 69.0636 0.75263 70.6618 1.46809 77.1474C2.18356 83.633 4.09765 84.748 4.09765 84.748V84.7573Z" fill="white"/>
<path d="M16.1211 141.335C17.3198 141.335 27.234 154.353 30.4583 156.62C33.6825 158.887 37.2691 158.534 36.1913 157.094C35.1134 155.663 23.0528 145.749 24.2607 144.55C25.4686 143.352 26.1562 145.145 27.7079 146.697C29.2596 148.248 38.3376 153.628 42.7791 154.576C47.2205 155.533 50.0452 152.43 51.8478 153.266C53.6504 154.102 52.6655 157.8 53.7433 160.197C54.8212 162.585 67.0026 150.404 68.8517 149.205C70.7007 148.016 77.874 144.188 78.831 141.326C79.788 138.455 89.3028 138.919 89.3028 138.919C86.2272 145.479 82.0552 153.953 79.8996 156.574C76.2386 161.034 61.855 180.305 56.3822 182.21C55.23 182.609 53.9756 182.879 52.7305 183.055C52.8606 181.606 52.554 179.599 52.1916 177.034C51.4762 172.017 45.6967 159.436 38.412 158.246C38.412 158.246 47.2205 163.905 47.1741 178.149C47.1741 180.23 47.3506 182.005 47.7502 183.325C45.1671 183.287 43.2716 183.009 43.2716 183.009C43.2716 183.009 36.9067 178.103 30.9507 173.02C31.2666 172.537 31.5175 172.054 31.5082 171.784C31.4989 171.069 23.5173 162.232 21.6032 161.034C19.6891 159.835 14.9132 141.326 16.1118 141.326L16.1211 141.335ZM25.9146 162.158C27.5871 163.589 33.8776 169.963 36.5072 171.236C39.1367 172.509 41.4411 173.782 41.2088 173.029C40.9672 172.277 36.5072 163.347 36.5072 163.347C37.3806 170.836 34.2214 168.123 33.1622 167.408C27.4942 163.608 22.2537 154.111 22.0957 154.585C21.9377 155.059 24.2421 160.718 25.9146 162.149V162.158Z" fill="white"/>
<path d="M109.057 113.747C109.057 113.747 109.057 113.747 109.057 113.757C109.057 113.757 109.057 113.757 109.057 113.747C109.104 113.636 109.131 113.58 109.141 113.58C109.113 113.636 109.085 113.692 109.057 113.747Z" fill="white"/>
<path d="M68.796 58.4801C68.7216 58.4987 68.6008 58.5265 68.4429 58.5544C68.796 58.4615 68.9446 58.4336 68.796 58.4801Z" fill="white"/>
</g>
<defs>
<clipPath id="clip0_140_669">
<rect width="354.21" height="182.898" fill="white" transform="translate(0 0.43457)"/>
</clipPath>
</defs>
</svg>
