<svg width="130" height="160" viewBox="0 0 130 160" fill="none" xmlns="http://www.w3.org/2000/svg">
<g clip-path="url(#clip0_52_17)">
<path d="M67.8281 57.3873V56.2381C67.8281 56.2381 69.1267 55.0116 69.3166 54.5529C69.5065 54.0943 68.7058 54.0943 68.0591 54.7848C67.4124 55.4754 67.1044 55.3981 67.1044 56.9338C67.1044 58.4695 67.2943 59.5774 67.7922 60.3813C68.29 61.1853 67.9821 61.3759 67.9821 61.3759C67.9821 61.3759 68.7828 61.7573 69.2037 61.3759C69.6245 60.9946 71.0001 61.144 70.9231 60.7988C70.8461 60.4535 71.036 58.8457 70.1224 59.3043C69.2088 59.7629 67.6433 59.7629 67.7922 59.3404C67.941 58.9178 68.0591 57.7325 68.8598 57.1914C69.6605 56.6503 71.19 55.429 71.1489 54.4293C71.1079 53.4295 70.3842 54.1613 69.5475 55.1971C68.7109 56.2329 67.8281 57.3821 67.8281 57.3821V57.3873Z" fill="#2F3030"/>
<path d="M66.3807 64.5916C66.3807 64.5916 65.8469 65.8542 65.657 66.1634C65.4671 66.4726 65.3131 65.8542 65.0821 66.1634C64.8512 66.4726 64.2814 68.1938 64.6253 68.4617C64.9692 68.7297 65.3901 67.1992 65.734 66.7766C66.0779 66.354 66.0419 66.89 66.3807 66.2767C66.7246 65.6635 66.9915 64.5916 66.6886 64.5916H66.3807Z" fill="#2F3030"/>
<path d="M72.7298 59.7166C72.7298 59.7166 70.7435 66.3798 68.4389 68.4205C66.1292 70.4664 67.6074 67.3125 67.6074 67.3125C67.6074 67.3125 68.7109 67.4671 68.6955 67.158C68.6801 66.8488 68.0693 66.6478 67.8794 66.3076C67.6895 65.9675 70.2045 65.2358 70.3893 64.504C70.5741 63.7722 70.2867 63.3136 69.7631 63.1744C69.2396 63.0353 68.9162 61.9119 69.5424 61.881C70.1686 61.85 71.0206 62.2881 71.4261 61.6439C71.8316 60.9997 72.7349 59.7166 72.7349 59.7166H72.7298Z" fill="#2F3030"/>
<path d="M63.6706 69.1111C63.6706 69.1111 64.3944 70.7292 64.7896 72.2185C64.9641 72.8678 64.148 74.1613 64.7382 74.1613C66.6732 74.1613 68.5261 72.873 68.8649 72.0691C69.2037 71.2651 68.018 75.161 63.9375 75.3259C62.8032 75.3259 62.2951 71.4558 63.6706 69.1111Z" fill="#2F3030"/>
<path d="M1.77591 53.4656C1.77591 53.4656 1.21645 48.302 2.08387 47.4362C2.95129 46.5705 2.23785 44.0144 1.6014 43.7052C0.964951 43.396 -0.359275 44.4215 0.0975317 48.5854C0.554338 52.7493 1.77591 53.4656 1.77591 53.4656Z" fill="#2F3030"/>
<path d="M2.50989 41.6078V41.6388C2.52529 42.587 3.91111 43.2981 3.85978 41.3089C3.80845 39.3146 5.43551 33.1822 5.64081 32.5174C5.84612 31.8526 7.35512 29.3996 7.31919 28.5803C6.96504 19.8918 14.392 14.1201 15.7162 14.1664C15.7676 12.3267 21.7214 8.08554 23.3536 7.57536C24.9807 7.06519 26.4076 7.88456 27.4238 8.39474C28.4401 8.90492 31.9046 7.11672 35.518 7.11672C40.1887 7.11672 44.9313 8.56995 47.5798 10.6416C49.7817 12.3628 50.1923 14.8467 51.0905 14.218C58.42 9.1059 59.0307 14.2695 59.4875 16.1092C59.9444 17.949 69.8196 21.7315 65.4414 22.9065C61.0633 24.0814 63.4038 28.8843 64.5278 30.5231C65.6467 32.1567 65.1899 37.0626 65.9547 41.2574C66.7195 45.447 65.5492 56.9956 65.6621 56.1814C65.7751 55.362 69.4654 51.5331 69.9274 51.0693C70.3893 50.6107 71.6006 50.5076 71.6006 50.5076C71.6468 50.4148 74.2029 45.4934 75.1165 34.2077C75.5733 28.5751 74.5878 25.0245 73.3868 22.6488C72.1601 20.2216 70.7024 19.0157 70.3277 18.0572C70.3277 18.0572 70.3277 18.0572 70.3277 18.052C70.3277 18.052 70.3277 18.052 70.3277 18.0469C70.3072 17.9902 70.2815 17.9335 70.261 17.8768C66.3756 8.20922 59.2412 5.01417 51.6448 3.06622C49.8535 2.36021 47.8467 1.76243 45.9117 1.28317C43.1913 0.613241 40.6199 0.185516 39.0031 0.0566836C39.0031 0.0566836 39.0031 0.0566836 38.998 0.0566836C38.4744 0.0154572 38.0536 0.00515053 37.761 0.0257638C35.2357 0.200976 32.9671 0.458642 30.9294 0.778147C14.4177 3.34965 13.2474 9.93558 13.2269 10.0747C8.35086 12.4659 5.67161 17.9696 4.19854 23.731C3.85465 25.0812 3.57748 26.4468 3.35165 27.7866C3.35165 27.7866 3.35165 27.7866 3.35165 27.7918C3.07448 29.7449 2.94103 31.8732 3.00776 34.1922L2.52529 36.1196C2.48936 37.0884 2.46883 37.9644 2.46883 38.7168C2.45856 40.304 2.50476 41.3502 2.50989 41.5975V41.6078Z" fill="#2F3030"/>
<path d="M54.0469 20.0928C54.0931 20.0928 54.1444 20.067 54.1701 20.0258C54.2163 19.9588 54.1958 19.8609 54.129 19.8145C54.0674 19.7733 48.1084 15.8 44.0126 14.5839C41.5232 13.8418 38.2537 13.8521 34.4761 13.8624C31.9816 13.8676 29.1586 13.8727 26.192 13.6614C24.7446 13.5584 22.8814 14.017 21.6496 14.3159C21.049 14.4653 20.4793 14.6045 20.3202 14.5787C20.2381 14.5684 20.1611 14.6251 20.1508 14.7075C20.1406 14.79 20.197 14.8673 20.2791 14.8776C20.4896 14.9085 20.9156 14.8055 21.7214 14.6096C22.9379 14.3107 24.7702 13.8573 26.1663 13.9603C29.1433 14.1768 31.9713 14.1716 34.471 14.1613C38.2281 14.151 41.477 14.1458 43.9253 14.8725C47.9801 16.0783 53.9032 20.0258 53.9648 20.067C53.9905 20.0825 54.0213 20.0928 54.0469 20.0928Z" fill="#2F3030"/>
<path d="M54.0469 22.6952C54.1034 22.6952 54.1547 22.6643 54.1804 22.6127C54.2163 22.5406 54.1855 22.4478 54.1136 22.4117L53.8724 22.2932C47.4001 19.0363 43.2786 17.109 41.9441 16.7225C40.8662 16.4081 39.0595 16.537 36.9654 16.6864C34.9072 16.8307 32.5719 17.0008 30.6984 16.7173C27.5111 16.2432 25.3861 16.7173 24.1697 17.1914C22.8352 17.7171 22.2655 18.3561 22.2398 18.3819C22.1834 18.4437 22.1936 18.5416 22.2552 18.5931C22.3168 18.6498 22.4143 18.6395 22.4657 18.5777C22.4657 18.5777 24.7138 16.1247 30.6522 17.0111C32.5565 17.2945 34.9072 17.1296 36.9808 16.9802C38.9569 16.841 40.8252 16.707 41.8568 17.0059C43.1503 17.3821 47.3693 19.3507 53.7338 22.556L53.9751 22.6746C53.9751 22.6746 54.0212 22.69 54.0418 22.69L54.0469 22.6952Z" fill="#2F3030"/>
<path d="M49.3916 23.8495C49.4583 23.8495 49.5199 23.8031 49.5353 23.7362C49.5558 23.6537 49.5096 23.5712 49.4275 23.5506C48.9245 23.4166 48.0058 23.0405 46.9433 22.6024C44.9108 21.7676 42.3804 20.7318 40.6301 20.4793C39.0031 20.2474 36.8936 20.3504 35.1946 20.438C34.0911 20.4947 33.1416 20.5411 32.6078 20.4793C31.2836 20.3298 27.2544 19.8815 25.5298 20.3401C24.8934 20.5102 23.9798 20.84 23.0046 21.1904C21.4391 21.7521 19.6632 22.3963 18.9241 22.3963C18.842 22.3963 18.7753 22.4633 18.7753 22.5457C18.7753 22.6282 18.842 22.6952 18.9241 22.6952C19.7145 22.6952 21.4391 22.0768 23.1072 21.4738C24.0722 21.1286 24.9858 20.7988 25.6068 20.6339C26.7155 20.3401 29.0611 20.3865 32.577 20.7781C33.1313 20.84 34.0963 20.7936 35.21 20.7369C36.8936 20.6545 38.9877 20.5463 40.5891 20.7781C42.2982 21.0255 44.8132 22.0562 46.8304 22.8807C47.9031 23.3239 48.8321 23.7001 49.3557 23.8392C49.3659 23.8392 49.3813 23.8392 49.3916 23.8392V23.8495Z" fill="#2F3030"/>
<path d="M19.0422 56.738C19.7146 57.1451 20.7616 57.8871 20.8386 58.7684C20.9156 59.6496 19.3091 59.4177 19.0422 59.227C18.7753 59.0363 17.9181 58.1293 17.8206 57.6192C17.7744 57.3667 17.7077 57.0678 17.8565 56.908C18.1337 56.6091 18.8061 56.5937 19.0422 56.738Z" fill="#2F3030"/>
<path d="M32.6181 36.0886C32.8747 35.7794 34.1476 34.8621 34.7071 34.0943C35.2665 33.3265 37.3555 30.8735 39.7473 31.1827C42.1391 31.4919 44.7876 31.7959 45.3984 32.7647C46.0092 33.7336 50.7415 36.5988 51.6602 36.9544C52.579 37.31 46.9279 35.3723 45.809 35.4187C44.6901 35.4651 37.1451 34.5633 34.7122 37.9747C34.7122 37.9747 32.423 36.9029 32.3204 36.7998C32.2177 36.6967 32.6283 36.0835 32.6283 36.0835L32.6181 36.0886Z" fill="#2F3030"/>
<path d="M66.1754 47.9206C66.1754 47.9206 62.2592 44.3906 61.1505 43.8547C59.6005 43.1074 58.9589 42.2778 58.5534 43.396C58.4456 43.7052 57.4858 43.2157 57.1265 43.2157C56.7672 43.2157 54.9657 40.3556 54.4524 39.8402C53.9391 39.3249 52.7227 38.588 52.3377 38.3819C51.9528 38.1757 54.1701 40.0155 54.7039 40.6545C55.2377 41.2935 55.8485 41.7779 55.7971 43.2878C55.7458 44.7977 55.5405 46.4365 55.0067 47.9155C54.4729 49.3945 53.9135 51.2858 49.638 53.0482C48.8681 53.3677 45.4138 53.4038 44.3975 53.3316C43.3812 53.2595 37.9098 51.2858 37.3606 50.9044C36.8114 50.5231 39.1006 53.3316 45.5934 53.8418C46.7842 53.9346 52.8715 54.1974 55.1864 49.1162C55.3814 48.6885 56.177 46.8951 56.6389 44.0041C56.6748 43.7774 58.189 43.7465 58.3429 43.9784C58.4969 44.2103 58.9794 44.7462 59.236 43.8753C59.739 44.1999 60.5859 44.5452 61.6022 45.2306C63.4756 46.4932 65.7288 48.2762 66.1395 48.7606L66.1703 47.9206H66.1754Z" fill="#2F3030"/>
<path d="M16.445 31.631C16.4861 31.6413 16.5477 31.6568 16.6247 31.6722C17.6101 31.899 21.3108 32.6514 23.5076 33.9655C24.1389 34.3417 25.3759 35.4599 25.3759 36.4957C25.3759 36.4957 26.9413 36.7276 27.0542 36.4957C27.1672 36.2638 28.0859 34.7694 27.2852 33.4295C27.2852 33.4295 25.9866 33.4295 25.9097 32.9709C25.8327 32.5122 24.3442 32.9709 24.955 32.6256C25.5658 32.2803 25.7198 32.0227 26.6334 31.1569C27.547 30.2912 24.6881 32.0124 23.8463 31.7444C23.0046 31.4764 21.2903 30.4818 20.2945 30.5179C19.2988 30.554 16.1319 30.6725 15.4442 30.9405C14.7564 31.2085 14.1456 31.4764 15.2902 31.5537L16.4348 31.631H16.445Z" fill="#2F3030"/>
<path d="M48.3599 36.5988C48.3599 36.5988 43.5506 36.0732 43.2427 36.0371C42.9347 36.001 37.9766 35.9237 36.1442 37.2275C34.3118 38.5313 34.7686 38.7632 34.4248 38.7632C34.0809 38.7632 32.0586 37.2687 30.873 37.0008C29.6873 36.7328 25.9867 37.0626 25.4888 37.3976C24.9909 37.7325 28.1219 37.1399 29.4615 37.3976C30.796 37.6552 34.3118 38.8405 34.5017 39.2631C35.9902 37.9851 36.1031 36.5421 42.7089 36.2329L48.3599 36.604V36.5988Z" fill="#2F3030"/>
<path d="M10.989 32.4092C11.1481 32.3783 6.0514 33.7387 5.33796 36.3463C4.62452 38.9539 4.27037 45.3388 7.78111 46.6684C7.36536 46.4777 3.19764 45.7975 4.87089 36.2432C5.41495 33.1255 10.7324 32.4607 10.989 32.4092Z" fill="#2F3030"/>
<path d="M9.4595 47.7918C9.4595 47.7918 15.7573 49.1987 18.3647 48.0495C22.2912 46.318 24.3853 44.3185 25.4375 41.0977C25.73 40.201 26.659 42.5715 23.3023 46.1273C23.3023 46.1273 22.9481 46.6684 22.363 47.7918C21.7779 48.9152 20.659 49.58 20.2997 50.3478C20.2997 50.3478 20.6076 51.1672 20.2997 51.9814C19.9917 52.7957 17.3997 54.2283 17.2457 55.1507C17.0918 56.0732 16.9891 56.8874 17.1431 57.1451C16.5836 58.0675 13.7453 61.7521 13.7453 61.7521C13.7453 61.7521 11.2559 60.6493 14.3099 56.2175C15.4083 54.6251 17.0456 53.2131 18.2671 52.6514C19.4887 52.0897 19.7967 50.6055 18.724 50.8116C17.6512 51.0178 14.4998 51.3218 13.3295 51.2703C12.1593 51.2188 13.2269 50.724 14.8591 50.5127C16.4912 50.3015 20.6128 48.9204 21.5777 47.6424C22.1834 46.8384 20.0379 48.3071 19.3039 48.5648C18.57 48.8225 12.924 50.049 9.4595 47.797V47.7918Z" fill="#2F3030"/>
<path d="M28.0141 60.1082C29.1587 58.8457 30.2981 58.3973 31.3503 58.3715C32.4436 58.3458 33.5881 58.8663 33.6651 59.7166C33.7267 60.3813 34.0911 60.505 34.4094 60.3247C34.1989 59.8866 36.6677 58.2994 35.6771 55.2538C35.6771 55.2538 34.8867 53.0327 34.2246 52.8266C33.5625 52.6205 32.3152 52.5432 31.9354 52.7493C31.5556 52.9554 30.8422 51.7547 31.9354 51.6516C33.0287 51.5486 34.8097 51.6001 35.5488 52.9812C35.8876 53.615 35.5232 51.4352 34.9894 50.5076C34.4556 49.58 33.0543 47.1786 32.5205 45.2873C31.9868 43.396 31.9098 41.5305 31.9354 41.2523C31.9611 40.9688 33.6908 41.7109 33.6908 41.7109C33.6908 41.7109 33.6395 45.2873 35.0663 48.1525C34.3786 47.8433 34.1373 47.8227 34.3786 48.3947C34.6198 48.9719 36.6421 51.6774 37.027 52.2391C37.4068 52.8008 39.0134 54.4087 39.0134 54.4087H37.027C37.027 54.4087 37.2221 55.8877 38.2486 57.7068C39.4856 59.8969 41.0202 63.6588 46.2658 69.3069C47.4669 70.6004 46.3941 71.5537 45.0186 71.0178C43.643 70.4818 40.7687 65.9057 40.4146 65.6016C40.0604 65.2976 40.1579 66.318 40.0604 66.4983C39.9988 66.6014 39.0647 64.7565 37.7969 63.025C36.9398 61.8552 36.0467 60.7008 34.6917 60.402C34.4556 61.3244 33.1827 63.9577 29.8926 64.2876C27.9525 64.4834 24.5495 61.1853 24.1081 60.6442C23.6667 60.1082 26.8746 61.3708 28.0192 60.1082H28.0141Z" fill="#2F3030"/>
<path d="M27.5932 64.4164C27.5932 64.4164 24.7446 62.1695 24.3237 61.85C23.3177 61.0822 23.1534 65.1224 23.3587 65.7356C23.5641 66.3489 24.4777 67.0137 25.1911 67.0137C25.9045 67.0137 27.5983 65.6326 27.5983 64.4215L27.5932 64.4164Z" fill="#2F3030"/>
<path d="M12.2876 60.7215C12.2876 60.7215 5.98468 62.9786 4.48081 61.5408C2.97694 60.1031 4.19852 66.385 7.32431 66.5395C10.4501 66.6941 11.3791 66.6942 10.9942 67.6939C10.6092 68.6936 13.5862 63.092 13.7401 61.3296C13.8941 59.5671 12.2876 60.7163 12.2876 60.7163V60.7215Z" fill="#2F3030"/>
<path d="M10.1113 41.4069C10.1113 41.4069 13.0113 37.1554 14.0429 36.7689C16.0447 36.0268 18.9292 35.6558 21.9832 39.2579C22.3681 39.7114 20.9977 40.4071 20.8386 40.4844C20.6795 40.5617 20.7205 41.546 21.4083 41.1853C22.0961 40.8245 23.5846 39.6393 23.5846 39.9845C23.5846 40.3298 23.0097 41.2883 23.0867 42.0562C23.1637 42.824 24.1953 42.5921 24.4982 41.4069C24.8061 40.2164 26.0636 36.0268 23.0867 34.5736C21.3724 33.7387 19.6016 32.4143 15.2594 32.0175C13.5759 31.8629 17.6666 32.5535 18.7342 33.3574C19.8018 34.1613 15.0695 34.4808 14.3458 34.5684C13.6221 34.656 11.4048 35.7331 10.5271 36.8049C9.64939 37.8768 9.72638 39.6805 8.88462 39.8351C8.04287 39.9897 6.70838 40.1649 7.05227 39.5414C7.39615 38.9178 8.77171 36.8049 9.3055 36.8049C9.8393 36.8049 8.27384 35.2693 6.51847 38.186C6.04113 38.9796 5.56379 38.2582 5.4868 38.3767C5.40981 38.4952 4.98894 40.2937 5.4868 40.2937C5.98467 40.2937 7.55013 40.335 8.00694 40.907C8.46375 41.479 7.24217 43.8547 7.08819 44.3185C6.93421 44.7823 8.68958 42.2108 9.30037 42.2108C9.91116 42.2108 10.332 44.6637 10.368 45.4316C10.4039 46.1994 13.7863 45.4316 15.1311 45.4316C16.4758 45.4316 13.001 44.8183 12.924 42.8652C12.883 41.8294 10.6708 42.2881 10.368 42.2159C10.0651 42.1438 10.1011 41.412 10.1011 41.412L10.1113 41.4069Z" fill="#2F3030"/>
<path d="M14.7513 36.8719C14.4844 36.9647 14.9874 40.907 17.2303 40.907C19.4733 40.907 21.552 39.9227 21.6239 39.5362C21.6958 39.1497 19.73 37.5934 18.5186 37.1451C17.3073 36.6967 16.0088 36.4442 14.7513 36.8719Z" fill="#2F3030"/>
<path d="M43.1297 36.5988C43.0835 36.6143 43.0066 36.6297 42.9039 36.6452C43.1297 36.5885 43.2221 36.573 43.1297 36.5988Z" fill="#2F3030"/>
<path d="M37.1399 37.9799C39.1879 37.0368 42.016 36.7895 42.9039 36.6452C42.0416 36.8668 39.2854 37.6965 38.1665 38.8817C36.755 40.371 37.4017 40.4226 38.8542 39.6496C40.3068 38.8766 44.8081 37.1141 46.0708 37.3821C47.3283 37.6501 50.4592 40.1082 50.7261 40.9121C50.993 41.7161 51.7321 41.6388 51.3728 40.7163C51.0186 39.7939 50.0383 37.6398 47.4001 36.9235C46.6559 36.7173 49.1555 36.9235 49.7663 37.2687C50.3771 37.614 51.7013 39.0054 51.727 39.6496C51.7526 40.2937 52.0195 43.0147 54.7706 45.545C55.3814 46.1067 54.7706 46.1891 53.8929 45.7717C53.0153 45.3543 51.9066 43.4373 51.2188 43.2466C50.531 43.0559 50.0742 42.7106 50.0742 42.7106C50.0742 42.7106 49.3095 41.0719 48.3394 39.9279C48.206 42.6024 47.2256 43.1332 45.9527 43.1332C43.6225 43.1332 44.0536 40.1391 44.3308 38.9023C43.0476 39.0466 41.8261 39.3404 41.4103 39.4537C40.5686 39.6856 39.6139 40.8194 38.8542 41.1904C38.0895 41.5615 34.3888 41.9686 34.4248 41.1904C34.4607 40.4123 34.8559 39.0363 37.1399 37.9851V37.9799Z" fill="#2F3030"/>
<path d="M40.3068 69.8171C40.4967 70.7189 40.8662 72.7287 39.4907 72.5792C38.1151 72.4298 36.0826 69.1729 35.1639 69.1111C34.2451 69.0492 36.0313 70.3788 35.1639 70.5334C34.2964 70.688 30.0209 68.7967 29.0047 68.0804C27.9884 67.3641 26.9157 67.2095 24.9345 68.4927C24.3288 68.8843 23.8669 66.6426 22.6966 66.5395C21.5264 66.4365 17.7693 67.3589 15.1619 69.3533C14.6999 69.7088 12.8727 69.3533 12.4621 70.1211C12.0515 70.8889 12.9189 73.749 11.3945 74.7694C9.86498 75.7897 9.2388 76.2535 8.79226 76.6091C8.34572 76.9647 11.297 76.6349 13.7504 72.8781C14.1405 72.2752 15.167 70.9353 16.3373 70.8323C17.5075 70.7292 22.9533 70.8323 23.6667 70.8323C24.3801 70.8323 25.8532 72.3113 27.0286 72.2082C28.204 72.1051 30.8473 71.4403 31.3041 71.6207C31.7609 71.8011 34.8713 73.9449 35.4308 74.2541C35.9902 74.5633 35.7849 75.3259 36.293 76.0423C36.8012 76.7586 37.8688 77.7274 38.3307 77.7274C38.7927 77.7274 40.471 80.438 42.4522 79.9742C43.2478 79.7887 37.376 77.8253 39.193 74.0995C39.6447 73.1719 40.974 73.2234 41.282 73.2749C41.59 73.3265 43.5198 75.3259 44.0331 76.0371C44.5464 76.7483 44.1358 74.7075 43.5763 73.9397C43.0168 73.1719 39.9629 68.1113 40.3171 69.8016L40.3068 69.8171Z" fill="#2F3030"/>
<path d="M7.32432 88.3432C7.31406 88.4205 7.31406 88.5442 7.32432 88.7142C7.65795 89.1368 8.08909 89.7964 8.08909 90.3633C8.08909 91.2858 10.7375 100.892 12.7701 104.061C13.6221 105.385 16.2141 107.782 18.9447 110.121C19.1448 109.812 19.304 109.503 19.304 109.327C19.2988 108.869 14.197 103.195 12.9754 102.427C11.7538 101.659 8.69988 89.781 9.46464 89.781C10.2294 89.781 16.5631 98.1345 18.6264 99.5929C20.6898 101.051 22.9789 100.819 22.2912 99.9021C21.6034 98.9848 13.8941 92.6205 14.664 91.8526C15.4391 91.0848 15.8753 92.234 16.8659 93.2337C17.8565 94.2283 23.6616 97.681 26.4999 98.2943C29.3383 98.9075 31.145 96.9132 32.2998 97.4491C33.4547 97.9851 32.8234 100.361 33.5112 101.896C34.1989 103.432 41.9852 95.6094 43.1657 94.8415C44.3462 94.0737 48.9297 91.6207 49.5456 89.781C50.1564 87.9413 56.2437 88.235 56.2437 88.235C56.2437 88.235 56.2488 88.2247 56.254 88.2144C56.3772 87.9567 57.3575 85.8954 58.2403 83.9011C58.3789 83.5919 58.5123 83.2827 58.6407 82.9786C58.6407 82.9735 58.6458 82.9631 58.6509 82.958C58.656 82.9477 58.6612 82.9322 58.6663 82.9219C59.118 81.8655 59.4978 80.9224 59.6467 80.3916C59.6467 80.3916 59.6467 80.3917 59.6467 80.3865C60.1137 78.6653 54.4267 78.5931 52.8253 80.0464C51.224 81.5048 47.3283 88.8585 46.7791 89.9356C46.2299 91.0075 42.8988 89.781 42.5908 87.4053C42.2829 85.0296 38.5463 83.1126 39.4599 83.8804C40.3787 84.6483 40.9124 89.781 39.4599 88.8637C38.0074 87.9413 35.1074 89.0956 32.8952 90.3221C30.6831 91.5486 25.3348 91.3167 25.0217 88.6369C24.7086 85.9521 23.1996 86.6426 20.8335 86.4932C18.4673 86.3386 13.3501 85.2667 13.7401 84.1948C14.1302 83.1229 18.0824 80.5926 19.2988 80.0567C20.5153 79.5207 28.3939 79.9021 29.7643 80.0567C31.1399 80.2113 31.9765 76.9132 32.8182 76.9132C33.66 76.9132 33.9628 75.6867 32.8182 75.3414C32.8182 75.3414 30.8832 74.6663 29.8926 75.6609C28.902 76.6555 24.4982 74.7385 23.5538 74.8158C22.6145 74.8931 18.8215 72.8472 17.2663 72.8987C15.7162 72.9503 13.7299 79.1342 12.9138 80.0567C12.0977 80.9791 12.38 86.8024 11.4356 86.8797C10.4963 86.957 11.2303 79.9021 10.2653 80.0567C9.3004 80.2113 7.36538 80.0824 6.78026 81.1543C6.19514 82.2262 7.44237 87.1837 7.31406 88.3587L7.32432 88.3432Z" fill="#2F3030"/>
<path d="M22.4913 103.906C22.4913 103.906 25.34 109.637 25.4939 110.121C25.6479 110.606 24.1697 109.786 22.4913 108.967C20.8129 108.147 16.7889 104.061 15.7213 103.138C14.6538 102.216 13.1755 98.588 13.2782 98.2839C13.3809 97.9799 16.7325 104.071 20.351 106.514C21.0285 106.972 23.0508 108.709 22.4913 103.906Z" fill="#2F3030"/>
<path d="M23.7129 100.634C23.7129 100.634 29.3434 104.267 29.3126 113.409C29.3126 114.744 29.4255 115.883 29.6822 116.728C30.6471 116.743 31.7609 116.707 32.8644 116.552C32.9465 115.62 32.7515 114.337 32.5205 112.687C32.0637 109.467 28.3682 101.391 23.7129 100.629V100.634Z" fill="#2F3030"/>
<path d="M49.5302 130.121C47.7491 131.667 44.9929 133.589 41.2563 135.888C37.0886 138.67 32.3768 140.361 27.1159 140.964C21.8549 141.567 17.5845 141.345 14.3099 140.294C11.0352 139.242 9.13615 137.392 8.62288 134.744C8.10448 132.095 8.69987 129.771 10.409 127.761C11.1071 125.756 10.445 125.463 8.42271 126.89C7.09848 127.905 6.09248 129.394 5.4047 131.353C4.71693 133.311 4.6656 135.305 5.24046 137.336C5.81532 139.366 7.09848 141.134 9.08995 142.633C11.0763 144.133 14.0789 145.066 18.1029 145.426C22.1269 145.787 26.038 145.488 29.8413 144.519C33.6446 143.551 36.7191 142.412 39.0544 141.093C41.3898 139.773 43.3094 138.588 44.8184 137.537C46.3223 136.485 47.3745 135.754 47.9801 135.341C48.5806 134.929 49.6636 134.002 51.2291 132.548C51.999 129.766 51.4344 128.956 49.5302 130.116V130.121Z" fill="#2F3030"/>
<path d="M24.4058 154.403C24.2467 154.244 24.0208 154.089 23.718 153.929C23.4152 153.77 23.0816 153.692 22.7069 153.692C22.3322 153.692 21.978 153.754 21.6393 153.873C21.3005 153.991 21.008 154.177 20.7565 154.419C20.505 154.661 20.2945 154.965 20.1252 155.326C19.9558 155.687 19.8429 156.053 19.7813 156.413C19.7197 156.774 19.7197 157.119 19.7813 157.449C19.8429 157.774 19.9814 158.114 20.197 158.464C20.4126 158.815 20.6538 159.083 20.9207 159.263C21.1876 159.443 21.5418 159.619 21.9883 159.789C22.4349 159.959 22.8557 160.026 23.2509 159.99C23.6462 159.954 23.9387 159.876 24.1184 159.753C24.298 159.629 24.4417 159.464 24.5495 159.242C24.6573 159.026 24.724 158.861 24.7497 158.753C24.7753 158.645 24.724 158.531 24.606 158.408C24.4828 158.284 24.4058 158.093 24.3699 157.825C24.3339 157.557 24.3237 157.31 24.3339 157.083C24.3442 156.851 24.4058 156.625 24.5136 156.393C24.6214 156.161 24.7086 155.934 24.7651 155.702C24.8267 155.47 24.8215 155.238 24.7446 154.996C24.6727 154.754 24.5598 154.553 24.4007 154.398L24.4058 154.403Z" fill="#2F3030"/>
<path d="M62.7519 142.618C67.1609 142.36 70.1122 139.686 71.6006 134.584C72.1293 132.337 71.8419 130.703 70.7332 129.688C68.8085 129.106 67.8794 129.967 67.9513 132.265C68.0488 137.248 66.2319 139.629 62.4953 139.407V139.443C61.7254 139.33 61.1865 139.212 60.9042 139.083C60.5911 138.938 60.3036 138.701 60.0367 138.377C59.7698 138.052 59.6056 137.676 59.5286 137.253C59.4568 136.831 59.4311 136.341 59.4567 135.785C59.4824 135.228 59.6364 133.986 59.929 132.048C60.2164 130.116 60.4371 128.596 60.5808 127.498C60.7245 126.4 60.8631 125.401 60.9965 124.504C61.13 123.607 61.2891 122.185 61.4841 120.227C61.438 119.041 61.0427 118.5 60.3088 118.593C59.5748 118.691 59.0153 119.175 58.6304 120.041C57.7168 121.829 57.2086 123.18 57.1111 124.087C57.0136 124.994 56.8956 126.102 56.7518 127.405C56.6081 128.709 56.4439 129.956 56.2642 131.141C56.0846 132.327 55.9255 133.491 55.792 134.641C55.6586 135.79 55.6073 136.769 55.6278 137.578C55.6534 138.387 55.792 139.108 56.0435 139.737C56.295 140.366 56.6389 140.881 57.0752 141.278C57.5063 141.675 58.0761 142.015 58.7741 142.293C59.4721 142.571 60.7964 142.711 62.7468 142.711V142.618H62.7519Z" fill="#2F3030"/>
<path d="M69.9736 152.136C69.6348 151.992 69.2396 151.889 68.7828 151.827C68.326 151.765 67.7973 151.734 67.1917 151.734C64.5894 151.734 62.29 152.399 60.2934 153.728C59.3797 154.331 58.9229 154.939 58.9229 155.542C58.9229 156.388 59.3797 156.944 60.2934 157.212C60.4165 157.212 60.5757 157.202 60.781 157.176C60.9863 157.15 61.171 157.104 61.3404 157.032C62.4234 156.161 63.3627 155.604 64.1583 155.362C65 155.094 65.8674 154.945 66.7605 154.909C67.6536 154.872 68.4954 154.842 69.2909 154.816C70.8307 154.476 71.6006 153.991 71.6006 153.368C71.6006 152.909 71.0566 152.497 69.9736 152.136Z" fill="#2F3030"/>
<path d="M88.1073 135.965C87.9635 134.976 87.5786 134.424 86.9524 134.316C86.3262 134.208 85.6384 134.501 84.8942 135.202C83.8831 136.171 82.836 137.717 81.753 139.845C80.67 141.974 79.4074 143.587 77.96 144.69C76.5177 145.787 74.7572 147.209 72.6836 148.951C70.0095 151.44 70.4663 152.399 74.054 151.817C79.2534 149.348 82.5178 146.967 83.842 144.674C85.1662 142.376 86.1825 140.608 86.8959 139.361C87.6043 138.114 88.0097 136.985 88.1073 135.97V135.965Z" fill="#2F3030"/>
<path d="M100.754 123.35C100.97 123.7 101.211 123.968 101.478 124.148C101.745 124.329 102.099 124.504 102.545 124.674C102.992 124.844 103.413 124.911 103.808 124.875C104.203 124.839 104.496 124.762 104.675 124.638C104.855 124.519 104.999 124.349 105.107 124.128C105.214 123.911 105.281 123.746 105.307 123.638C105.332 123.53 105.281 123.417 105.163 123.293C105.04 123.174 104.963 122.979 104.927 122.711C104.891 122.443 104.881 122.195 104.891 121.969C104.901 121.737 104.963 121.51 105.071 121.278C105.178 121.046 105.266 120.819 105.322 120.587C105.384 120.356 105.379 120.124 105.302 119.881C105.23 119.639 105.117 119.438 104.958 119.284C104.799 119.129 104.573 118.969 104.27 118.81C103.967 118.655 103.634 118.573 103.259 118.573C102.884 118.573 102.53 118.634 102.191 118.753C101.853 118.877 101.56 119.057 101.308 119.299C101.057 119.541 100.847 119.845 100.677 120.206C100.508 120.567 100.395 120.933 100.333 121.293C100.272 121.654 100.272 121.999 100.333 122.329C100.395 122.659 100.533 122.994 100.749 123.344L100.754 123.35Z" fill="#2F3030"/>
<path d="M99.8508 134.311C99.2246 134.203 98.5368 134.496 97.7926 135.197C96.7814 136.166 95.7344 137.712 94.6514 139.84C93.5684 141.969 92.3058 143.582 90.8584 144.684C89.4161 145.782 87.6556 147.204 85.582 148.946C82.9079 151.435 83.3647 152.394 86.9524 151.811C92.1518 149.343 95.4162 146.962 96.7404 144.669C98.0646 142.371 99.0809 140.603 99.7943 139.356C100.503 138.109 100.908 136.98 101.006 135.965C100.862 134.976 100.477 134.424 99.8508 134.316V134.311Z" fill="#2F3030"/>
<path d="M72.74 93.8006C72.2576 93.8006 70.1173 95.3259 66.3088 98.3715C60.8887 103.061 56.1359 107.57 52.04 111.899C48.4061 114.996 45.1161 117.676 42.1802 119.948C36.9551 123.525 32.4127 125.797 28.5632 126.766L26.0328 127.349L23.0713 127.313C20.5409 127.096 18.0362 126.127 15.5571 124.411C14.0635 122.886 13.0267 121.716 12.4518 120.892L11.9437 121.366V121.69C12.303 123.865 13.7042 125.859 16.1319 127.673C17.8411 129.101 20.2021 130.162 23.2099 130.863L24.1492 130.935C28.3631 131.636 33.0133 130.657 38.0946 127.998C41.708 125.823 44.4745 123.973 46.4044 122.448C49.4121 119.933 52.7021 116.728 56.2642 112.837C59.8776 109.209 61.6689 107.41 61.6484 107.431C65.7648 103.489 68.9316 100.613 71.1489 98.7993C73.2944 96.8874 74.362 95.5475 74.362 94.7745V94.2644L73.8898 93.7954H72.7349L72.74 93.8006Z" fill="#2F3030"/>
<path d="M83.7907 84.808V83.6846C83.7907 81.9428 82.9232 80.9637 81.1884 80.7472H80.7573L80.1773 81.1801C79.9104 86.0139 79.6845 89.3533 79.4895 91.1878C79.1302 94.8364 78.5605 97.7789 77.7906 100C77.1644 102.273 76.0917 104.535 74.5775 106.782V107.179L74.6494 107.395L75.3731 107.792L76.7795 107.282C78.6837 106.071 80.2851 104.009 81.5836 101.098C82.8822 98.186 83.6162 92.7493 83.7855 84.7926L83.7907 84.808Z" fill="#2F3030"/>
<path d="M96.7609 95.9031C95.9653 95.4702 95.1954 95.2744 94.4512 95.3208C93.7018 95.3672 93.1372 95.5733 92.7523 95.9392C92.3673 96.2999 91.9413 96.8925 91.4691 97.7171C90.9969 98.5416 90.4991 99.6444 89.9704 101.036C89.4417 102.427 90.4888 103.618 93.1116 104.607C91.9773 107.462 90.7352 109.291 89.375 110.1C88.0149 110.91 85.9721 112.27 83.2517 114.182C80.6495 116.284 80.901 117.264 84.0114 117.119C88.5127 115.207 91.4845 113.522 92.9165 112.059C94.3486 110.595 95.3854 109.199 96.0218 107.869C96.6583 106.54 97.2536 105.225 97.808 103.932C98.3623 102.638 98.6189 101.546 98.583 100.649C98.5471 99.7578 98.4341 98.8508 98.2391 97.9284C98.0441 97.0111 97.5513 96.3308 96.7558 95.898L96.7609 95.9031Z" fill="#2F3030"/>
<path d="M128.26 58.5828C127.634 58.655 127.126 58.9075 126.741 59.3455C126.402 59.732 126.068 60.1031 125.73 60.4535C125.391 60.8039 125.032 61.1131 124.647 61.3759C123.251 62.5354 121.747 63.2363 120.13 63.4785C119.334 63.6022 118.554 63.664 117.779 63.6795C117.009 63.6898 116.26 63.6743 115.541 63.6228C114.72 63.5506 114.007 63.5094 113.391 63.4939C112.775 63.4836 112.267 63.4888 111.856 63.5146C108.843 63.8031 106.677 64.5658 105.353 65.7975C104.655 66.4726 103.777 67.663 102.715 69.3687C101.652 71.0745 100.97 73.4862 100.657 76.604C100.657 77.2069 100.693 77.7532 100.764 78.2376C100.836 79.0363 101.196 79.3868 101.847 79.2888C102.689 79.1909 103.279 78.8302 103.618 78.2015C103.788 77.3563 103.977 76.5267 104.198 75.7176C104.414 74.9085 104.629 74.0325 104.85 73.0894C105.281 72.2185 105.63 71.4455 105.897 70.7704C106.164 70.0953 106.533 69.5233 107.016 69.0647C107.596 68.4823 108.232 68.0134 108.93 67.6527C109.628 67.2919 110.362 67.0703 111.132 66.9982L111.892 66.89C112.446 66.89 113.088 66.9003 113.827 66.926C114.561 66.9518 115.387 67.0137 116.301 67.1064C117.025 67.1322 117.651 67.1425 118.179 67.1425C118.708 67.1425 119.165 67.1322 119.55 67.1064C119.745 67.0806 119.925 67.06 120.094 67.0343C120.263 67.0085 120.443 66.9724 120.638 66.926C122.732 66.3695 124.513 65.6429 125.986 64.7513C127.454 63.8547 128.609 62.757 129.456 61.4532C129.672 61.0667 129.82 60.7215 129.908 60.4174C129.99 60.1134 130.021 59.8454 130 59.6032C129.902 58.8044 129.328 58.4643 128.265 58.588L128.26 58.5828Z" fill="#2F3030"/>
<path d="M110.019 80.7472H109.587L109.007 81.1801C108.741 86.0139 108.515 89.3533 108.32 91.1878C107.96 94.8364 107.391 97.7789 106.621 100C105.995 102.273 104.922 104.535 103.408 106.782V107.179L103.48 107.395L104.203 107.792L105.61 107.282C107.514 106.071 109.115 104.009 110.414 101.098C111.712 98.186 112.446 92.7493 112.616 84.7926V83.6692C112.616 81.9273 111.748 80.9482 110.013 80.7318L110.019 80.7472Z" fill="#2F3030"/>
</g>
<defs>
<clipPath id="clip0_52_17">
<rect width="130" height="160" fill="white"/>
</clipPath>
</defs>
</svg>
