<svg width="238" height="289" viewBox="0 0 238 289" fill="none" xmlns="http://www.w3.org/2000/svg">
<g clip-path="url(#clip0_368_1409)" filter="url(#filter0_dd_368_1409)">
<path d="M117.338 131.349C116.466 131.349 115.803 130.041 115.54 128.223C115.858 129.386 116.23 131.14 117.338 131.349Z" fill="white"/>
<path d="M28.6274 17.5658C28.6638 17.3205 30.707 5.84309 59.5932 1.32666C46.7256 3.72573 30.7251 9.32355 28.6274 17.5658Z" fill="white"/>
<path d="M95.771 5.54327C94.4361 5.24338 90.7493 3.62583 85.8184 2.21729C89.1964 3.04424 92.7107 4.09837 95.8527 5.32517C109.138 8.72385 121.624 14.2944 128.417 31.1515C127.336 28.5525 119.191 10.823 95.771 5.53418V5.54327Z" fill="white"/>
<path d="M12.8354 41.3841C15.4053 31.3426 20.1001 21.7372 28.6271 17.5752C26.6293 18.8474 17.1307 25.9992 12.8354 41.3841Z" fill="white"/>
<path d="M73.714 0.072699C72.9966 0.0363495 72.2792 0.0181748 71.5527 0.0181748C72.0703 -0.0181748 72.8059 0 73.714 0.072699Z" fill="white"/>
<path d="M133.893 39.4756C135.99 43.6194 137.716 49.8079 136.917 59.6314C135.318 79.3147 130.851 87.9022 130.76 88.0567C130.887 87.7205 142.147 58.5682 133.884 39.4756H133.893Z" fill="white"/>
<path d="M9.80243 67.5376L9.87508 72.5538C9.866 72.1176 9.78427 70.2911 9.80243 67.5376Z" fill="white"/>
<path d="M103.935 153.722C103.935 153.722 103.908 153.786 103.898 153.804C103.908 153.786 103.926 153.749 103.944 153.713L103.935 153.722Z" fill="white"/>
<path d="M7.74131 101.406C4.53577 95.3903 4 84.5036 4 81.4866C4 74.2712 9.87532 72.5991 9.87532 72.5991C9.90256 74.253 12.3271 75.498 12.2363 72.0175C12.1455 68.537 14.9969 57.8503 15.3511 56.6871C15.7052 55.5239 18.3478 51.2529 18.2933 49.8261C17.6667 34.6775 30.6705 24.6087 32.9861 24.6995C33.0769 21.4917 43.4927 14.0945 46.344 13.204C49.1954 12.3134 51.6836 13.7401 53.4725 14.6307C55.2524 15.5213 61.3093 12.4043 67.6296 12.4043C75.8024 12.4043 84.1023 14.9397 88.7335 18.5565C92.5929 21.5644 93.3012 25.89 94.8812 24.7904C107.703 15.8757 108.775 24.8813 109.574 28.0891C110.373 31.297 127.654 37.8944 119.99 39.9391C112.335 41.9928 116.43 50.3623 118.392 53.2157C120.353 56.0692 119.554 64.6204 120.889 71.9266C122.224 79.2329 120.181 99.3705 120.38 97.9438C120.58 96.5171 127.037 89.8379 127.845 89.0291C128.653 88.2294 130.778 88.0477 130.778 88.0477L132.449 89.2926C133.729 89.8015 133.775 93.3274 133.847 95.9809C133.938 99.2797 133.847 101.86 133.711 103.196C132.776 112.484 127.4 120.926 126.964 122.843C126.746 123.816 126.437 124.688 126.065 125.46C126.065 125.46 126.029 125.524 125.974 125.651C125.974 125.651 125.974 125.66 125.974 125.669C125.938 125.742 125.901 125.824 125.856 125.897C125.03 127.296 121.951 129.304 118.755 129.304C117.729 129.304 119.145 127.051 118.846 125.915C118.155 123.316 116.884 120.499 116.884 120.499C115.54 122.78 115.222 125.897 115.558 128.205C115.377 127.541 115.213 127.069 114.95 127.187C114.423 127.423 112.017 134.366 109.856 140.146C110.673 137.147 100.72 137.02 97.9233 139.555C95.1173 142.099 88.3067 154.922 87.3441 156.794C86.3816 158.666 80.5516 156.53 80.0249 152.386C79.4892 148.242 72.9419 144.898 74.5492 146.234C76.1565 147.57 77.0918 156.53 74.5492 154.922C72.0156 153.313 66.9394 155.322 63.0619 157.457C59.1844 159.593 49.8402 159.193 49.2862 154.513C48.7414 149.833 46.0989 151.041 41.958 150.769C37.8171 150.505 28.8634 148.633 29.5445 146.761C30.2346 144.889 37.1451 140.482 39.2701 139.546C41.395 138.61 55.1797 139.273 57.5861 139.546C59.9926 139.818 61.4637 134.066 62.9257 134.066C64.3877 134.066 64.9326 131.931 62.9257 131.322C62.9257 131.322 59.5385 130.14 57.8041 131.876C56.0696 133.612 48.3691 130.268 46.7164 130.404C45.0727 130.54 38.4346 126.969 35.7194 127.06C33.0043 127.151 29.5263 137.928 28.1097 139.537C26.684 141.145 27.1744 151.296 25.5307 151.432C23.8871 151.568 25.1766 139.264 23.4784 139.537C21.7894 139.809 18.4022 139.582 17.3761 141.454C16.35 143.326 18.5385 151.968 18.3114 154.022C18.2933 154.158 18.2933 154.376 18.3114 154.667C17.9482 154.213 17.6576 153.913 17.6576 153.913C16.9311 153.404 16.2773 152.759 15.6961 152.059C15.1059 151.359 14.5792 150.614 14.107 149.905C13.2352 148.606 12.2545 142.763 10.965 137.81C9.67554 132.858 8.02282 129.586 7.75948 127.251C7.40532 124.125 8.12271 102.069 7.75948 101.388L7.74131 101.406ZM24.7044 56.5144C24.2594 56.6053 14.9515 57.7594 13.998 63.1937C11.1376 79.5055 18.0572 80.9868 19.0379 81.3503C12.9537 78.9875 13.5712 67.9009 14.8153 63.3754C16.0594 58.8317 24.9768 56.4599 24.7044 56.5144ZM23.9052 64.1842C22.3706 66.0562 22.5068 69.2004 21.0357 69.464C19.5646 69.7275 17.2308 70.0456 17.8301 68.9551C18.4295 67.8646 20.8359 64.1842 21.7712 64.1842C22.7066 64.1842 19.9641 61.5125 16.8948 66.5924C16.0594 67.9736 15.2239 66.7196 15.0877 66.9195C14.9515 67.1285 14.216 70.2637 15.0877 70.2637C15.9595 70.2637 18.6928 70.3364 19.4919 71.336C20.2911 72.3356 18.1571 76.4794 17.8846 77.2791C17.6213 78.0788 20.6906 73.5987 21.7622 73.5987C22.8337 73.5987 23.5693 77.8789 23.6328 79.2147C23.6964 80.5506 29.608 79.2147 31.969 79.2147C34.3301 79.2147 28.2459 78.1424 28.1097 74.7346C28.037 72.9263 24.1686 73.735 23.6328 73.5987C23.097 73.4624 23.1697 72.1993 23.1697 72.1993C23.1697 72.1993 28.2368 64.784 30.053 64.1115C33.5582 62.812 38.5981 62.1759 43.9467 68.4553C44.6187 69.2459 42.2213 70.4636 41.9489 70.5908C41.6765 70.7271 41.74 72.4446 42.9478 71.8176C44.1465 71.1906 46.7527 69.1186 46.7527 69.7275C46.7527 70.3364 45.7538 71.9993 45.8809 73.3352C46.0171 74.671 47.8151 74.2712 48.3509 72.1993C48.8867 70.1273 51.0933 62.812 45.8809 60.2766C42.8842 58.8136 39.7786 56.5144 32.187 55.8238C29.2448 55.5603 36.3914 56.7598 38.2621 58.1593C40.1327 59.5587 31.851 60.1221 30.5797 60.2766C29.3084 60.4311 25.4399 62.3031 23.9052 64.1751V64.1842ZM35.6286 71.336C39.5425 71.336 43.1839 69.6185 43.3201 68.946C43.4473 68.2735 40.0056 65.5564 37.8898 64.7749C35.8102 64.0024 33.4946 63.5572 31.2971 64.3023C30.8249 64.4659 31.7148 71.336 35.6286 71.336ZM32.523 53.9518C31.3243 54.4153 30.2528 54.8878 32.2596 55.0241L34.2665 55.1604C34.3392 55.1786 34.4481 55.2059 34.5843 55.2331C36.3097 55.6239 42.7843 56.9416 46.6255 59.2316C47.7243 59.8859 49.8947 61.8396 49.8947 63.639C49.8947 63.639 52.6371 64.0388 52.8369 63.639C53.0366 63.2391 54.644 60.631 53.2364 58.2956C53.2364 58.2956 50.9662 58.2956 50.83 57.4959C50.6938 56.6962 48.0876 57.4959 49.1591 56.8961C50.2307 56.2963 50.494 55.842 52.1013 54.3335C53.7086 52.8159 48.696 55.8238 47.2249 55.3603C45.7538 54.8969 42.748 53.1521 41.0136 53.2248C39.2791 53.2884 33.7307 53.4883 32.5321 53.9609L32.523 53.9518ZM85.8821 75.2072C88.116 75.2072 89.8232 74.2894 90.0593 69.6185C91.7574 71.6086 93.0923 74.4711 93.0923 74.4711C93.0923 74.4711 93.8914 75.0709 95.0992 75.4071C96.2979 75.7433 98.2412 79.0875 99.7758 79.8145C101.31 80.5415 102.382 80.4052 101.31 79.4237C96.4976 75.0164 96.0345 70.2637 95.9891 69.1368C95.9437 68.01 93.6281 65.5837 92.5656 64.9839C91.5032 64.3841 87.1171 64.0297 88.4247 64.3841C93.0287 65.6382 94.745 69.4003 95.3716 70.9997C95.9982 72.6082 94.6996 72.7354 94.2365 71.336C93.7734 69.9365 88.2885 65.6564 86.091 65.1838C83.8843 64.7204 76.0021 67.7919 73.4686 69.1368C70.9259 70.4818 69.7999 70.4 72.2699 67.801C74.2314 65.7381 79.0533 64.2932 80.5607 63.9025C80.7423 63.8752 80.8695 63.848 80.9512 63.8207C81.1147 63.7662 80.9512 63.8025 80.5607 63.9025C79.0079 64.1478 74.0497 64.584 70.4719 66.2289C66.4854 68.0645 65.7952 70.4636 65.7226 71.8176C65.659 73.1807 72.1337 72.4628 73.4686 71.8176C74.8035 71.1724 76.4743 69.1913 77.9454 68.7915C78.6719 68.5916 80.8059 68.0918 83.0489 67.8373C82.5585 69.991 81.8139 75.2163 85.8912 75.2163L85.8821 75.2072ZM95.8529 64.4477C94.2456 63.8207 85.9638 58.8317 84.9014 57.1415C83.8298 55.4512 79.1986 54.9151 75.0123 54.3789C70.826 53.8428 67.1755 58.1229 66.1948 59.4588C65.2141 60.7946 62.9893 62.4031 62.5443 62.9301C62.5443 62.9301 61.836 64.0024 62.0085 64.1751C62.1811 64.3478 66.1948 66.2289 66.1948 66.2289C70.4537 60.2766 83.6482 61.8578 85.6097 61.776C87.5711 61.6943 97.4511 65.0748 95.8529 64.4477ZM97.6055 39.4211L98.0232 39.6301C98.0777 39.6574 98.1231 39.6664 98.1776 39.6664C98.3047 39.6664 98.4319 39.5937 98.4863 39.4756C98.5681 39.3029 98.5045 39.0939 98.332 39.0031L97.9142 38.7941C86.5904 33.1144 79.3711 29.7521 77.0373 29.0796C75.1395 28.5253 71.9702 28.7525 68.3016 29.016C64.7055 29.2705 60.6282 29.5613 57.3591 29.0706C51.7653 28.2345 48.0331 29.0706 45.89 29.9066C43.5381 30.8335 42.521 31.9603 42.4847 32.0058C42.3575 32.1512 42.3757 32.3693 42.5119 32.4965C42.6572 32.6237 42.8752 32.6055 43.0023 32.4692C43.0114 32.4601 43.9739 31.3969 46.1897 30.5336C48.251 29.7339 51.838 28.9524 57.2502 29.7612C60.5919 30.261 64.7055 29.9702 68.347 29.7067C71.7977 29.4613 75.0577 29.2341 76.8466 29.7521C79.1078 30.4064 86.4814 33.8414 97.6055 39.4211ZM65.8497 68.4553C68.4559 66.2289 68.6557 63.7116 80.2066 63.1755L90.0956 63.8207C90.0956 63.8207 81.6777 62.9029 81.1419 62.8393C80.6061 62.7757 71.9248 62.6393 68.7193 64.9112C65.5137 67.183 66.3129 67.5829 65.7135 67.5829C65.1142 67.5829 61.5726 64.9748 59.5022 64.5113C57.4318 64.0479 50.9571 64.6204 50.0854 65.202C49.2136 65.7836 54.6894 64.7567 57.0322 65.202C59.366 65.6473 65.5137 67.7192 65.8497 68.4553ZM36.3823 39.3211C36.3823 39.512 36.5367 39.6664 36.7274 39.6664C38.1259 39.6664 41.1498 38.585 44.0738 37.5309C45.7629 36.9221 47.352 36.3586 48.4417 36.0678C50.3759 35.5589 54.4623 35.6407 60.601 36.3223C61.5817 36.4313 63.2708 36.3495 65.2231 36.2496C68.1653 36.1042 71.8249 35.9224 74.6128 36.3223C77.5913 36.7494 81.9864 38.5396 85.5098 39.9845C87.3895 40.7569 89.015 41.4203 89.9322 41.6566C89.9594 41.6566 89.9957 41.6657 90.023 41.6657C90.1774 41.6657 90.3226 41.5657 90.359 41.4021C90.4044 41.2113 90.2954 41.0205 90.1138 40.975C89.242 40.7478 87.6347 40.0845 85.7731 39.3302C82.2134 37.8762 77.782 36.0588 74.7126 35.6226C71.8522 35.2136 68.1563 35.3954 65.1868 35.5499C63.2617 35.6498 61.5999 35.7316 60.6736 35.6226C58.358 35.3681 51.2931 34.5775 48.2601 35.3863C47.1432 35.6862 45.5358 36.2587 43.8377 36.8675C41.1044 37.849 38.0078 38.9576 36.7274 38.9576C36.5367 38.9576 36.3823 39.1121 36.3823 39.3029V39.3211ZM98.3683 34.4775C98.2593 34.4048 87.8254 27.4712 80.6424 25.3447C76.2746 24.0452 70.5536 24.0634 63.9337 24.0816C59.5749 24.0907 54.6349 24.0998 49.4497 23.7272C46.9071 23.5454 43.638 24.3451 41.4767 24.8722C40.4324 25.1266 39.4517 25.372 39.1883 25.3356C38.9976 25.3084 38.8251 25.4447 38.7979 25.6355C38.7706 25.8264 38.9068 25.999 39.0975 26.0263C39.4789 26.0808 40.2326 25.8991 41.6492 25.5537C43.7651 25.0358 46.9706 24.2452 49.4043 24.4269C54.6167 24.7995 59.5658 24.7904 63.9428 24.7813C70.5082 24.7631 76.1837 24.754 80.4518 26.0172C87.5348 28.1164 97.887 34.9955 97.9869 35.0591C98.0505 35.0955 98.114 35.1137 98.1776 35.1137C98.2866 35.1137 98.4046 35.0591 98.4682 34.9592C98.5771 34.7956 98.5317 34.5866 98.3683 34.4775ZM125.211 119.308C129.252 115.746 132.721 104.132 132.721 104.132C132.721 104.132 131.15 106.359 130.433 107.486C129.724 108.612 128.235 107.84 127.136 107.904C126.038 107.967 126.601 109.921 127.518 110.157C128.435 110.394 128.944 111.193 128.617 112.475C128.29 113.756 123.895 115.028 124.221 115.619C124.548 116.209 125.62 116.573 125.647 117.1C125.674 117.636 123.749 117.364 123.749 117.364C123.749 117.364 121.17 122.861 125.202 119.29L125.211 119.308ZM124.085 105.286C124.957 106.686 124.421 107.022 124.421 107.022C124.421 107.022 125.82 107.695 126.555 107.022C127.291 106.35 129.697 106.622 129.561 106.022C129.425 105.423 129.761 102.615 128.163 103.414C126.555 104.214 123.822 104.214 124.085 103.478C124.349 102.742 124.548 100.67 125.956 99.734C127.354 98.798 130.033 96.6625 129.961 94.9177C129.897 93.182 128.626 94.4543 127.155 96.2536C125.684 98.0529 124.149 100.061 124.149 100.061V98.0529C124.149 98.0529 126.419 95.9173 126.755 95.1086C127.091 94.3089 125.684 94.3089 124.548 95.5084C123.413 96.7079 122.878 96.5807 122.878 99.2524C122.878 101.924 123.214 103.86 124.076 105.268L124.085 105.286ZM118.546 119.39C119.145 119.854 119.881 117.182 120.48 116.446C121.08 115.71 121.016 116.646 121.615 115.573C122.215 114.501 122.687 112.629 122.151 112.629H121.615C121.615 112.629 120.68 114.837 120.344 115.373C120.008 115.91 119.745 114.837 119.345 115.373C118.946 115.91 117.947 118.917 118.546 119.381V119.39ZM102.046 85.6577C102.382 84.9125 103.78 81.7774 104.58 76.743C104.643 76.3431 107.295 76.2977 107.567 76.6975C107.84 77.0974 108.684 78.0334 109.129 76.5158C110.001 77.0792 111.49 77.688 113.27 78.8785C116.548 81.0776 120.498 84.1946 121.207 85.0306L121.261 83.5585C121.261 83.5585 114.414 77.4063 112.471 76.4703C109.756 75.1618 108.63 73.7169 107.93 75.6706C107.74 76.2068 106.06 75.3617 105.433 75.3617C104.807 75.3617 101.646 70.3727 100.757 69.4821C99.8666 68.5916 97.7326 67.3012 97.0606 66.9468C96.3887 66.5924 100.266 69.8002 101.202 70.9089C102.137 72.0266 103.208 72.8717 103.118 75.498C103.027 78.1242 102.673 80.9868 101.737 83.5676C100.802 86.1484 99.8212 89.4471 92.3386 92.5186C90.9855 93.073 84.9468 93.1457 83.1669 93.0094C81.3871 92.8731 71.8158 89.4471 70.8624 88.7747C69.8998 88.1022 73.9135 93.0094 85.2646 93.8999C87.3532 94.0635 97.996 94.527 102.055 85.6577H102.046ZM86.4179 120.853C77.2462 111.002 74.5583 104.441 72.3879 100.625C70.5899 97.4622 70.2539 94.8723 70.2539 94.8723H73.7228C73.7228 94.8723 70.9168 92.0643 70.2539 91.0828C69.582 90.1014 66.0495 85.376 65.6227 84.3764C65.1959 83.3767 65.6227 83.4222 66.8214 83.9492C64.3241 78.9603 64.415 72.7172 64.415 72.7172C64.415 72.7172 61.391 71.4268 61.3456 71.9176C61.3002 72.4083 61.4364 75.6616 62.3718 78.9603C63.3071 82.259 65.7589 86.4483 66.6943 88.0658C67.6296 89.6834 68.2652 93.4819 67.675 92.3733C66.3855 89.9651 63.2708 89.8742 61.3547 90.056C59.4386 90.2377 60.6827 92.3278 61.3547 91.9734C62.0267 91.619 64.2061 91.7462 65.3594 92.1097C66.5126 92.4732 67.8929 96.3444 67.8929 96.3444C69.6365 101.661 65.314 104.423 65.6772 105.186C65.1142 105.505 64.4785 105.296 64.3786 104.132C64.2424 102.651 62.2446 101.742 60.3286 101.788C58.4852 101.833 56.4964 102.606 54.4896 104.814C52.4827 107.022 46.8798 104.814 47.6426 105.75C48.4145 106.686 54.3715 112.438 57.7587 112.102C63.5159 111.529 65.7408 106.931 66.1494 105.323C68.5195 105.841 70.0814 107.858 71.5798 109.894C73.7955 112.911 75.4391 116.137 75.539 115.955C75.7206 115.646 75.539 113.865 76.1656 114.392C76.7922 114.919 81.823 122.907 84.2203 123.834C86.6267 124.77 88.5065 123.107 86.3997 120.844L86.4179 120.853ZM46.344 114.619C46.6982 115.691 48.3055 116.846 49.5496 116.846C50.7937 116.846 53.7631 114.437 53.7631 112.32C53.7631 112.32 48.7777 108.403 48.0422 107.84C46.2805 106.504 45.9899 113.547 46.3531 114.61L46.344 114.619ZM29.5354 127.096C30.2255 126.051 32.0144 123.707 34.0576 123.534C36.1099 123.352 45.6357 123.534 46.8798 123.534C48.1239 123.534 50.7119 126.115 52.7551 125.933C54.8074 125.76 59.4296 124.597 60.2378 124.906C61.0369 125.224 66.4763 128.959 67.457 129.495C68.4378 130.031 68.0745 131.367 68.9645 132.612C69.8544 133.857 71.725 135.556 72.5242 135.556C73.3233 135.556 76.2655 140.282 79.7344 139.473C81.1237 139.155 70.8533 135.729 74.0316 129.223C74.8216 127.605 77.1463 127.696 77.6821 127.787C78.2179 127.887 81.5959 131.358 82.4949 132.603C83.3849 133.848 82.6766 130.286 81.6958 128.95C80.7151 127.614 75.3755 118.79 75.993 121.735C76.329 123.307 76.9738 126.814 74.5674 126.551C72.1609 126.287 68.6012 120.608 66.9939 120.508C65.3866 120.408 68.5104 122.725 66.9939 122.989C65.4774 123.252 58.0039 119.963 56.2149 118.708C54.4351 117.464 52.5644 117.191 49.0865 119.435C48.0331 120.117 47.2158 116.209 45.1726 116.037C43.1203 115.864 36.5458 117.473 31.9963 120.944C31.1881 121.562 27.9916 120.944 27.2742 122.28C26.5569 123.616 28.0734 128.605 25.4036 130.386C22.7338 132.167 21.635 132.967 20.845 133.594C20.055 134.221 25.222 133.639 29.5172 127.087L29.5354 127.096ZM41.9398 102.478C41.8036 100.943 39.9784 99.6522 38.7979 98.9343C38.3801 98.6799 37.2087 98.7072 36.7274 99.2342C36.4641 99.5159 36.5821 100.034 36.6638 100.47C36.8364 101.361 38.3347 102.942 38.7979 103.278C39.261 103.614 42.067 104.014 41.9398 102.478ZM18.2933 116.037C23.769 116.309 25.3854 116.309 24.7134 118.045C24.0778 119.672 28.6091 111.211 29.4082 107.604C29.49 107.649 29.5354 107.667 29.5354 107.667C29.5354 107.667 34.5026 101.243 35.4833 99.6341C35.22 99.1888 35.3925 97.7621 35.665 96.1627C35.9283 94.5542 40.4778 92.0643 41.0045 90.6376C41.5403 89.2108 41.0045 87.7841 41.0045 87.7841C41.6311 86.4483 43.5835 85.2851 44.6096 83.3313C45.6357 81.3684 46.2532 80.4324 46.2532 80.4324C52.1286 74.2348 50.5031 70.1001 49.9946 71.6631C48.1511 77.2791 44.4916 80.7596 37.6173 83.7857C33.0497 85.794 22.0346 83.3404 22.0346 83.3404C28.0915 87.2571 37.9715 85.1215 39.2519 84.6762C40.5323 84.231 44.2918 81.6683 43.2293 83.0678C41.5403 85.2942 34.321 87.7023 31.4787 88.0749C28.6273 88.4475 26.7566 89.3108 28.8089 89.4017C30.8612 89.4925 36.3823 88.9564 38.2439 88.602C40.1146 88.2476 39.5788 90.8284 37.4448 91.8098C35.3108 92.7913 32.4412 95.254 30.5252 98.0347C28.0643 101.588 27.6647 103.914 27.9462 105.386C27.4286 105.577 26.9927 105.886 26.9927 105.886C26.9927 105.886 15.9686 109.821 13.3351 107.322C10.7017 104.823 12.8357 115.764 18.3114 116.046L18.2933 116.037ZM8.58583 93.2275C8.58583 93.2275 7.6051 84.231 9.1216 82.7134C10.6381 81.1958 9.38495 76.743 8.27708 76.2068C7.16922 75.6706 4.84452 77.4518 5.65272 84.7217C6.45183 91.9825 8.59491 93.2365 8.59491 93.2365L8.58583 93.2275Z" fill="white"/>
<path d="M22.0344 156.548C23.3692 156.548 34.457 171.115 38.0621 173.66C41.6672 176.204 45.6718 175.795 44.4732 174.196C43.2745 172.597 29.7803 161.501 31.1334 160.156C32.4864 158.82 33.2492 160.829 34.9927 162.564C36.7272 164.3 46.8796 170.316 51.8468 171.388C56.814 172.46 59.9742 168.98 61.9901 169.916C64.0061 170.852 62.9073 174.996 64.115 177.667C65.3137 180.339 78.9441 166.708 81.0055 165.372C83.0759 164.036 91.0943 159.756 92.1658 156.548C93.2374 153.341 103.88 153.859 103.88 153.859C100.438 161.201 95.7709 170.688 93.3645 173.614C89.269 178.603 73.1868 200.168 67.0663 202.312C65.7768 202.767 64.3784 203.067 62.9799 203.258C63.1252 201.631 62.7892 199.395 62.3806 196.524C61.5815 190.908 55.1159 176.831 46.9704 175.496C46.9704 175.496 56.814 181.829 56.7686 197.778C56.7686 200.104 56.9684 202.094 57.4134 203.566C54.5257 203.521 52.4098 203.212 52.4098 203.212C52.4098 203.212 45.2904 197.714 38.6342 192.035C38.9883 191.489 39.2698 190.962 39.2607 190.644C39.2517 189.845 30.3252 179.948 28.1821 178.613C26.0481 177.277 20.6995 156.557 22.0344 156.557V156.548ZM32.9859 179.848C34.8565 181.457 41.8942 188.581 44.8273 190.008C47.7695 191.435 50.3485 192.862 50.0851 192.016C49.8218 191.171 44.8273 181.184 44.8273 181.184C45.808 189.563 42.2756 186.528 41.086 185.728C34.7476 181.475 28.8904 170.843 28.7088 171.379C28.5272 171.915 31.1152 178.24 32.9859 179.848Z" fill="white"/>
<path d="M125.965 125.669C125.965 125.669 125.965 125.669 125.965 125.678C125.965 125.678 125.965 125.669 125.965 125.66C126.019 125.533 126.047 125.478 126.056 125.469C126.028 125.533 125.992 125.596 125.965 125.66V125.669Z" fill="white"/>
<path d="M80.9422 63.8206C80.8605 63.8479 80.7243 63.8751 80.5518 63.9024C80.9422 63.8024 81.1148 63.7752 80.9422 63.8206Z" fill="white"/>
<path d="M91.6305 228.311C88.4794 231.037 83.603 234.427 76.9922 238.48C69.6185 243.387 61.2823 246.368 51.9744 247.431C42.6665 248.494 35.1112 248.104 29.3176 246.25C23.5241 244.396 20.1641 241.133 19.256 236.463C18.3389 231.792 19.3923 227.693 22.4162 224.149C23.6512 220.614 22.4798 220.096 18.9019 222.613C16.559 224.404 14.7792 227.03 13.5624 230.483C12.3455 233.936 12.2547 237.453 13.2718 241.034C14.2888 244.614 16.559 247.731 20.0824 250.375C23.5967 253.02 28.909 254.665 36.0284 255.301C43.1478 255.937 50.0674 255.41 56.7963 253.701C63.5252 251.993 68.9647 249.985 73.0965 247.658C77.2283 245.332 80.6245 243.242 83.2943 241.388C85.955 239.534 87.8165 238.244 88.8881 237.517C89.9505 236.79 91.8666 235.154 94.6363 232.591C95.9984 227.684 94.9995 226.257 91.6305 228.302V228.311Z" fill="white"/>
<path d="M47.1796 271.131C46.8981 270.849 46.4985 270.577 45.9628 270.295C45.427 270.013 44.8367 269.877 44.1738 269.877C43.5109 269.877 42.8843 269.986 42.285 270.195C41.6857 270.404 41.1681 270.731 40.7231 271.158C40.2781 271.585 39.9058 272.122 39.6062 272.758C39.3065 273.394 39.1067 274.039 38.9977 274.675C38.8888 275.311 38.8888 275.92 38.9977 276.502C39.1067 277.074 39.3519 277.674 39.7333 278.292C40.1147 278.91 40.5415 279.382 41.0137 279.7C41.4859 280.018 42.1125 280.327 42.9025 280.627C43.6925 280.927 44.4372 281.045 45.1364 280.982C45.8356 280.918 46.3532 280.782 46.6711 280.564C46.9889 280.346 47.2432 280.055 47.4339 279.664C47.6246 279.282 47.7426 278.992 47.788 278.801C47.8334 278.61 47.7426 278.41 47.5337 278.192C47.3158 277.974 47.1796 277.638 47.116 277.165C47.0525 276.692 47.0343 276.256 47.0525 275.856C47.0706 275.448 47.1796 275.048 47.3703 274.639C47.561 274.23 47.7154 273.83 47.8153 273.421C47.9242 273.012 47.9151 272.603 47.7789 272.176C47.6518 271.749 47.452 271.395 47.1705 271.122L47.1796 271.131Z" fill="white"/>
<path d="M115.023 250.339C122.823 249.885 128.045 245.169 130.678 236.172C131.613 232.21 131.105 229.329 129.143 227.539C125.738 226.512 124.094 228.03 124.222 232.083C124.394 240.87 121.179 245.069 114.569 244.678V244.742C113.206 244.542 112.253 244.333 111.754 244.105C111.2 243.851 110.691 243.433 110.219 242.86C109.747 242.288 109.456 241.625 109.32 240.879C109.193 240.134 109.147 239.271 109.193 238.29C109.238 237.308 109.511 235.118 110.028 231.701C110.537 228.293 110.927 225.613 111.181 223.677C111.436 221.741 111.681 219.978 111.917 218.397C112.153 216.816 112.435 214.308 112.78 210.855C112.698 208.765 111.999 207.81 110.7 207.974C109.402 208.147 108.412 209.001 107.731 210.528C106.114 213.681 105.215 216.062 105.043 217.661C104.87 219.261 104.661 221.214 104.407 223.513C104.153 225.813 103.862 228.012 103.544 230.102C103.227 232.192 102.945 234.246 102.709 236.272C102.473 238.299 102.382 240.025 102.418 241.452C102.464 242.879 102.709 244.151 103.154 245.26C103.599 246.368 104.207 247.277 104.979 247.977C105.742 248.676 106.75 249.276 107.985 249.767C109.22 250.258 111.563 250.503 115.014 250.503V250.339H115.023Z" fill="white"/>
<path d="M127.8 267.133C127.2 266.878 126.501 266.696 125.693 266.587C124.885 266.478 123.949 266.424 122.878 266.424C118.274 266.424 114.206 267.596 110.673 269.941C109.057 271.004 108.249 272.076 108.249 273.139C108.249 274.63 109.057 275.611 110.673 276.084C110.891 276.084 111.173 276.066 111.536 276.02C111.899 275.975 112.226 275.893 112.526 275.766C114.442 274.23 116.103 273.248 117.511 272.821C119 272.349 120.535 272.085 122.115 272.022C123.695 271.958 125.184 271.904 126.592 271.858C129.316 271.258 130.678 270.404 130.678 269.305C130.678 268.496 129.716 267.769 127.8 267.133Z" fill="white"/>
<path d="M159.882 238.608C159.628 236.863 158.947 235.89 157.839 235.7C156.731 235.509 155.514 236.027 154.197 237.263C152.409 238.971 150.556 241.697 148.64 245.45C146.724 249.204 144.49 252.048 141.929 253.993C139.378 255.928 136.263 258.436 132.594 261.508C127.863 265.897 128.671 267.587 135.019 266.56C144.218 262.208 149.993 258.009 152.336 253.965C154.679 249.912 156.477 246.795 157.739 244.596C158.992 242.397 159.71 240.407 159.882 238.617V238.608Z" fill="white"/>
<path d="M182.258 216.361C182.639 216.979 183.066 217.452 183.538 217.77C184.01 218.088 184.637 218.397 185.427 218.697C186.217 218.997 186.961 219.115 187.661 219.051C188.36 218.988 188.877 218.851 189.195 218.633C189.513 218.424 189.767 218.124 189.958 217.734C190.149 217.352 190.267 217.061 190.312 216.87C190.358 216.68 190.267 216.48 190.058 216.262C189.84 216.053 189.704 215.707 189.64 215.235C189.577 214.762 189.559 214.326 189.577 213.926C189.595 213.517 189.704 213.117 189.895 212.708C190.085 212.299 190.24 211.9 190.339 211.491C190.448 211.082 190.439 210.673 190.303 210.246C190.176 209.819 189.976 209.464 189.695 209.192C189.413 208.919 189.014 208.637 188.478 208.356C187.942 208.083 187.352 207.938 186.689 207.938C186.026 207.938 185.399 208.047 184.8 208.256C184.201 208.474 183.683 208.792 183.238 209.219C182.793 209.646 182.421 210.182 182.121 210.818C181.822 211.454 181.622 212.1 181.513 212.736C181.404 213.372 181.404 213.981 181.513 214.562C181.622 215.144 181.867 215.734 182.248 216.352L182.258 216.361Z" fill="white"/>
<path d="M180.659 235.7C179.551 235.509 178.335 236.027 177.018 237.263C175.229 238.971 173.376 241.697 171.46 245.45C169.544 249.204 167.31 252.048 164.75 253.993C162.198 255.928 159.083 258.436 155.414 261.508C150.683 265.897 151.491 267.587 157.839 266.56C167.038 262.208 172.813 258.009 175.156 253.965C177.499 249.912 179.297 246.795 180.559 244.596C181.812 242.397 182.53 240.407 182.702 238.617C182.448 236.872 181.767 235.9 180.659 235.709V235.7Z" fill="white"/>
<path d="M132.694 164.263C131.841 164.263 128.054 166.953 121.316 172.324C111.726 180.594 103.318 188.545 96.071 196.178C89.6418 201.64 83.8209 206.365 78.6267 210.373C69.3824 216.679 61.3458 220.687 54.5352 222.395L50.0583 223.422L44.8186 223.359C40.3418 222.977 35.9103 221.269 31.5243 218.243C28.8817 215.553 27.0474 213.49 26.0304 212.036L25.1313 212.872V213.444C25.767 217.279 28.2461 220.796 32.5413 223.995C35.5653 226.512 39.7424 228.384 45.0638 229.62L46.7256 229.747C54.181 230.983 62.4083 229.256 71.3983 224.567C77.7912 220.732 82.6858 217.47 86.1002 214.78C91.4216 210.346 97.2425 204.693 103.545 197.832C109.937 191.435 113.107 188.263 113.07 188.3C120.353 181.348 125.956 176.277 129.879 173.078C133.675 169.707 135.564 167.344 135.564 165.981V165.081L134.728 164.254H132.685L132.694 164.263Z" fill="white"/>
<path d="M152.245 148.397V146.416C152.245 143.345 150.711 141.618 147.641 141.236H146.879L145.853 142C145.38 150.524 144.981 156.412 144.636 159.647C144 166.081 142.992 171.27 141.63 175.187C140.522 179.194 138.624 183.184 135.945 187.146V187.846L136.072 188.227L137.353 188.927L139.841 188.027C143.21 185.892 146.043 182.257 148.341 177.122C150.638 171.988 151.937 162.401 152.236 148.37L152.245 148.397Z" fill="white"/>
<path d="M175.193 167.971C173.785 167.208 172.423 166.863 171.106 166.944C169.781 167.026 168.782 167.39 168.101 168.035C167.419 168.671 166.666 169.716 165.83 171.17C164.995 172.624 164.114 174.569 163.179 177.022C162.243 179.476 164.096 181.575 168.736 183.32C166.729 188.354 164.532 191.58 162.125 193.007C159.719 194.434 156.105 196.833 151.292 200.204C146.688 203.912 147.133 205.638 152.636 205.384C160.6 202.013 165.858 199.041 168.391 196.46C170.925 193.879 172.759 191.417 173.885 189.072C175.011 186.728 176.064 184.41 177.045 182.129C178.026 179.848 178.48 177.922 178.416 176.341C178.353 174.769 178.153 173.169 177.808 171.543C177.463 169.925 176.591 168.725 175.184 167.962L175.193 167.971Z" fill="white"/>
<path d="M230.922 102.161C229.814 102.288 228.915 102.733 228.234 103.505C227.635 104.187 227.044 104.841 226.445 105.459C225.846 106.077 225.21 106.622 224.529 107.086C222.059 109.131 219.398 110.366 216.538 110.794C215.13 111.012 213.75 111.121 212.379 111.148C211.017 111.166 209.691 111.139 208.419 111.048C206.967 110.921 205.704 110.848 204.615 110.821C203.525 110.803 202.626 110.812 201.899 110.857C196.569 111.366 192.737 112.711 190.394 114.883C189.159 116.073 187.606 118.173 185.726 121.18C183.847 124.188 182.639 128.441 182.085 133.939C182.085 135.002 182.149 135.966 182.276 136.82C182.403 138.228 183.038 138.846 184.192 138.674C185.681 138.501 186.725 137.865 187.325 136.756C187.624 135.266 187.96 133.803 188.351 132.376C188.732 130.949 189.114 129.405 189.504 127.742C190.267 126.206 190.884 124.843 191.357 123.652C191.829 122.462 192.483 121.453 193.336 120.644C194.362 119.617 195.488 118.79 196.723 118.154C197.958 117.518 199.257 117.127 200.619 117L201.963 116.809C202.944 116.809 204.079 116.828 205.386 116.873C206.685 116.918 208.147 117.027 209.763 117.191C211.044 117.236 212.152 117.255 213.087 117.255C214.022 117.255 214.831 117.236 215.512 117.191C215.857 117.146 216.174 117.109 216.474 117.064C216.774 117.018 217.092 116.955 217.437 116.873C221.142 115.892 224.293 114.61 226.899 113.038C229.496 111.457 231.539 109.521 233.038 107.222C233.419 106.541 233.682 105.932 233.837 105.396C233.982 104.859 234.037 104.387 234 103.96C233.828 102.551 232.811 101.952 230.931 102.17L230.922 102.161Z" fill="white"/>
<path d="M198.648 141.236H197.885L196.859 142C196.387 150.524 195.988 156.412 195.643 159.647C195.007 166.081 193.999 171.27 192.637 175.187C191.529 179.194 189.631 183.184 186.952 187.146V187.845L187.079 188.227L188.36 188.927L190.848 188.027C194.217 185.892 197.05 182.257 199.348 177.122C201.645 171.988 202.944 162.401 203.243 148.37V146.389C203.243 143.317 201.709 141.591 198.639 141.209L198.648 141.236Z" fill="white"/>
</g>
<defs>
<filter id="filter0_dd_368_1409" x="0" y="0" width="238" height="289" filterUnits="userSpaceOnUse" color-interpolation-filters="sRGB">
<feFlood flood-opacity="0" result="BackgroundImageFix"/>
<feColorMatrix in="SourceAlpha" type="matrix" values="0 0 0 0 0 0 0 0 0 0 0 0 0 0 0 0 0 0 127 0" result="hardAlpha"/>
<feOffset dy="4"/>
<feGaussianBlur stdDeviation="2"/>
<feComposite in2="hardAlpha" operator="out"/>
<feColorMatrix type="matrix" values="0 0 0 0 0 0 0 0 0 0 0 0 0 0 0 0 0 0 0.25 0"/>
<feBlend mode="normal" in2="BackgroundImageFix" result="effect1_dropShadow_368_1409"/>
<feColorMatrix in="SourceAlpha" type="matrix" values="0 0 0 0 0 0 0 0 0 0 0 0 0 0 0 0 0 0 127 0" result="hardAlpha"/>
<feOffset dy="4"/>
<feGaussianBlur stdDeviation="2"/>
<feComposite in2="hardAlpha" operator="out"/>
<feColorMatrix type="matrix" values="0 0 0 0 0 0 0 0 0 0 0 0 0 0 0 0 0 0 0.25 0"/>
<feBlend mode="normal" in2="effect1_dropShadow_368_1409" result="effect2_dropShadow_368_1409"/>
<feBlend mode="normal" in="SourceGraphic" in2="effect2_dropShadow_368_1409" result="shape"/>
</filter>
<clipPath id="clip0_368_1409">
<rect width="230" height="281" fill="white" transform="translate(4)"/>
</clipPath>
</defs>
</svg>
