<svg width="46" height="46" viewBox="0 0 46 46" fill="none" xmlns="http://www.w3.org/2000/svg">
<circle cx="23" cy="23" r="22" stroke="black" stroke-width="2"/>
<path fill-rule="evenodd" clip-rule="evenodd" d="M28.5617 16.75C28.5617 19.5459 26.2951 21.8125 23.4992 21.8125C20.7032 21.8125 18.4367 19.5459 18.4367 16.75C18.4367 13.9541 20.7032 11.6875 23.4992 11.6875C26.2951 11.6875 28.5617 13.9541 28.5617 16.75ZM26.8742 16.75C26.8742 18.614 25.3631 20.125 23.4992 20.125C21.6352 20.125 20.1242 18.614 20.1242 16.75C20.1242 14.886 21.6352 13.375 23.4992 13.375C25.3631 13.375 26.8742 14.886 26.8742 16.75Z" fill="#2F3030"/>
<path fill-rule="evenodd" clip-rule="evenodd" d="M23.4995 23.5C15.9867 23.5 14.0484 29.0745 13.5483 31.9509C13.3887 32.8691 14.13 33.625 15.062 33.625H31.937C32.869 33.625 33.6102 32.8691 33.4506 31.9509C32.9505 29.0745 31.0123 23.5 23.4995 23.5ZM29.8176 27.738C30.9386 29.0604 31.4787 30.6806 31.7314 31.9375H15.2676C15.5202 30.6806 16.0603 29.0604 17.1814 27.738C18.3367 26.3751 20.2229 25.1875 23.4995 25.1875C26.776 25.1875 28.6622 26.3751 29.8176 27.738Z" fill="#2F3030"/>
</svg>
