<svg width="130" height="159" viewBox="0 0 130 159" fill="none" xmlns="http://www.w3.org/2000/svg">
<g clip-path="url(#clip0_219_7364)">
<path d="M64.0607 74.3221C63.568 74.3221 63.1933 73.5816 63.0444 72.5532C63.2241 73.2114 63.4345 74.2038 64.0607 74.3221Z" fill="white"/>
<path d="M13.9198 9.93919C13.9403 9.80035 15.0952 3.30605 31.4222 0.750488C24.1492 2.10797 15.1054 5.27542 13.9198 9.93919Z" fill="white"/>
<path d="M51.8706 3.13684C51.1161 2.96716 49.0323 2.05189 46.2452 1.25488C48.1546 1.7228 50.1409 2.31927 51.9168 3.01344C59.4259 4.93653 66.4833 8.08856 70.3225 17.6269C69.7118 16.1563 65.1078 6.12433 51.8706 3.1317V3.13684Z" fill="white"/>
<path d="M4.99408 23.4163C6.44662 17.7344 9.10021 12.2994 13.9198 9.94434C12.7906 10.6642 7.42183 14.7109 4.99408 23.4163Z" fill="white"/>
<path d="M39.4035 0.0411358C38.998 0.0205679 38.5925 0.0102839 38.1819 0.0102839C38.4744 -0.0102839 38.8902 0 39.4035 0.0411358Z" fill="white"/>
<path d="M73.4176 22.3369C74.6032 24.6817 75.5784 28.1833 75.1267 33.7418C74.2234 44.8793 71.6981 49.7385 71.6468 49.8259C71.7186 49.6356 78.0831 33.1402 73.4124 22.3369H73.4176Z" fill="white"/>
<path d="M3.27974 38.2153L3.3208 41.0537C3.31567 40.8069 3.26948 39.7733 3.27974 38.2153Z" fill="white"/>
<path d="M56.4849 86.9817C56.4849 86.9817 56.4695 87.0177 56.4644 87.028C56.4695 87.0177 56.4798 86.9971 56.4901 86.9766L56.4849 86.9817Z" fill="white"/>
<path d="M2.11466 57.379C0.302827 53.975 0 47.8149 0 46.1078C0 42.0251 3.32083 41.079 3.32083 41.079C3.33623 42.0148 4.70665 42.7193 4.65532 40.7499C4.60399 38.7805 6.21565 32.7336 6.41582 32.0754C6.616 31.4172 8.1096 29.0005 8.0788 28.1932C7.72465 19.6215 15.0746 13.9242 16.3834 13.9756C16.4348 12.1605 22.3219 7.97496 23.9336 7.47105C25.5452 6.96714 26.9516 7.77442 27.9627 8.27834C28.9687 8.78225 32.3922 7.01855 35.9645 7.01855C40.5839 7.01855 45.2752 8.45316 47.8928 10.4997C50.0742 12.2017 50.4746 14.6492 51.3677 14.0271C58.615 8.98279 59.2206 14.0785 59.6723 15.8936C60.124 17.7087 69.8914 21.4418 65.5595 22.5987C61.2326 23.7608 63.5475 28.4966 64.6561 30.1111C65.7648 31.7257 65.3131 36.5643 66.0676 40.6985C66.8221 44.8326 65.6672 56.2272 65.7802 55.4199C65.8931 54.6126 69.5424 50.8333 69.9992 50.3756C70.456 49.9232 71.6571 49.8203 71.6571 49.8203L72.6015 50.5248C73.3252 50.8127 73.3508 52.8078 73.3919 54.3093C73.4432 56.1758 73.3919 57.6361 73.3149 58.392C72.7862 63.6471 69.7477 68.424 69.5013 69.5089C69.3782 70.0591 69.2036 70.5527 68.9932 70.9898C68.9932 70.9898 68.9727 71.0258 68.9419 71.0978C68.9419 71.0978 68.9419 71.1029 68.9419 71.1081C68.9213 71.1492 68.9008 71.1955 68.8752 71.2366C68.4081 72.0285 66.6681 73.1649 64.8614 73.1649C64.2814 73.1649 65.0821 71.8897 64.9127 71.2469C64.5227 69.7763 63.8041 68.1823 63.8041 68.1823C63.0444 69.4729 62.8648 71.2366 63.0547 72.5427C62.9521 72.1673 62.8597 71.8999 62.7108 71.9668C62.4131 72.1005 61.053 76.0289 59.8314 79.2992C60.2933 77.6024 54.668 77.5304 53.0871 78.965C51.5011 80.4048 47.6516 87.6601 47.1075 88.7193C46.5635 89.7786 43.2683 88.5702 42.9706 86.2255C42.6678 83.8807 38.9671 81.9885 39.8756 82.7444C40.7841 83.5002 41.3128 88.5702 39.8756 87.6601C38.4436 86.75 35.5745 87.8863 33.3828 89.0947C31.1912 90.3031 25.9097 90.0768 25.5966 87.4287C25.2886 84.7806 23.795 85.4645 21.4545 85.3102C19.114 85.1611 14.0532 84.1018 14.4382 83.0426C14.8283 81.9833 18.7342 79.4895 19.9352 78.9599C21.1363 78.4302 28.9277 78.8056 30.2878 78.9599C31.648 79.1141 32.4795 75.8593 33.3058 75.8593C34.1322 75.8593 34.4401 74.6509 33.3058 74.3064C33.3058 74.3064 31.3913 73.6379 30.411 74.62C29.4307 75.6022 25.0782 73.7099 24.144 73.787C23.215 73.8642 19.463 71.8434 17.9284 71.8948C16.3937 71.9462 14.4279 78.0446 13.6272 78.9547C12.8214 79.8649 13.0985 85.6084 12.1695 85.6856C11.2405 85.7627 11.9694 78.8005 11.0096 78.9547C10.0549 79.109 8.1404 78.9804 7.56041 80.0397C6.98042 81.0989 8.21739 85.9889 8.08907 87.151C8.07881 87.2282 8.07881 87.3516 8.08907 87.5161C7.88376 87.259 7.71952 87.0893 7.71952 87.0893C7.30891 86.8014 6.93935 86.4363 6.61087 86.0404C6.27724 85.6444 5.97955 85.2228 5.71265 84.8217C5.21991 84.0864 4.66559 80.7801 3.93675 77.9777C3.20791 75.1754 2.27377 73.3243 2.12492 72.0028C1.92475 70.2339 2.33023 57.7544 2.12492 57.3687L2.11466 57.379ZM11.7025 31.9777C11.451 32.0291 6.18999 32.6821 5.65106 35.757C4.03427 44.9869 7.94536 45.825 8.49968 46.0307C5.0608 44.6938 5.40982 38.4206 6.113 35.8599C6.81617 33.2889 11.8564 31.9468 11.7025 31.9777ZM11.2508 36.3175C10.3834 37.3767 10.4604 39.1559 9.62887 39.305C8.79738 39.4541 7.47828 39.6341 7.81704 39.017C8.1558 38.4 9.51595 36.3175 10.0446 36.3175C10.5733 36.3175 9.02321 34.8058 7.28838 37.6801C6.81617 38.4617 6.34397 37.7521 6.26698 37.8652C6.18999 37.9835 5.77424 39.7575 6.26698 39.7575C6.75971 39.7575 8.30464 39.7986 8.75632 40.3642C9.20799 40.9298 8.00182 43.2746 7.84784 43.7271C7.69899 44.1796 9.43383 41.6446 10.0395 41.6446C10.6451 41.6446 11.0609 44.0665 11.0968 44.8223C11.1327 45.5782 14.4741 44.8223 15.8086 44.8223C17.1431 44.8223 13.7042 44.2156 13.6272 42.2873C13.5861 41.2641 11.3996 41.7217 11.0968 41.6446C10.794 41.5675 10.835 40.8527 10.835 40.8527C10.835 40.8527 13.6991 36.6569 14.7256 36.2764C16.7068 35.5411 19.5554 35.1811 22.5786 38.7342C22.9584 39.1816 21.6034 39.8706 21.4494 39.9426C21.2954 40.0197 21.3313 40.9916 22.014 40.6368C22.6915 40.282 24.1646 39.1096 24.1646 39.4541C24.1646 39.7986 23.6 40.7396 23.6718 41.4955C23.7488 42.2513 24.7651 42.0251 25.0679 40.8527C25.3707 39.6803 26.618 35.5411 23.6718 34.1065C21.978 33.2786 20.2227 31.9777 15.9318 31.5869C14.2688 31.4378 18.3082 32.1165 19.3655 32.9084C20.4228 33.7002 15.7419 34.019 15.0233 34.1065C14.3047 34.1939 12.1182 35.2531 11.2508 36.3124V36.3175ZM17.8771 40.3642C20.0892 40.3642 22.1474 39.3924 22.2244 39.0119C22.2963 38.6314 20.351 37.0939 19.1551 36.6517C17.9797 36.2147 16.6709 35.9627 15.4288 36.3843C15.1619 36.4769 15.6649 40.3642 17.8771 40.3642ZM16.1217 30.5276C15.4442 30.7899 14.8385 31.0573 15.9728 31.1344L17.1072 31.2115C17.1482 31.2218 17.2098 31.2372 17.2868 31.2527C18.262 31.4738 21.9216 32.2194 24.0927 33.5151C24.7138 33.8853 25.9405 34.9909 25.9405 36.009C25.9405 36.009 27.4905 36.2352 27.6034 36.009C27.7164 35.7827 28.6248 34.307 27.8293 32.9855C27.8293 32.9855 26.5461 32.9855 26.4691 32.533C26.3921 32.0805 24.9191 32.533 25.5247 32.1936C26.1304 31.8543 26.2792 31.5972 27.1877 30.7436C28.0962 29.8849 25.2629 31.5869 24.4315 31.3246C23.6 31.0624 21.9011 30.0751 20.9207 30.1163C19.9404 30.1523 16.8043 30.2654 16.1268 30.5328L16.1217 30.5276ZM46.2812 42.5547C47.5438 42.5547 48.5088 42.0354 48.6422 39.3924C49.602 40.5185 50.3565 42.1382 50.3565 42.1382C50.3565 42.1382 50.8082 42.4776 51.4908 42.6678C52.1683 42.8581 53.2667 44.7503 54.1342 45.1617C55.0016 45.5731 55.6072 45.4959 55.0016 44.9406C52.2813 42.4467 52.0195 39.7575 51.9938 39.1199C51.9682 38.4823 50.6593 37.1094 50.0588 36.77C49.4583 36.4306 46.9792 36.2301 47.7183 36.4306C50.3206 37.1402 51.2907 39.269 51.6448 40.174C51.999 41.0841 51.265 41.1561 51.0032 40.3642C50.7415 39.5724 47.6413 37.1505 46.3992 36.8831C45.152 36.6209 40.6969 38.3589 39.2648 39.1199C37.8277 39.8809 37.1912 39.8346 38.5873 38.364C39.696 37.1968 42.4214 36.3792 43.2734 36.1581C43.3761 36.1427 43.448 36.1273 43.4942 36.1118C43.5865 36.081 43.4942 36.1015 43.2734 36.1581C42.3958 36.2969 39.5933 36.5437 37.5711 37.4744C35.3178 38.5131 34.9277 39.8706 34.8867 40.6368C34.8508 41.4081 38.5103 41.0018 39.2648 40.6368C40.0193 40.2717 40.9638 39.1507 41.7952 38.9245C42.2059 38.8114 43.412 38.5285 44.6798 38.3846C44.4026 39.6032 43.9818 42.5599 46.2863 42.5599L46.2812 42.5547ZM51.9168 36.4666C51.0084 36.1118 46.3274 33.2889 45.7269 32.3325C45.1212 31.3761 42.5035 31.0727 40.1374 30.7693C37.7712 30.4659 35.7079 32.8878 35.1536 33.6437C34.5993 34.3995 33.3418 35.3097 33.0903 35.6079C33.0903 35.6079 32.6899 36.2147 32.7874 36.3124C32.8849 36.4101 35.1536 37.4744 35.1536 37.4744C37.5608 34.1065 45.0186 35.0012 46.1272 34.9549C47.2359 34.9086 52.8202 36.8214 51.9168 36.4666ZM52.9075 22.3056L53.1436 22.4239C53.1743 22.4393 53.2 22.4445 53.2308 22.4445C53.3027 22.4445 53.3745 22.4033 53.4053 22.3365C53.4515 22.2388 53.4156 22.1205 53.3181 22.0691L53.082 21.9508C46.6815 18.7371 42.6011 16.8346 41.282 16.4541C40.2093 16.1404 38.418 16.269 36.3444 16.4181C34.3118 16.5621 32.0073 16.7266 30.1595 16.4489C26.9978 15.9759 24.8883 16.4489 23.677 16.922C22.3476 17.4465 21.7727 18.0841 21.7522 18.1098C21.6804 18.1921 21.6906 18.3155 21.7676 18.3875C21.8497 18.4594 21.9729 18.4492 22.0448 18.372C22.0499 18.3669 22.594 17.7653 23.8463 17.2768C25.0114 16.8243 27.0388 16.3821 30.0979 16.8397C31.9867 17.1225 34.3118 16.958 36.37 16.8089C38.3204 16.67 40.1631 16.5415 41.1742 16.8346C42.4522 17.2048 46.6199 19.1485 52.9075 22.3056ZM34.9585 38.7342C36.4316 37.4744 36.5445 36.0501 43.0733 35.7467L48.6627 36.1118C48.6627 36.1118 43.9048 35.5925 43.6019 35.5565C43.2991 35.5205 38.3923 35.4434 36.5805 36.7289C34.7686 38.0144 35.2203 38.2406 34.8815 38.2406C34.5428 38.2406 32.5411 36.7649 31.3708 36.5026C30.2006 36.2404 26.541 36.5643 26.0482 36.8934C25.5555 37.2225 28.6505 36.6414 29.9747 36.8934C31.2938 37.1454 34.7686 38.3177 34.9585 38.7342ZM18.3031 22.2491C18.3031 22.3571 18.3903 22.4445 18.4981 22.4445C19.2885 22.4445 20.9977 21.8326 22.6504 21.2361C23.6051 20.8916 24.5033 20.5728 25.1192 20.4082C26.2125 20.1203 28.5222 20.1666 31.9919 20.5522C32.5462 20.6139 33.5009 20.5676 34.6044 20.5111C36.2674 20.4288 38.3358 20.326 39.9116 20.5522C41.5951 20.7939 44.0793 21.8069 46.0707 22.6244C47.1332 23.0615 48.052 23.4369 48.5704 23.5706C48.5858 23.5706 48.6063 23.5757 48.6217 23.5757C48.7089 23.5757 48.7911 23.5191 48.8116 23.4266C48.8372 23.3186 48.7757 23.2106 48.673 23.1849C48.1803 23.0564 47.2718 22.681 46.2196 22.2542C44.2076 21.4315 41.7029 20.4031 39.968 20.1563C38.3512 19.9249 36.2622 20.0277 34.5839 20.1152C33.4957 20.1717 32.5565 20.218 32.0329 20.1563C30.7241 20.0123 26.7309 19.565 25.0166 20.0226C24.3853 20.1923 23.4768 20.5162 22.517 20.8607C20.972 21.4161 19.2218 22.0434 18.4981 22.0434C18.3903 22.0434 18.3031 22.1308 18.3031 22.2388V22.2491ZM53.3386 19.5084C53.277 19.4673 47.3796 15.5439 43.3196 14.3407C40.8508 13.6054 37.6173 13.6157 33.8755 13.626C31.4119 13.6311 28.6197 13.6363 25.689 13.4255C24.2518 13.3226 22.4041 13.7751 21.1825 14.0733C20.5922 14.2173 20.0379 14.3561 19.8891 14.3356C19.7813 14.3202 19.6837 14.3973 19.6684 14.5053C19.653 14.6132 19.7299 14.7109 19.8377 14.7264C20.0533 14.7572 20.4793 14.6544 21.28 14.459C22.4759 14.1659 24.2877 13.7185 25.6633 13.8214C28.6094 14.0322 31.4067 14.0271 33.8807 14.0219C37.5916 14.0116 40.7995 14.0065 43.2119 14.7212C47.2153 15.909 53.0666 19.8015 53.123 19.8375C53.159 19.8581 53.1949 19.8683 53.2308 19.8683C53.2924 19.8683 53.3591 19.8375 53.3951 19.7809C53.4566 19.6884 53.431 19.5701 53.3386 19.5084ZM68.5107 67.5087C70.7948 65.493 72.7554 58.9216 72.7554 58.9216C72.7554 58.9216 71.8675 60.1814 71.462 60.819C71.0617 61.4566 70.2199 61.0195 69.5989 61.0555C68.9778 61.0915 69.296 62.197 69.8144 62.3307C70.3328 62.4644 70.6203 62.9169 70.4355 63.6419C70.2507 64.367 67.7665 65.0868 67.9513 65.4211C68.136 65.7553 68.7417 65.961 68.7571 66.2592C68.7725 66.5626 67.6844 66.4083 67.6844 66.4083C67.6844 66.4083 66.2267 69.5192 68.5056 67.4984L68.5107 67.5087ZM67.8743 59.5746C68.367 60.3665 68.0642 60.5567 68.0642 60.5567C68.0642 60.5567 68.8546 60.9373 69.2704 60.5567C69.6861 60.1762 71.0463 60.3305 70.9693 59.9911C70.8923 59.6518 71.0822 58.0629 70.1788 58.5154C69.2704 58.9679 67.7254 58.9679 67.8743 58.5514C68.0231 58.1349 68.136 56.9625 68.9316 56.4329C69.722 55.9033 71.2362 54.6949 71.1951 53.7076C71.1592 52.7255 70.4406 53.4454 69.6091 54.4635C68.7776 55.4816 67.9102 56.618 67.9102 56.618V55.4816C67.9102 55.4816 69.1934 54.2733 69.3833 53.8156C69.5732 53.3631 68.7776 53.3631 68.136 54.0419C67.4945 54.7206 67.1916 54.6486 67.1916 56.1604C67.1916 57.6721 67.3815 58.7673 67.8691 59.5644L67.8743 59.5746ZM64.7434 67.555C65.0821 67.8172 65.4979 66.3055 65.8366 65.889C66.1754 65.4725 66.1395 66.0021 66.4782 65.3953C66.817 64.7886 67.0839 63.7293 66.781 63.7293H66.4782C66.4782 63.7293 65.9495 64.9788 65.7596 65.2822C65.5697 65.5856 65.4209 64.9788 65.195 65.2822C64.9692 65.5856 64.4046 67.2876 64.7434 67.5498V67.555ZM55.4173 48.468C55.6072 48.0463 56.3977 46.2724 56.8493 43.4237C56.8853 43.1975 58.384 43.1717 58.538 43.398C58.692 43.6242 59.1693 44.1539 59.4208 43.2952C59.9135 43.614 60.7553 43.9585 61.7613 44.6321C63.6142 45.8764 65.8469 47.6401 66.2472 48.1132L66.278 47.2802C66.278 47.2802 62.408 43.7991 61.3096 43.2694C59.7749 42.529 59.1385 41.7114 58.7433 42.817C58.6355 43.1203 57.686 42.6421 57.3318 42.6421C56.9776 42.6421 55.1915 39.8192 54.6885 39.3153C54.1855 38.8114 52.9793 38.0812 52.5995 37.8807C52.2197 37.6801 54.4113 39.4952 54.94 40.1226C55.4686 40.755 56.0743 41.2332 56.023 42.7193C55.9716 44.2053 55.7715 45.825 55.2428 47.2853C54.7141 48.7456 54.1598 50.6122 49.9305 52.3502C49.1657 52.6638 45.7525 52.705 44.7465 52.6278C43.7405 52.5507 38.3307 50.6122 37.7918 50.2317C37.2477 49.8512 39.5163 52.6278 45.9322 53.1317C47.1127 53.2243 53.1282 53.4865 55.4225 48.468H55.4173ZM46.584 68.3828C41.4 62.8089 39.8808 59.0964 38.6541 56.9368C37.6378 55.1474 37.4479 53.6819 37.4479 53.6819H39.4086C39.4086 53.6819 37.8226 52.0931 37.4479 51.5377C37.0681 50.9824 35.0715 48.3086 34.8302 47.743C34.589 47.1773 34.8302 47.2031 35.5077 47.5013C34.0963 44.6783 34.1476 41.1458 34.1476 41.1458C34.1476 41.1458 32.4384 40.4157 32.4127 40.6933C32.3871 40.971 32.4641 42.8118 32.9927 44.6783C33.5214 46.5449 34.9072 48.9153 35.4359 49.8306C35.9645 50.7459 36.3238 52.8952 35.9902 52.2679C35.2614 50.9053 33.5009 50.8539 32.4179 50.9567C31.3349 51.0595 32.0381 52.2422 32.4179 52.0416C32.7977 51.8411 34.0295 51.9131 34.6814 52.1188C35.3332 52.3245 36.1134 54.5149 36.1134 54.5149C37.0989 57.523 34.6557 59.0861 34.861 59.5181C34.5428 59.698 34.1835 59.5798 34.127 58.9216C34.0501 58.0835 32.9209 57.5693 31.8379 57.595C30.796 57.6207 29.6719 58.0578 28.5376 59.3073C27.4033 60.5567 24.2364 59.3073 24.6676 59.8369C25.1038 60.3665 28.4709 63.6214 30.3853 63.4311C33.6394 63.1072 34.8969 60.5053 35.1279 59.5952C36.4675 59.8883 37.3504 61.0298 38.1972 62.1816C39.4496 63.8887 40.3786 65.7141 40.4351 65.6113C40.5377 65.4365 40.4351 64.4287 40.7892 64.7269C41.1434 65.0251 43.9869 69.5449 45.3419 70.0694C46.7021 70.599 47.7645 69.658 46.5737 68.3777L46.584 68.3828ZM23.9336 64.8554C24.1338 65.4622 25.0422 66.1152 25.7454 66.1152C26.4486 66.1152 28.127 64.7526 28.127 63.5545C28.127 63.5545 25.3091 61.3383 24.8934 61.0195C23.8977 60.2637 23.7334 64.2487 23.9387 64.8503L23.9336 64.8554ZM14.433 71.9154C14.8231 71.324 15.8343 69.9974 16.9891 69.8997C18.1491 69.7969 23.5332 69.8997 24.2364 69.8997C24.9396 69.8997 26.4024 71.36 27.5572 71.2572C28.7172 71.1595 31.3298 70.5013 31.7866 70.6761C32.2382 70.8561 35.3127 72.9695 35.867 73.2729C36.4213 73.5762 36.216 74.3321 36.719 75.0365C37.222 75.741 38.2794 76.7025 38.731 76.7025C39.1827 76.7025 40.8457 79.3764 42.8064 78.9187C43.5917 78.7388 37.7866 76.8002 39.5831 73.1186C40.0296 72.2033 41.3436 72.2547 41.6464 72.3062C41.9492 72.3627 43.8586 74.327 44.3667 75.0314C44.8697 75.7358 44.4694 73.7202 43.915 72.9643C43.3607 72.2085 40.3427 67.2156 40.6917 68.8816C40.8816 69.7712 41.246 71.756 39.8859 71.6068C38.5257 71.4577 36.5137 68.244 35.6053 68.1874C34.6968 68.1309 36.4624 69.4421 35.6053 69.5912C34.7481 69.7403 30.5239 67.8789 29.5128 67.1693C28.5068 66.4649 27.4495 66.3106 25.4837 67.5807C24.8883 67.9663 24.4263 65.7553 23.2715 65.6576C22.1115 65.5599 18.3955 66.47 15.824 68.4342C15.3672 68.7839 13.5605 68.4342 13.155 69.1901C12.7495 69.946 13.6067 72.7689 12.0977 73.7768C10.5887 74.7846 9.96762 75.2371 9.52108 75.5919C9.07454 75.9467 11.995 75.6176 14.4228 71.9102L14.433 71.9154ZM21.4442 57.9858C21.3673 57.1168 20.3356 56.3866 19.6684 55.9804C19.4322 55.8364 18.7701 55.8518 18.4981 56.1501C18.3493 56.3095 18.416 56.6026 18.4622 56.8494C18.5597 57.3533 19.4066 58.248 19.6684 58.4383C19.9301 58.6285 21.5161 58.8548 21.4442 57.9858ZM8.0788 65.6576C11.1738 65.8118 12.0874 65.8118 11.7076 66.794C11.3483 67.7144 13.9095 62.9272 14.3612 60.8858C14.4074 60.9115 14.433 60.9218 14.433 60.9218C14.433 60.9218 17.2406 57.2865 17.7949 56.3763C17.6461 56.1244 17.7436 55.3171 17.8976 54.4121C18.0464 53.502 20.6179 52.0931 20.9156 51.2858C21.2184 50.4785 20.9156 49.6712 20.9156 49.6712C21.2697 48.9153 22.3733 48.2572 22.9533 47.1516C23.5332 46.041 23.8823 45.5113 23.8823 45.5113C27.2031 42.0045 26.2843 39.6649 25.9969 40.5493C24.955 43.7271 22.8865 45.6965 19.0011 47.4087C16.4194 48.5451 10.1935 47.1568 10.1935 47.1568C13.6169 49.373 19.2013 48.1646 19.925 47.9126C20.6487 47.6607 22.7736 46.2107 22.1731 47.0025C21.2184 48.2623 17.1379 49.6249 15.5314 49.8357C13.9198 50.0466 12.8624 50.535 14.0224 50.5865C15.1824 50.6379 18.3031 50.3345 19.3553 50.134C20.4126 49.9334 20.1098 51.3938 18.9036 51.9491C17.6974 52.5044 16.0755 53.8979 14.9925 55.4713C13.6015 57.4818 13.3757 58.7982 13.5348 59.6312C13.2423 59.7392 12.9959 59.914 12.9959 59.914C12.9959 59.914 6.76484 62.1405 5.27637 60.7264C3.7879 59.3124 4.99408 65.5033 8.08907 65.6627L8.0788 65.6576ZM2.59199 52.7512C2.59199 52.7512 2.03767 47.6607 2.89482 46.802C3.75197 45.9433 3.04367 43.4237 2.41748 43.1203C1.7913 42.817 0.477337 43.8248 0.934144 47.9384C1.38582 52.0468 2.59713 52.7564 2.59713 52.7564L2.59199 52.7512Z" fill="white"/>
<path d="M10.1935 88.5805C10.948 88.5805 17.215 96.8231 19.2526 98.2628C21.2903 99.7026 23.5538 99.4712 22.8763 98.5662C22.1988 97.6612 14.5716 91.3829 15.3364 90.6219C16.1012 89.866 16.5323 91.0024 17.5178 91.9845C18.4981 92.9666 24.2364 96.3706 27.044 96.9773C29.8516 97.5841 31.6377 95.6147 32.7772 96.1443C33.9166 96.674 33.2956 99.0187 33.9782 100.53C34.6557 102.042 42.3599 94.3292 43.525 93.5734C44.6952 92.8175 49.2274 90.3956 49.833 88.5805C50.4387 86.7654 56.4541 87.0585 56.4541 87.0585C54.5089 91.2132 51.8707 96.5814 50.5105 98.2371C48.1957 101.06 39.1057 113.262 35.6463 114.475C34.9175 114.733 34.1271 114.902 33.3366 115.01C33.4188 114.09 33.2289 112.825 32.9979 111.2C32.5462 108.022 28.8918 100.057 24.2878 99.3015C24.2878 99.3015 29.8516 102.885 29.8259 111.91C29.8259 113.226 29.9388 114.352 30.1903 115.185C28.5581 115.159 27.3622 114.985 27.3622 114.985C27.3622 114.985 23.3382 111.874 19.576 108.66C19.7762 108.351 19.9353 108.053 19.9301 107.873C19.925 107.421 14.8796 101.821 13.6683 101.065C12.4621 100.309 9.43898 88.5856 10.1935 88.5856V88.5805ZM16.3835 101.765C17.4408 102.675 21.4186 106.706 23.0765 107.513C24.7394 108.321 26.1971 109.128 26.0483 108.65C25.8994 108.171 23.0765 102.52 23.0765 102.52C23.6308 107.261 21.6342 105.544 20.9618 105.091C17.3792 102.685 14.0686 96.6688 13.966 96.9722C13.8633 97.2756 15.3261 100.854 16.3835 101.765Z" fill="white"/>
<path d="M68.9368 71.1082C68.9368 71.1082 68.9368 71.1082 68.9368 71.1134C68.9368 71.1134 68.9368 71.1082 68.9368 71.1031C68.9676 71.0311 68.983 71.0003 68.9881 70.9951C68.9727 71.0311 68.9522 71.0671 68.9368 71.1031V71.1082Z" fill="white"/>
<path d="M43.489 36.1121C43.4428 36.1276 43.3658 36.143 43.2683 36.1584C43.489 36.1019 43.5865 36.0864 43.489 36.1121Z" fill="white"/>
<path d="M49.5302 129.187C47.7491 130.729 44.9929 132.647 41.2563 134.941C37.0886 137.717 32.3768 139.404 27.1159 140.006C21.8549 140.607 17.5845 140.386 14.3099 139.337C11.0352 138.288 9.13615 136.442 8.62288 133.799C8.10448 131.156 8.69987 128.837 10.409 126.832C11.1071 124.832 10.445 124.539 8.42271 125.963C7.09848 126.976 6.09248 128.462 5.4047 130.416C4.71693 132.37 4.6656 134.36 5.24046 136.386C5.81532 138.412 7.09848 140.175 9.08995 141.672C11.0763 143.168 14.0789 144.099 18.1029 144.459C22.1269 144.818 26.038 144.52 29.8413 143.554C33.6446 142.587 36.7191 141.45 39.0544 140.134C41.3898 138.818 43.3094 137.635 44.8184 136.586C46.3223 135.537 47.3745 134.807 47.9801 134.396C48.5806 133.984 49.6636 133.059 51.2291 131.609C51.999 128.832 51.4344 128.025 49.5302 129.182V129.187Z" fill="white"/>
<path d="M24.4058 153.416C24.2467 153.257 24.0209 153.102 23.7181 152.943C23.4152 152.784 23.0816 152.707 22.7069 152.707C22.3322 152.707 21.9781 152.768 21.6393 152.886C21.3006 153.005 21.008 153.19 20.7565 153.432C20.505 153.673 20.2946 153.977 20.1252 154.337C19.9558 154.696 19.8429 155.062 19.7813 155.422C19.7197 155.781 19.7197 156.126 19.7813 156.455C19.8429 156.779 19.9815 157.118 20.197 157.468C20.4126 157.818 20.6539 158.085 20.9208 158.265C21.1876 158.445 21.5418 158.62 21.9883 158.789C22.4349 158.959 22.8558 159.026 23.251 158.99C23.6462 158.954 23.9388 158.877 24.1184 158.753C24.298 158.63 24.4418 158.466 24.5495 158.244C24.6573 158.028 24.7241 157.864 24.7497 157.756C24.7754 157.648 24.7241 157.535 24.606 157.411C24.4828 157.288 24.4058 157.098 24.3699 156.83C24.334 156.563 24.3237 156.316 24.334 156.09C24.3442 155.859 24.4058 155.632 24.5136 155.401C24.6214 155.17 24.7087 154.943 24.7651 154.712C24.8267 154.481 24.8216 154.249 24.7446 154.007C24.6727 153.766 24.5598 153.565 24.4007 153.411L24.4058 153.416Z" fill="white"/>
<path d="M62.7519 141.651C67.1609 141.394 70.1122 138.725 71.6006 133.635C72.1293 131.393 71.8419 129.763 70.7332 128.75C68.8085 128.169 67.8794 129.027 67.9513 131.321C68.0488 136.293 66.2319 138.669 62.4953 138.448V138.484C61.7254 138.37 61.1865 138.252 60.9042 138.124C60.5911 137.98 60.3036 137.743 60.0367 137.419C59.7698 137.095 59.6056 136.72 59.5286 136.298C59.4568 135.877 59.4311 135.388 59.4567 134.833C59.4824 134.277 59.6364 133.038 59.929 131.105C60.2164 129.177 60.4371 127.66 60.5808 126.564C60.7245 125.469 60.8631 124.472 60.9965 123.577C61.13 122.682 61.2891 121.263 61.4841 119.309C61.438 118.126 61.0427 117.587 60.3088 117.679C59.5748 117.777 59.0153 118.26 58.6304 119.124C57.7168 120.908 57.2086 122.255 57.1111 123.16C57.0136 124.065 56.8956 125.171 56.7518 126.472C56.6081 127.773 56.4439 129.017 56.2642 130.2C56.0846 131.382 55.9255 132.545 55.792 133.691C55.6586 134.838 55.6073 135.815 55.6278 136.622C55.6534 137.429 55.792 138.149 56.0435 138.777C56.295 139.404 56.6389 139.918 57.0752 140.314C57.5063 140.71 58.0761 141.049 58.7741 141.327C59.4721 141.605 60.7964 141.744 62.7468 141.744V141.651H62.7519Z" fill="white"/>
<path d="M69.9736 151.154C69.6348 151.01 69.2396 150.907 68.7828 150.845C68.326 150.783 67.7973 150.752 67.1917 150.752C64.5894 150.752 62.29 151.416 60.2934 152.742C59.3798 153.344 58.923 153.951 58.923 154.552C58.923 155.396 59.3798 155.951 60.2934 156.218C60.4166 156.218 60.5757 156.208 60.781 156.182C60.9863 156.157 61.1711 156.11 61.3405 156.038C62.4234 155.169 63.3627 154.614 64.1583 154.372C65 154.105 65.8675 153.956 66.7605 153.92C67.6536 153.884 68.4954 153.853 69.2909 153.827C70.8307 153.488 71.6006 153.005 71.6006 152.382C71.6006 151.925 71.0566 151.513 69.9736 151.154Z" fill="white"/>
<path d="M88.1073 135.013C87.9635 134.026 87.5786 133.475 86.9524 133.367C86.3262 133.26 85.6384 133.553 84.8942 134.252C83.8831 135.219 82.836 136.761 81.753 138.885C80.67 141.008 79.4074 142.618 77.96 143.718C76.5177 144.814 74.7572 146.233 72.6836 147.971C70.0095 150.454 70.4663 151.411 74.054 150.83C79.2534 148.367 82.5178 145.991 83.842 143.703C85.1662 141.41 86.1825 139.646 86.8959 138.401C87.6043 137.157 88.0097 136.031 88.1073 135.018V135.013Z" fill="white"/>
<path d="M100.754 122.425C100.97 122.775 101.211 123.042 101.478 123.222C101.745 123.402 102.099 123.577 102.545 123.747C102.992 123.916 103.413 123.983 103.808 123.947C104.203 123.911 104.496 123.834 104.675 123.711C104.855 123.593 104.999 123.423 105.107 123.202C105.214 122.986 105.281 122.821 105.307 122.713C105.332 122.605 105.281 122.492 105.163 122.369C105.04 122.25 104.963 122.055 104.927 121.788C104.891 121.52 104.881 121.273 104.891 121.047C104.901 120.816 104.963 120.59 105.071 120.358C105.178 120.127 105.266 119.901 105.322 119.669C105.384 119.438 105.379 119.206 105.302 118.965C105.23 118.723 105.117 118.523 104.958 118.368C104.799 118.214 104.573 118.055 104.27 117.895C103.967 117.741 103.634 117.659 103.259 117.659C102.884 117.659 102.53 117.72 102.191 117.839C101.853 117.962 101.56 118.142 101.308 118.384C101.057 118.625 100.847 118.929 100.677 119.289C100.508 119.649 100.395 120.014 100.333 120.374C100.272 120.734 100.272 121.078 100.333 121.407C100.395 121.736 100.533 122.07 100.749 122.42L100.754 122.425Z" fill="white"/>
<path d="M99.8508 133.367C99.2246 133.26 98.5368 133.553 97.7926 134.252C96.7814 135.219 95.7344 136.761 94.6514 138.885C93.5684 141.008 92.3058 142.618 90.8584 143.718C89.4161 144.814 87.6556 146.233 85.582 147.971C82.9079 150.454 83.3647 151.411 86.9524 150.83C92.1518 148.367 95.4162 145.991 96.7404 143.703C98.0646 141.41 99.0809 139.646 99.7943 138.401C100.503 137.157 100.908 136.031 101.006 135.018C100.862 134.031 100.477 133.481 99.8508 133.373V133.367Z" fill="white"/>
<path d="M72.7401 92.9465C72.2576 92.9465 70.1173 94.4686 66.3089 97.5075C60.8888 102.187 56.1359 106.686 52.0401 111.005C48.4061 114.095 45.1161 116.769 42.1802 119.037C36.9552 122.605 32.4128 124.873 28.5633 125.84L26.0329 126.421L23.0713 126.385C20.5409 126.169 18.0362 125.202 15.5571 123.49C14.0635 121.968 13.0267 120.801 12.4519 119.978L11.9437 120.451V120.775C12.303 122.945 13.7042 124.935 16.132 126.745C17.8412 128.169 20.2022 129.228 23.2099 129.928L24.1492 130C28.3631 130.699 33.0133 129.722 38.0946 127.069C41.708 124.899 44.4745 123.053 46.4044 121.531C49.4121 119.021 52.7022 115.823 56.2642 111.941C59.8776 108.321 61.6689 106.526 61.6484 106.547C65.7648 102.613 68.9316 99.7442 71.1489 97.9343C73.2944 96.0266 74.362 94.6897 74.362 93.9184V93.4093L73.8898 92.9414H72.7349L72.7401 92.9465Z" fill="white"/>
<path d="M83.7907 83.9684V82.8474C83.7907 81.1094 82.9233 80.1325 81.1884 79.9165H80.7573L80.1773 80.3484C79.9104 85.1716 79.6846 88.5036 79.4895 90.3341C79.1302 93.9746 78.5605 96.9107 77.7906 99.1269C77.1644 101.395 76.0917 103.652 74.5776 105.894V106.29L74.6494 106.506L75.3731 106.902L76.7795 106.393C78.6837 105.184 80.2851 103.127 81.5837 100.222C82.8822 97.3169 83.6162 91.8922 83.7856 83.953L83.7907 83.9684Z" fill="white"/>
<path d="M96.7609 95.0442C95.9653 94.6123 95.1954 94.4169 94.4512 94.4632C93.7018 94.5095 93.1372 94.7151 92.7523 95.0802C92.3673 95.4402 91.9413 96.0315 91.4691 96.8542C90.9969 97.6769 90.4991 98.7773 89.9704 100.166C89.4417 101.554 90.4888 102.742 93.1116 103.729C91.9773 106.578 90.7352 108.403 89.375 109.21C88.0149 110.018 85.9721 111.375 83.2517 113.283C80.6495 115.381 80.901 116.358 84.0114 116.214C88.5127 114.306 91.4845 112.625 92.9165 111.164C94.3486 109.704 95.3854 108.311 96.0218 106.984C96.6583 105.657 97.2536 104.346 97.808 103.055C98.3623 101.765 98.6189 100.675 98.583 99.78C98.5471 98.8904 98.4341 97.9854 98.2391 97.065C98.0441 96.1498 97.5513 95.471 96.7558 95.0391L96.7609 95.0442Z" fill="white"/>
<path d="M128.26 57.8062C127.634 57.8782 127.126 58.1301 126.741 58.5672C126.402 58.9528 126.068 59.3231 125.73 59.6727C125.391 60.0224 125.032 60.3309 124.647 60.5931C123.251 61.7501 121.747 62.4494 120.13 62.691C119.334 62.8145 118.554 62.8762 117.779 62.8916C117.009 62.9019 116.26 62.8864 115.541 62.835C114.72 62.763 114.007 62.7219 113.391 62.7065C112.775 62.6962 112.267 62.7013 111.856 62.727C108.843 63.015 106.677 63.776 105.353 65.0049C104.655 65.6785 103.777 66.8663 102.715 68.5683C101.652 70.2703 100.97 72.6767 100.657 75.7876C100.657 76.3893 100.693 76.9343 100.764 77.4176C100.836 78.2146 101.196 78.5643 101.847 78.4666C102.689 78.3689 103.279 78.009 103.618 77.3817C103.788 76.5384 103.977 75.7105 104.198 74.9032C104.414 74.0959 104.629 73.2218 104.85 72.2808C105.281 71.4118 105.63 70.6405 105.897 69.9669C106.164 69.2933 106.534 68.7226 107.016 68.2649C107.596 67.6839 108.232 67.216 108.93 66.856C109.629 66.4961 110.362 66.275 111.132 66.203L111.892 66.095C112.446 66.095 113.088 66.1053 113.827 66.131C114.561 66.1567 115.387 66.2184 116.301 66.311C117.025 66.3367 117.651 66.347 118.18 66.347C118.708 66.347 119.165 66.3367 119.55 66.311C119.745 66.2853 119.925 66.2647 120.094 66.239C120.263 66.2133 120.443 66.1773 120.638 66.131C122.732 65.5757 124.513 64.8507 125.986 63.9611C127.454 63.0664 128.609 61.9712 129.456 60.6702C129.672 60.2846 129.82 59.9401 129.908 59.6367C129.99 59.3333 130.021 59.066 130 58.8243C129.903 58.0273 129.328 57.6879 128.265 57.8113L128.26 57.8062Z" fill="white"/>
<path d="M110.019 79.9168H109.587L109.007 80.3487C108.741 85.1719 108.515 88.5039 108.32 90.3344C107.96 93.9749 107.391 96.911 106.621 99.1272C105.995 101.395 104.922 103.652 103.408 105.894V106.29L103.48 106.506L104.203 106.902L105.61 106.393C107.514 105.184 109.115 103.128 110.414 100.222C111.712 97.3172 112.446 91.8924 112.616 83.9532V82.8323C112.616 81.0943 111.748 80.1173 110.013 79.9014L110.019 79.9168Z" fill="white"/>
</g>
<defs>
<clipPath id="clip0_219_7364">
<rect width="130" height="159" fill="white"/>
</clipPath>
</defs>
</svg>
